G04 #@! TF.GenerationSoftware,KiCad,Pcbnew,(6.0.6)*
G04 #@! TF.CreationDate,2022-08-07T11:28:29-07:00*
G04 #@! TF.ProjectId,1d_coinctrl_r2,31645f63-6f69-46e6-9374-726c5f72322e,3*
G04 #@! TF.SameCoordinates,Original*
G04 #@! TF.FileFunction,Legend,Bot*
G04 #@! TF.FilePolarity,Positive*
%FSLAX46Y46*%
G04 Gerber Fmt 4.6, Leading zero omitted, Abs format (unit mm)*
G04 Created by KiCad (PCBNEW (6.0.6)) date 2022-08-07 11:28:29*
%MOMM*%
%LPD*%
G01*
G04 APERTURE LIST*
%ADD10C,0.500000*%
%ADD11C,0.300000*%
G04 APERTURE END LIST*
D10*
X187960000Y-134620000D02*
X209550000Y-134620000D01*
X209550000Y-154940000D01*
X194310000Y-170180000D01*
X58420000Y-170180000D01*
X58420000Y-135890000D01*
X132080000Y-135890000D01*
X132080000Y-101600000D01*
X162560000Y-101600000D01*
X162560000Y-26670000D01*
X187960000Y-26670000D01*
X187960000Y-134620000D01*
D11*
X182262857Y-19488571D02*
X182262857Y-20488571D01*
X182620000Y-18917142D02*
X182977142Y-19988571D01*
X182048571Y-19988571D01*
X181477142Y-19917142D02*
X180334285Y-19917142D01*
X178905714Y-20488571D02*
X179620000Y-20488571D01*
X179620000Y-18988571D01*
X178405714Y-20488571D02*
X178405714Y-19488571D01*
X178405714Y-18988571D02*
X178477142Y-19060000D01*
X178405714Y-19131428D01*
X178334285Y-19060000D01*
X178405714Y-18988571D01*
X178405714Y-19131428D01*
X177691428Y-19488571D02*
X177691428Y-20488571D01*
X177691428Y-19631428D02*
X177620000Y-19560000D01*
X177477142Y-19488571D01*
X177262857Y-19488571D01*
X177120000Y-19560000D01*
X177048571Y-19702857D01*
X177048571Y-20488571D01*
X175762857Y-20417142D02*
X175905714Y-20488571D01*
X176191428Y-20488571D01*
X176334285Y-20417142D01*
X176405714Y-20274285D01*
X176405714Y-19702857D01*
X176334285Y-19560000D01*
X176191428Y-19488571D01*
X175905714Y-19488571D01*
X175762857Y-19560000D01*
X175691428Y-19702857D01*
X175691428Y-19845714D01*
X176405714Y-19988571D01*
X173048571Y-20345714D02*
X173120000Y-20417142D01*
X173334285Y-20488571D01*
X173477142Y-20488571D01*
X173691428Y-20417142D01*
X173834285Y-20274285D01*
X173905714Y-20131428D01*
X173977142Y-19845714D01*
X173977142Y-19631428D01*
X173905714Y-19345714D01*
X173834285Y-19202857D01*
X173691428Y-19060000D01*
X173477142Y-18988571D01*
X173334285Y-18988571D01*
X173120000Y-19060000D01*
X173048571Y-19131428D01*
X172191428Y-20488571D02*
X172334285Y-20417142D01*
X172405714Y-20345714D01*
X172477142Y-20202857D01*
X172477142Y-19774285D01*
X172405714Y-19631428D01*
X172334285Y-19560000D01*
X172191428Y-19488571D01*
X171977142Y-19488571D01*
X171834285Y-19560000D01*
X171762857Y-19631428D01*
X171691428Y-19774285D01*
X171691428Y-20202857D01*
X171762857Y-20345714D01*
X171834285Y-20417142D01*
X171977142Y-20488571D01*
X172191428Y-20488571D01*
X171048571Y-20488571D02*
X171048571Y-19488571D01*
X171048571Y-18988571D02*
X171120000Y-19060000D01*
X171048571Y-19131428D01*
X170977142Y-19060000D01*
X171048571Y-18988571D01*
X171048571Y-19131428D01*
X170334285Y-19488571D02*
X170334285Y-20488571D01*
X170334285Y-19631428D02*
X170262857Y-19560000D01*
X170120000Y-19488571D01*
X169905714Y-19488571D01*
X169762857Y-19560000D01*
X169691428Y-19702857D01*
X169691428Y-20488571D01*
X166977142Y-20345714D02*
X167048571Y-20417142D01*
X167262857Y-20488571D01*
X167405714Y-20488571D01*
X167620000Y-20417142D01*
X167762857Y-20274285D01*
X167834285Y-20131428D01*
X167905714Y-19845714D01*
X167905714Y-19631428D01*
X167834285Y-19345714D01*
X167762857Y-19202857D01*
X167620000Y-19060000D01*
X167405714Y-18988571D01*
X167262857Y-18988571D01*
X167048571Y-19060000D01*
X166977142Y-19131428D01*
X166120000Y-20488571D02*
X166262857Y-20417142D01*
X166334285Y-20345714D01*
X166405714Y-20202857D01*
X166405714Y-19774285D01*
X166334285Y-19631428D01*
X166262857Y-19560000D01*
X166120000Y-19488571D01*
X165905714Y-19488571D01*
X165762857Y-19560000D01*
X165691428Y-19631428D01*
X165620000Y-19774285D01*
X165620000Y-20202857D01*
X165691428Y-20345714D01*
X165762857Y-20417142D01*
X165905714Y-20488571D01*
X166120000Y-20488571D01*
X164977142Y-19488571D02*
X164977142Y-20488571D01*
X164977142Y-19631428D02*
X164905714Y-19560000D01*
X164762857Y-19488571D01*
X164548571Y-19488571D01*
X164405714Y-19560000D01*
X164334285Y-19702857D01*
X164334285Y-20488571D01*
X163834285Y-19488571D02*
X163262857Y-19488571D01*
X163620000Y-18988571D02*
X163620000Y-20274285D01*
X163548571Y-20417142D01*
X163405714Y-20488571D01*
X163262857Y-20488571D01*
X162762857Y-20488571D02*
X162762857Y-19488571D01*
X162762857Y-19774285D02*
X162691428Y-19631428D01*
X162620000Y-19560000D01*
X162477142Y-19488571D01*
X162334285Y-19488571D01*
X161620000Y-20488571D02*
X161762857Y-20417142D01*
X161834285Y-20345714D01*
X161905714Y-20202857D01*
X161905714Y-19774285D01*
X161834285Y-19631428D01*
X161762857Y-19560000D01*
X161620000Y-19488571D01*
X161405714Y-19488571D01*
X161262857Y-19560000D01*
X161191428Y-19631428D01*
X161120000Y-19774285D01*
X161120000Y-20202857D01*
X161191428Y-20345714D01*
X161262857Y-20417142D01*
X161405714Y-20488571D01*
X161620000Y-20488571D01*
X160262857Y-20488571D02*
X160405714Y-20417142D01*
X160477142Y-20274285D01*
X160477142Y-18988571D01*
X159477142Y-20488571D02*
X159620000Y-20417142D01*
X159691428Y-20274285D01*
X159691428Y-18988571D01*
X158334285Y-20417142D02*
X158477142Y-20488571D01*
X158762857Y-20488571D01*
X158905714Y-20417142D01*
X158977142Y-20274285D01*
X158977142Y-19702857D01*
X158905714Y-19560000D01*
X158762857Y-19488571D01*
X158477142Y-19488571D01*
X158334285Y-19560000D01*
X158262857Y-19702857D01*
X158262857Y-19845714D01*
X158977142Y-19988571D01*
X157620000Y-20488571D02*
X157620000Y-19488571D01*
X157620000Y-19774285D02*
X157548571Y-19631428D01*
X157477142Y-19560000D01*
X157334285Y-19488571D01*
X157191428Y-19488571D01*
X155548571Y-20488571D02*
X155548571Y-18988571D01*
X154905714Y-20417142D02*
X154762857Y-20488571D01*
X154477142Y-20488571D01*
X154334285Y-20417142D01*
X154262857Y-20274285D01*
X154262857Y-20202857D01*
X154334285Y-20060000D01*
X154477142Y-19988571D01*
X154691428Y-19988571D01*
X154834285Y-19917142D01*
X154905714Y-19774285D01*
X154905714Y-19702857D01*
X154834285Y-19560000D01*
X154691428Y-19488571D01*
X154477142Y-19488571D01*
X154334285Y-19560000D01*
X153691428Y-20417142D02*
X153548571Y-20488571D01*
X153262857Y-20488571D01*
X153120000Y-20417142D01*
X153048571Y-20274285D01*
X153048571Y-20202857D01*
X153120000Y-20060000D01*
X153262857Y-19988571D01*
X153477142Y-19988571D01*
X153620000Y-19917142D01*
X153691428Y-19774285D01*
X153691428Y-19702857D01*
X153620000Y-19560000D01*
X153477142Y-19488571D01*
X153262857Y-19488571D01*
X153120000Y-19560000D01*
X151405714Y-18988571D02*
X150477142Y-18988571D01*
X150977142Y-19560000D01*
X150762857Y-19560000D01*
X150620000Y-19631428D01*
X150548571Y-19702857D01*
X150477142Y-19845714D01*
X150477142Y-20202857D01*
X150548571Y-20345714D01*
X150620000Y-20417142D01*
X150762857Y-20488571D01*
X151191428Y-20488571D01*
X151334285Y-20417142D01*
X151405714Y-20345714D01*
X149834285Y-20345714D02*
X149762857Y-20417142D01*
X149834285Y-20488571D01*
X149905714Y-20417142D01*
X149834285Y-20345714D01*
X149834285Y-20488571D01*
X189584285Y-23475000D02*
X189655714Y-23403571D01*
X189798571Y-23189285D01*
X189870000Y-23046428D01*
X189941428Y-22832142D01*
X190012857Y-22475000D01*
X190012857Y-22189285D01*
X189941428Y-21832142D01*
X189870000Y-21617857D01*
X189798571Y-21475000D01*
X189655714Y-21260714D01*
X189584285Y-21189285D01*
X188370000Y-22832142D02*
X188512857Y-22903571D01*
X188798571Y-22903571D01*
X188941428Y-22832142D01*
X189012857Y-22760714D01*
X189084285Y-22617857D01*
X189084285Y-22189285D01*
X189012857Y-22046428D01*
X188941428Y-21975000D01*
X188798571Y-21903571D01*
X188512857Y-21903571D01*
X188370000Y-21975000D01*
X187870000Y-23475000D02*
X187798571Y-23403571D01*
X187655714Y-23189285D01*
X187584285Y-23046428D01*
X187512857Y-22832142D01*
X187441428Y-22475000D01*
X187441428Y-22189285D01*
X187512857Y-21832142D01*
X187584285Y-21617857D01*
X187655714Y-21475000D01*
X187798571Y-21260714D01*
X187870000Y-21189285D01*
X185655714Y-21546428D02*
X185584285Y-21475000D01*
X185441428Y-21403571D01*
X185084285Y-21403571D01*
X184941428Y-21475000D01*
X184870000Y-21546428D01*
X184798571Y-21689285D01*
X184798571Y-21832142D01*
X184870000Y-22046428D01*
X185727142Y-22903571D01*
X184798571Y-22903571D01*
X183870000Y-21403571D02*
X183727142Y-21403571D01*
X183584285Y-21475000D01*
X183512857Y-21546428D01*
X183441428Y-21689285D01*
X183370000Y-21975000D01*
X183370000Y-22332142D01*
X183441428Y-22617857D01*
X183512857Y-22760714D01*
X183584285Y-22832142D01*
X183727142Y-22903571D01*
X183870000Y-22903571D01*
X184012857Y-22832142D01*
X184084285Y-22760714D01*
X184155714Y-22617857D01*
X184227142Y-22332142D01*
X184227142Y-21975000D01*
X184155714Y-21689285D01*
X184084285Y-21546428D01*
X184012857Y-21475000D01*
X183870000Y-21403571D01*
X182798571Y-21546428D02*
X182727142Y-21475000D01*
X182584285Y-21403571D01*
X182227142Y-21403571D01*
X182084285Y-21475000D01*
X182012857Y-21546428D01*
X181941428Y-21689285D01*
X181941428Y-21832142D01*
X182012857Y-22046428D01*
X182870000Y-22903571D01*
X181941428Y-22903571D01*
X181012857Y-21403571D02*
X180870000Y-21403571D01*
X180727142Y-21475000D01*
X180655714Y-21546428D01*
X180584285Y-21689285D01*
X180512857Y-21975000D01*
X180512857Y-22332142D01*
X180584285Y-22617857D01*
X180655714Y-22760714D01*
X180727142Y-22832142D01*
X180870000Y-22903571D01*
X181012857Y-22903571D01*
X181155714Y-22832142D01*
X181227142Y-22760714D01*
X181298571Y-22617857D01*
X181370000Y-22332142D01*
X181370000Y-21975000D01*
X181298571Y-21689285D01*
X181227142Y-21546428D01*
X181155714Y-21475000D01*
X181012857Y-21403571D01*
X179870000Y-22332142D02*
X178727142Y-22332142D01*
X178084285Y-21546428D02*
X178012857Y-21475000D01*
X177870000Y-21403571D01*
X177512857Y-21403571D01*
X177370000Y-21475000D01*
X177298571Y-21546428D01*
X177227142Y-21689285D01*
X177227142Y-21832142D01*
X177298571Y-22046428D01*
X178155714Y-22903571D01*
X177227142Y-22903571D01*
X176298571Y-21403571D02*
X176155714Y-21403571D01*
X176012857Y-21475000D01*
X175941428Y-21546428D01*
X175870000Y-21689285D01*
X175798571Y-21975000D01*
X175798571Y-22332142D01*
X175870000Y-22617857D01*
X175941428Y-22760714D01*
X176012857Y-22832142D01*
X176155714Y-22903571D01*
X176298571Y-22903571D01*
X176441428Y-22832142D01*
X176512857Y-22760714D01*
X176584285Y-22617857D01*
X176655714Y-22332142D01*
X176655714Y-21975000D01*
X176584285Y-21689285D01*
X176512857Y-21546428D01*
X176441428Y-21475000D01*
X176298571Y-21403571D01*
X175227142Y-21546428D02*
X175155714Y-21475000D01*
X175012857Y-21403571D01*
X174655714Y-21403571D01*
X174512857Y-21475000D01*
X174441428Y-21546428D01*
X174370000Y-21689285D01*
X174370000Y-21832142D01*
X174441428Y-22046428D01*
X175298571Y-22903571D01*
X174370000Y-22903571D01*
X173798571Y-21546428D02*
X173727142Y-21475000D01*
X173584285Y-21403571D01*
X173227142Y-21403571D01*
X173084285Y-21475000D01*
X173012857Y-21546428D01*
X172941428Y-21689285D01*
X172941428Y-21832142D01*
X173012857Y-22046428D01*
X173870000Y-22903571D01*
X172941428Y-22903571D01*
X171155714Y-22903571D02*
X171155714Y-21403571D01*
X171155714Y-22117857D02*
X170298571Y-22117857D01*
X170298571Y-22903571D02*
X170298571Y-21403571D01*
X169370000Y-22903571D02*
X169512857Y-22832142D01*
X169584285Y-22760714D01*
X169655714Y-22617857D01*
X169655714Y-22189285D01*
X169584285Y-22046428D01*
X169512857Y-21975000D01*
X169370000Y-21903571D01*
X169155714Y-21903571D01*
X169012857Y-21975000D01*
X168941428Y-22046428D01*
X168870000Y-22189285D01*
X168870000Y-22617857D01*
X168941428Y-22760714D01*
X169012857Y-22832142D01*
X169155714Y-22903571D01*
X169370000Y-22903571D01*
X168370000Y-21903571D02*
X168084285Y-22903571D01*
X167798571Y-22189285D01*
X167512857Y-22903571D01*
X167227142Y-21903571D01*
X166012857Y-22903571D02*
X166012857Y-22117857D01*
X166084285Y-21975000D01*
X166227142Y-21903571D01*
X166512857Y-21903571D01*
X166655714Y-21975000D01*
X166012857Y-22832142D02*
X166155714Y-22903571D01*
X166512857Y-22903571D01*
X166655714Y-22832142D01*
X166727142Y-22689285D01*
X166727142Y-22546428D01*
X166655714Y-22403571D01*
X166512857Y-22332142D01*
X166155714Y-22332142D01*
X166012857Y-22260714D01*
X165298571Y-22903571D02*
X165298571Y-21903571D01*
X165298571Y-22189285D02*
X165227142Y-22046428D01*
X165155714Y-21975000D01*
X165012857Y-21903571D01*
X164870000Y-21903571D01*
X163727142Y-22903571D02*
X163727142Y-21403571D01*
X163727142Y-22832142D02*
X163870000Y-22903571D01*
X164155714Y-22903571D01*
X164298571Y-22832142D01*
X164370000Y-22760714D01*
X164441428Y-22617857D01*
X164441428Y-22189285D01*
X164370000Y-22046428D01*
X164298571Y-21975000D01*
X164155714Y-21903571D01*
X163870000Y-21903571D01*
X163727142Y-21975000D01*
X161870000Y-22903571D02*
X161870000Y-21403571D01*
X161370000Y-22475000D01*
X160870000Y-21403571D01*
X160870000Y-22903571D01*
X160155714Y-22760714D02*
X160084285Y-22832142D01*
X160155714Y-22903571D01*
X160227142Y-22832142D01*
X160155714Y-22760714D01*
X160155714Y-22903571D01*
X158298571Y-22903571D02*
X158298571Y-21403571D01*
X158298571Y-22117857D02*
X157441428Y-22117857D01*
X157441428Y-22903571D02*
X157441428Y-21403571D01*
X156084285Y-22903571D02*
X156084285Y-22117857D01*
X156155714Y-21975000D01*
X156298571Y-21903571D01*
X156584285Y-21903571D01*
X156727142Y-21975000D01*
X156084285Y-22832142D02*
X156227142Y-22903571D01*
X156584285Y-22903571D01*
X156727142Y-22832142D01*
X156798571Y-22689285D01*
X156798571Y-22546428D01*
X156727142Y-22403571D01*
X156584285Y-22332142D01*
X156227142Y-22332142D01*
X156084285Y-22260714D01*
X155370000Y-22903571D02*
X155370000Y-21903571D01*
X155370000Y-22189285D02*
X155298571Y-22046428D01*
X155227142Y-21975000D01*
X155084285Y-21903571D01*
X154941428Y-21903571D01*
X154655714Y-21903571D02*
X154084285Y-21903571D01*
X154441428Y-21403571D02*
X154441428Y-22689285D01*
X154370000Y-22832142D01*
X154227142Y-22903571D01*
X154084285Y-22903571D01*
X153012857Y-22832142D02*
X153155714Y-22903571D01*
X153441428Y-22903571D01*
X153584285Y-22832142D01*
X153655714Y-22689285D01*
X153655714Y-22117857D01*
X153584285Y-21975000D01*
X153441428Y-21903571D01*
X153155714Y-21903571D01*
X153012857Y-21975000D01*
X152941428Y-22117857D01*
X152941428Y-22260714D01*
X153655714Y-22403571D01*
X151155714Y-22332142D02*
X150012857Y-22332142D01*
X148298571Y-21403571D02*
X147941428Y-22903571D01*
X147655714Y-21832142D01*
X147370000Y-22903571D01*
X147012857Y-21403571D01*
X146584285Y-21403571D02*
X145584285Y-21403571D01*
X146584285Y-22903571D01*
X145584285Y-22903571D01*
X145084285Y-21546428D02*
X145012857Y-21475000D01*
X144870000Y-21403571D01*
X144512857Y-21403571D01*
X144370000Y-21475000D01*
X144298571Y-21546428D01*
X144227142Y-21689285D01*
X144227142Y-21832142D01*
X144298571Y-22046428D01*
X145155714Y-22903571D01*
X144227142Y-22903571D01*
X142584285Y-23046428D02*
X142727142Y-22975000D01*
X142870000Y-22832142D01*
X143084285Y-22617857D01*
X143227142Y-22546428D01*
X143370000Y-22546428D01*
X143298571Y-22903571D02*
X143441428Y-22832142D01*
X143584285Y-22689285D01*
X143655714Y-22403571D01*
X143655714Y-21903571D01*
X143584285Y-21617857D01*
X143441428Y-21475000D01*
X143298571Y-21403571D01*
X143012857Y-21403571D01*
X142870000Y-21475000D01*
X142727142Y-21617857D01*
X142655714Y-21903571D01*
X142655714Y-22403571D01*
X142727142Y-22689285D01*
X142870000Y-22832142D01*
X143012857Y-22903571D01*
X143298571Y-22903571D01*
X187762857Y-25318571D02*
X187762857Y-23818571D01*
X187120000Y-25318571D02*
X187120000Y-24532857D01*
X187191428Y-24390000D01*
X187334285Y-24318571D01*
X187548571Y-24318571D01*
X187691428Y-24390000D01*
X187762857Y-24461428D01*
X186620000Y-24318571D02*
X186048571Y-24318571D01*
X186405714Y-23818571D02*
X186405714Y-25104285D01*
X186334285Y-25247142D01*
X186191428Y-25318571D01*
X186048571Y-25318571D01*
X185762857Y-24318571D02*
X185191428Y-24318571D01*
X185548571Y-23818571D02*
X185548571Y-25104285D01*
X185477142Y-25247142D01*
X185334285Y-25318571D01*
X185191428Y-25318571D01*
X184691428Y-24318571D02*
X184691428Y-25818571D01*
X184691428Y-24390000D02*
X184548571Y-24318571D01*
X184262857Y-24318571D01*
X184120000Y-24390000D01*
X184048571Y-24461428D01*
X183977142Y-24604285D01*
X183977142Y-25032857D01*
X184048571Y-25175714D01*
X184120000Y-25247142D01*
X184262857Y-25318571D01*
X184548571Y-25318571D01*
X184691428Y-25247142D01*
X183405714Y-25247142D02*
X183262857Y-25318571D01*
X182977142Y-25318571D01*
X182834285Y-25247142D01*
X182762857Y-25104285D01*
X182762857Y-25032857D01*
X182834285Y-24890000D01*
X182977142Y-24818571D01*
X183191428Y-24818571D01*
X183334285Y-24747142D01*
X183405714Y-24604285D01*
X183405714Y-24532857D01*
X183334285Y-24390000D01*
X183191428Y-24318571D01*
X182977142Y-24318571D01*
X182834285Y-24390000D01*
X182120000Y-25175714D02*
X182048571Y-25247142D01*
X182120000Y-25318571D01*
X182191428Y-25247142D01*
X182120000Y-25175714D01*
X182120000Y-25318571D01*
X182120000Y-24390000D02*
X182048571Y-24461428D01*
X182120000Y-24532857D01*
X182191428Y-24461428D01*
X182120000Y-24390000D01*
X182120000Y-24532857D01*
X180334285Y-23747142D02*
X181620000Y-25675714D01*
X178762857Y-23747142D02*
X180048571Y-25675714D01*
X177620000Y-24318571D02*
X177620000Y-25532857D01*
X177691428Y-25675714D01*
X177762857Y-25747142D01*
X177905714Y-25818571D01*
X178120000Y-25818571D01*
X178262857Y-25747142D01*
X177620000Y-25247142D02*
X177762857Y-25318571D01*
X178048571Y-25318571D01*
X178191428Y-25247142D01*
X178262857Y-25175714D01*
X178334285Y-25032857D01*
X178334285Y-24604285D01*
X178262857Y-24461428D01*
X178191428Y-24390000D01*
X178048571Y-24318571D01*
X177762857Y-24318571D01*
X177620000Y-24390000D01*
X176905714Y-25318571D02*
X176905714Y-24318571D01*
X176905714Y-23818571D02*
X176977142Y-23890000D01*
X176905714Y-23961428D01*
X176834285Y-23890000D01*
X176905714Y-23818571D01*
X176905714Y-23961428D01*
X176405714Y-24318571D02*
X175834285Y-24318571D01*
X176191428Y-23818571D02*
X176191428Y-25104285D01*
X176120000Y-25247142D01*
X175977142Y-25318571D01*
X175834285Y-25318571D01*
X175334285Y-25318571D02*
X175334285Y-23818571D01*
X174691428Y-25318571D02*
X174691428Y-24532857D01*
X174762857Y-24390000D01*
X174905714Y-24318571D01*
X175120000Y-24318571D01*
X175262857Y-24390000D01*
X175334285Y-24461428D01*
X173334285Y-24318571D02*
X173334285Y-25318571D01*
X173977142Y-24318571D02*
X173977142Y-25104285D01*
X173905714Y-25247142D01*
X173762857Y-25318571D01*
X173548571Y-25318571D01*
X173405714Y-25247142D01*
X173334285Y-25175714D01*
X172620000Y-25318571D02*
X172620000Y-23818571D01*
X172620000Y-24390000D02*
X172477142Y-24318571D01*
X172191428Y-24318571D01*
X172048571Y-24390000D01*
X171977142Y-24461428D01*
X171905714Y-24604285D01*
X171905714Y-25032857D01*
X171977142Y-25175714D01*
X172048571Y-25247142D01*
X172191428Y-25318571D01*
X172477142Y-25318571D01*
X172620000Y-25247142D01*
X171262857Y-25175714D02*
X171191428Y-25247142D01*
X171262857Y-25318571D01*
X171334285Y-25247142D01*
X171262857Y-25175714D01*
X171262857Y-25318571D01*
X169905714Y-25247142D02*
X170048571Y-25318571D01*
X170334285Y-25318571D01*
X170477142Y-25247142D01*
X170548571Y-25175714D01*
X170620000Y-25032857D01*
X170620000Y-24604285D01*
X170548571Y-24461428D01*
X170477142Y-24390000D01*
X170334285Y-24318571D01*
X170048571Y-24318571D01*
X169905714Y-24390000D01*
X169048571Y-25318571D02*
X169191428Y-25247142D01*
X169262857Y-25175714D01*
X169334285Y-25032857D01*
X169334285Y-24604285D01*
X169262857Y-24461428D01*
X169191428Y-24390000D01*
X169048571Y-24318571D01*
X168834285Y-24318571D01*
X168691428Y-24390000D01*
X168620000Y-24461428D01*
X168548571Y-24604285D01*
X168548571Y-25032857D01*
X168620000Y-25175714D01*
X168691428Y-25247142D01*
X168834285Y-25318571D01*
X169048571Y-25318571D01*
X167905714Y-25318571D02*
X167905714Y-24318571D01*
X167905714Y-24461428D02*
X167834285Y-24390000D01*
X167691428Y-24318571D01*
X167477142Y-24318571D01*
X167334285Y-24390000D01*
X167262857Y-24532857D01*
X167262857Y-25318571D01*
X167262857Y-24532857D02*
X167191428Y-24390000D01*
X167048571Y-24318571D01*
X166834285Y-24318571D01*
X166691428Y-24390000D01*
X166620000Y-24532857D01*
X166620000Y-25318571D01*
X164834285Y-23747142D02*
X166120000Y-25675714D01*
X164334285Y-25318571D02*
X164334285Y-23818571D01*
X163691428Y-25318571D02*
X163691428Y-24532857D01*
X163762857Y-24390000D01*
X163905714Y-24318571D01*
X164120000Y-24318571D01*
X164262857Y-24390000D01*
X164334285Y-24461428D01*
X162977142Y-25318571D02*
X162977142Y-23818571D01*
X162334285Y-25318571D02*
X162334285Y-24532857D01*
X162405714Y-24390000D01*
X162548571Y-24318571D01*
X162762857Y-24318571D01*
X162905714Y-24390000D01*
X162977142Y-24461428D01*
X160977142Y-25318571D02*
X160977142Y-24532857D01*
X161048571Y-24390000D01*
X161191428Y-24318571D01*
X161477142Y-24318571D01*
X161620000Y-24390000D01*
X160977142Y-25247142D02*
X161120000Y-25318571D01*
X161477142Y-25318571D01*
X161620000Y-25247142D01*
X161691428Y-25104285D01*
X161691428Y-24961428D01*
X161620000Y-24818571D01*
X161477142Y-24747142D01*
X161120000Y-24747142D01*
X160977142Y-24675714D01*
X160262857Y-25318571D02*
X160262857Y-24318571D01*
X160262857Y-24604285D02*
X160191428Y-24461428D01*
X160120000Y-24390000D01*
X159977142Y-24318571D01*
X159834285Y-24318571D01*
X159548571Y-24318571D02*
X158977142Y-24318571D01*
X159334285Y-23818571D02*
X159334285Y-25104285D01*
X159262857Y-25247142D01*
X159120000Y-25318571D01*
X158977142Y-25318571D01*
X157905714Y-25247142D02*
X158048571Y-25318571D01*
X158334285Y-25318571D01*
X158477142Y-25247142D01*
X158548571Y-25104285D01*
X158548571Y-24532857D01*
X158477142Y-24390000D01*
X158334285Y-24318571D01*
X158048571Y-24318571D01*
X157905714Y-24390000D01*
X157834285Y-24532857D01*
X157834285Y-24675714D01*
X158548571Y-24818571D01*
X156120000Y-23747142D02*
X157405714Y-25675714D01*
X154834285Y-25318571D02*
X155691428Y-25318571D01*
X155262857Y-25318571D02*
X155262857Y-23818571D01*
X155405714Y-24032857D01*
X155548571Y-24175714D01*
X155691428Y-24247142D01*
X153548571Y-25318571D02*
X153548571Y-23818571D01*
X153548571Y-25247142D02*
X153691428Y-25318571D01*
X153977142Y-25318571D01*
X154120000Y-25247142D01*
X154191428Y-25175714D01*
X154262857Y-25032857D01*
X154262857Y-24604285D01*
X154191428Y-24461428D01*
X154120000Y-24390000D01*
X153977142Y-24318571D01*
X153691428Y-24318571D01*
X153548571Y-24390000D01*
X152191428Y-25247142D02*
X152334285Y-25318571D01*
X152620000Y-25318571D01*
X152762857Y-25247142D01*
X152834285Y-25175714D01*
X152905714Y-25032857D01*
X152905714Y-24604285D01*
X152834285Y-24461428D01*
X152762857Y-24390000D01*
X152620000Y-24318571D01*
X152334285Y-24318571D01*
X152191428Y-24390000D01*
X151334285Y-25318571D02*
X151477142Y-25247142D01*
X151548571Y-25175714D01*
X151620000Y-25032857D01*
X151620000Y-24604285D01*
X151548571Y-24461428D01*
X151477142Y-24390000D01*
X151334285Y-24318571D01*
X151120000Y-24318571D01*
X150977142Y-24390000D01*
X150905714Y-24461428D01*
X150834285Y-24604285D01*
X150834285Y-25032857D01*
X150905714Y-25175714D01*
X150977142Y-25247142D01*
X151120000Y-25318571D01*
X151334285Y-25318571D01*
X150191428Y-25318571D02*
X150191428Y-24318571D01*
X150191428Y-23818571D02*
X150262857Y-23890000D01*
X150191428Y-23961428D01*
X150120000Y-23890000D01*
X150191428Y-23818571D01*
X150191428Y-23961428D01*
X149477142Y-24318571D02*
X149477142Y-25318571D01*
X149477142Y-24461428D02*
X149405714Y-24390000D01*
X149262857Y-24318571D01*
X149048571Y-24318571D01*
X148905714Y-24390000D01*
X148834285Y-24532857D01*
X148834285Y-25318571D01*
X147477142Y-25247142D02*
X147620000Y-25318571D01*
X147905714Y-25318571D01*
X148048571Y-25247142D01*
X148120000Y-25175714D01*
X148191428Y-25032857D01*
X148191428Y-24604285D01*
X148120000Y-24461428D01*
X148048571Y-24390000D01*
X147905714Y-24318571D01*
X147620000Y-24318571D01*
X147477142Y-24390000D01*
X147048571Y-24318571D02*
X146477142Y-24318571D01*
X146834285Y-23818571D02*
X146834285Y-25104285D01*
X146762857Y-25247142D01*
X146620000Y-25318571D01*
X146477142Y-25318571D01*
X145977142Y-25318571D02*
X145977142Y-24318571D01*
X145977142Y-24604285D02*
X145905714Y-24461428D01*
X145834285Y-24390000D01*
X145691428Y-24318571D01*
X145548571Y-24318571D01*
X144834285Y-25318571D02*
X144977142Y-25247142D01*
X145048571Y-25104285D01*
X145048571Y-23818571D01*
X78517142Y-144887142D02*
X77374285Y-144887142D01*
X77945714Y-145458571D02*
X77945714Y-144315714D01*
X75874285Y-145458571D02*
X76731428Y-145458571D01*
X76302857Y-145458571D02*
X76302857Y-143958571D01*
X76445714Y-144172857D01*
X76588571Y-144315714D01*
X76731428Y-144387142D01*
X75374285Y-143958571D02*
X74445714Y-143958571D01*
X74945714Y-144530000D01*
X74731428Y-144530000D01*
X74588571Y-144601428D01*
X74517142Y-144672857D01*
X74445714Y-144815714D01*
X74445714Y-145172857D01*
X74517142Y-145315714D01*
X74588571Y-145387142D01*
X74731428Y-145458571D01*
X75160000Y-145458571D01*
X75302857Y-145387142D01*
X75374285Y-145315714D01*
X73517142Y-143958571D02*
X73374285Y-143958571D01*
X73231428Y-144030000D01*
X73160000Y-144101428D01*
X73088571Y-144244285D01*
X73017142Y-144530000D01*
X73017142Y-144887142D01*
X73088571Y-145172857D01*
X73160000Y-145315714D01*
X73231428Y-145387142D01*
X73374285Y-145458571D01*
X73517142Y-145458571D01*
X73660000Y-145387142D01*
X73731428Y-145315714D01*
X73802857Y-145172857D01*
X73874285Y-144887142D01*
X73874285Y-144530000D01*
X73802857Y-144244285D01*
X73731428Y-144101428D01*
X73660000Y-144030000D01*
X73517142Y-143958571D01*
X72588571Y-143958571D02*
X72088571Y-145458571D01*
X71588571Y-143958571D01*
X71088571Y-145458571D02*
X71088571Y-143958571D01*
X70731428Y-143958571D01*
X70517142Y-144030000D01*
X70374285Y-144172857D01*
X70302857Y-144315714D01*
X70231428Y-144601428D01*
X70231428Y-144815714D01*
X70302857Y-145101428D01*
X70374285Y-145244285D01*
X70517142Y-145387142D01*
X70731428Y-145458571D01*
X71088571Y-145458571D01*
X68731428Y-145315714D02*
X68802857Y-145387142D01*
X69017142Y-145458571D01*
X69160000Y-145458571D01*
X69374285Y-145387142D01*
X69517142Y-145244285D01*
X69588571Y-145101428D01*
X69660000Y-144815714D01*
X69660000Y-144601428D01*
X69588571Y-144315714D01*
X69517142Y-144172857D01*
X69374285Y-144030000D01*
X69160000Y-143958571D01*
X69017142Y-143958571D01*
X68802857Y-144030000D01*
X68731428Y-144101428D01*
X72262857Y-149110000D02*
X72405714Y-149038571D01*
X72620000Y-149038571D01*
X72834285Y-149110000D01*
X72977142Y-149252857D01*
X73048571Y-149395714D01*
X73120000Y-149681428D01*
X73120000Y-149895714D01*
X73048571Y-150181428D01*
X72977142Y-150324285D01*
X72834285Y-150467142D01*
X72620000Y-150538571D01*
X72477142Y-150538571D01*
X72262857Y-150467142D01*
X72191428Y-150395714D01*
X72191428Y-149895714D01*
X72477142Y-149895714D01*
X71548571Y-150538571D02*
X71548571Y-149038571D01*
X70691428Y-150538571D01*
X70691428Y-149038571D01*
X69977142Y-150538571D02*
X69977142Y-149038571D01*
X69620000Y-149038571D01*
X69405714Y-149110000D01*
X69262857Y-149252857D01*
X69191428Y-149395714D01*
X69120000Y-149681428D01*
X69120000Y-149895714D01*
X69191428Y-150181428D01*
X69262857Y-150324285D01*
X69405714Y-150467142D01*
X69620000Y-150538571D01*
X69977142Y-150538571D01*
X78517142Y-139807142D02*
X77374285Y-139807142D01*
X75874285Y-140378571D02*
X76731428Y-140378571D01*
X76302857Y-140378571D02*
X76302857Y-138878571D01*
X76445714Y-139092857D01*
X76588571Y-139235714D01*
X76731428Y-139307142D01*
X75374285Y-138878571D02*
X74445714Y-138878571D01*
X74945714Y-139450000D01*
X74731428Y-139450000D01*
X74588571Y-139521428D01*
X74517142Y-139592857D01*
X74445714Y-139735714D01*
X74445714Y-140092857D01*
X74517142Y-140235714D01*
X74588571Y-140307142D01*
X74731428Y-140378571D01*
X75160000Y-140378571D01*
X75302857Y-140307142D01*
X75374285Y-140235714D01*
X73517142Y-138878571D02*
X73374285Y-138878571D01*
X73231428Y-138950000D01*
X73160000Y-139021428D01*
X73088571Y-139164285D01*
X73017142Y-139450000D01*
X73017142Y-139807142D01*
X73088571Y-140092857D01*
X73160000Y-140235714D01*
X73231428Y-140307142D01*
X73374285Y-140378571D01*
X73517142Y-140378571D01*
X73660000Y-140307142D01*
X73731428Y-140235714D01*
X73802857Y-140092857D01*
X73874285Y-139807142D01*
X73874285Y-139450000D01*
X73802857Y-139164285D01*
X73731428Y-139021428D01*
X73660000Y-138950000D01*
X73517142Y-138878571D01*
X72588571Y-138878571D02*
X72088571Y-140378571D01*
X71588571Y-138878571D01*
X71088571Y-140378571D02*
X71088571Y-138878571D01*
X70731428Y-138878571D01*
X70517142Y-138950000D01*
X70374285Y-139092857D01*
X70302857Y-139235714D01*
X70231428Y-139521428D01*
X70231428Y-139735714D01*
X70302857Y-140021428D01*
X70374285Y-140164285D01*
X70517142Y-140307142D01*
X70731428Y-140378571D01*
X71088571Y-140378571D01*
X68731428Y-140235714D02*
X68802857Y-140307142D01*
X69017142Y-140378571D01*
X69160000Y-140378571D01*
X69374285Y-140307142D01*
X69517142Y-140164285D01*
X69588571Y-140021428D01*
X69660000Y-139735714D01*
X69660000Y-139521428D01*
X69588571Y-139235714D01*
X69517142Y-139092857D01*
X69374285Y-138950000D01*
X69160000Y-138878571D01*
X69017142Y-138878571D01*
X68802857Y-138950000D01*
X68731428Y-139021428D01*
X186400580Y-167048571D02*
X186213080Y-165548571D01*
X185855937Y-165548571D01*
X185650580Y-165620000D01*
X185525580Y-165762857D01*
X185472008Y-165905714D01*
X185436294Y-166191428D01*
X185463080Y-166405714D01*
X185570223Y-166691428D01*
X185659508Y-166834285D01*
X185820223Y-166977142D01*
X186043437Y-167048571D01*
X186400580Y-167048571D01*
X184918437Y-166620000D02*
X184204151Y-166620000D01*
X185114866Y-167048571D02*
X184427366Y-165548571D01*
X184114866Y-167048571D01*
X183614866Y-167048571D02*
X183427366Y-165548571D01*
X182757723Y-167048571D01*
X182570223Y-165548571D01*
X181079151Y-165620000D02*
X181213080Y-165548571D01*
X181427366Y-165548571D01*
X181650580Y-165620000D01*
X181811294Y-165762857D01*
X181900580Y-165905714D01*
X182007723Y-166191428D01*
X182034508Y-166405714D01*
X181998794Y-166691428D01*
X181945223Y-166834285D01*
X181820223Y-166977142D01*
X181614866Y-167048571D01*
X181472008Y-167048571D01*
X181248794Y-166977142D01*
X181168437Y-166905714D01*
X181105937Y-166405714D01*
X181391651Y-166405714D01*
X180445223Y-166262857D02*
X179945223Y-166262857D01*
X179829151Y-167048571D02*
X180543437Y-167048571D01*
X180355937Y-165548571D01*
X179641651Y-165548571D01*
X178329151Y-167048571D02*
X178739866Y-166334285D01*
X179186294Y-167048571D02*
X178998794Y-165548571D01*
X178427366Y-165548571D01*
X178293437Y-165620000D01*
X178230937Y-165691428D01*
X178177366Y-165834285D01*
X178204151Y-166048571D01*
X178293437Y-166191428D01*
X178373794Y-166262857D01*
X178525580Y-166334285D01*
X179097008Y-166334285D01*
X176472008Y-166477142D02*
X175329151Y-166477142D01*
X173543437Y-167048571D02*
X173355937Y-165548571D01*
X173445223Y-166262857D02*
X172588080Y-166262857D01*
X172686294Y-167048571D02*
X172498794Y-165548571D01*
X171972008Y-167048571D02*
X171784508Y-165548571D01*
X170293437Y-165620000D02*
X170427366Y-165548571D01*
X170641651Y-165548571D01*
X170864866Y-165620000D01*
X171025580Y-165762857D01*
X171114866Y-165905714D01*
X171222008Y-166191428D01*
X171248794Y-166405714D01*
X171213080Y-166691428D01*
X171159508Y-166834285D01*
X171034508Y-166977142D01*
X170829151Y-167048571D01*
X170686294Y-167048571D01*
X170463080Y-166977142D01*
X170382723Y-166905714D01*
X170320223Y-166405714D01*
X170605937Y-166405714D01*
X169757723Y-167048571D02*
X169570223Y-165548571D01*
X169659508Y-166262857D02*
X168802366Y-166262857D01*
X168900580Y-167048571D02*
X168713080Y-165548571D01*
X167070223Y-165548571D02*
X166757723Y-167048571D01*
X166070223Y-165548571D01*
X165284508Y-165548571D02*
X164998794Y-165548571D01*
X164864866Y-165620000D01*
X164739866Y-165762857D01*
X164704151Y-166048571D01*
X164766651Y-166548571D01*
X164873794Y-166834285D01*
X165034508Y-166977142D01*
X165186294Y-167048571D01*
X165472008Y-167048571D01*
X165605937Y-166977142D01*
X165730937Y-166834285D01*
X165766651Y-166548571D01*
X165704151Y-166048571D01*
X165597008Y-165762857D01*
X165436294Y-165620000D01*
X165284508Y-165548571D01*
X163472008Y-167048571D02*
X164186294Y-167048571D01*
X163998794Y-165548571D01*
X162998794Y-165548571D02*
X162141651Y-165548571D01*
X162757723Y-167048571D02*
X162570223Y-165548571D01*
X161847008Y-166620000D02*
X161132723Y-166620000D01*
X162043437Y-167048571D02*
X161355937Y-165548571D01*
X161043437Y-167048571D01*
X159579151Y-165620000D02*
X159713080Y-165548571D01*
X159927366Y-165548571D01*
X160150580Y-165620000D01*
X160311294Y-165762857D01*
X160400580Y-165905714D01*
X160507723Y-166191428D01*
X160534508Y-166405714D01*
X160498794Y-166691428D01*
X160445223Y-166834285D01*
X160320223Y-166977142D01*
X160114866Y-167048571D01*
X159972008Y-167048571D01*
X159748794Y-166977142D01*
X159668437Y-166905714D01*
X159605937Y-166405714D01*
X159891651Y-166405714D01*
X158945223Y-166262857D02*
X158445223Y-166262857D01*
X158329151Y-167048571D02*
X159043437Y-167048571D01*
X158855937Y-165548571D01*
X158141651Y-165548571D01*
X156472008Y-166477142D02*
X155329151Y-166477142D01*
X155972008Y-167048571D02*
X155829151Y-165905714D01*
X153418437Y-165477142D02*
X154945223Y-167405714D01*
X153043437Y-166477142D02*
X151900580Y-166477142D01*
X149329151Y-167048571D02*
X150186294Y-167048571D01*
X149757723Y-167048571D02*
X149570223Y-165548571D01*
X149739866Y-165762857D01*
X149900580Y-165905714D01*
X150052366Y-165977142D01*
X148641651Y-165548571D02*
X147713080Y-165548571D01*
X148284508Y-166120000D01*
X148070223Y-166120000D01*
X147936294Y-166191428D01*
X147873794Y-166262857D01*
X147820223Y-166405714D01*
X147864866Y-166762857D01*
X147954151Y-166905714D01*
X148034508Y-166977142D01*
X148186294Y-167048571D01*
X148614866Y-167048571D01*
X148748794Y-166977142D01*
X148811294Y-166905714D01*
X146784508Y-165548571D02*
X146641651Y-165548571D01*
X146507723Y-165620000D01*
X146445223Y-165691428D01*
X146391651Y-165834285D01*
X146355937Y-166120000D01*
X146400580Y-166477142D01*
X146507723Y-166762857D01*
X146597008Y-166905714D01*
X146677366Y-166977142D01*
X146829151Y-167048571D01*
X146972008Y-167048571D01*
X147105937Y-166977142D01*
X147168437Y-166905714D01*
X147222008Y-166762857D01*
X147257723Y-166477142D01*
X147213080Y-166120000D01*
X147105937Y-165834285D01*
X147016651Y-165691428D01*
X146936294Y-165620000D01*
X146784508Y-165548571D01*
X145855937Y-165548571D02*
X145543437Y-167048571D01*
X144855937Y-165548571D01*
X144543437Y-167048571D02*
X144355937Y-165548571D01*
X143998794Y-165548571D01*
X143793437Y-165620000D01*
X143668437Y-165762857D01*
X143614866Y-165905714D01*
X143579151Y-166191428D01*
X143605937Y-166405714D01*
X143713080Y-166691428D01*
X143802366Y-166834285D01*
X143963080Y-166977142D01*
X144186294Y-167048571D01*
X144543437Y-167048571D01*
X142168437Y-166905714D02*
X142248794Y-166977142D01*
X142472008Y-167048571D01*
X142614866Y-167048571D01*
X142820223Y-166977142D01*
X142945223Y-166834285D01*
X142998794Y-166691428D01*
X143034508Y-166405714D01*
X143007723Y-166191428D01*
X142900580Y-165905714D01*
X142811294Y-165762857D01*
X142650580Y-165620000D01*
X142427366Y-165548571D01*
X142284508Y-165548571D01*
X142079151Y-165620000D01*
X142016651Y-165691428D01*
X141525580Y-166905714D02*
X141463080Y-166977142D01*
X141543437Y-167048571D01*
X141605937Y-166977142D01*
X141525580Y-166905714D01*
X141543437Y-167048571D01*
X141472008Y-166477142D02*
X141436294Y-165620000D01*
X141355937Y-165548571D01*
X141293437Y-165620000D01*
X141472008Y-166477142D01*
X141355937Y-165548571D01*
X75032857Y-155047142D02*
X73890000Y-155047142D01*
X74461428Y-155618571D02*
X74461428Y-154475714D01*
X72390000Y-155618571D02*
X73247142Y-155618571D01*
X72818571Y-155618571D02*
X72818571Y-154118571D01*
X72961428Y-154332857D01*
X73104285Y-154475714D01*
X73247142Y-154547142D01*
X71818571Y-154261428D02*
X71747142Y-154190000D01*
X71604285Y-154118571D01*
X71247142Y-154118571D01*
X71104285Y-154190000D01*
X71032857Y-154261428D01*
X70961428Y-154404285D01*
X70961428Y-154547142D01*
X71032857Y-154761428D01*
X71890000Y-155618571D01*
X70961428Y-155618571D01*
X70532857Y-154118571D02*
X70032857Y-155618571D01*
X69532857Y-154118571D01*
M02*
