G04 #@! TF.GenerationSoftware,KiCad,Pcbnew,(6.0.6)*
G04 #@! TF.CreationDate,2022-08-07T11:28:29-07:00*
G04 #@! TF.ProjectId,1d_coinctrl_r2,31645f63-6f69-46e6-9374-726c5f72322e,3*
G04 #@! TF.SameCoordinates,Original*
G04 #@! TF.FileFunction,Soldermask,Bot*
G04 #@! TF.FilePolarity,Negative*
%FSLAX46Y46*%
G04 Gerber Fmt 4.6, Leading zero omitted, Abs format (unit mm)*
G04 Created by KiCad (PCBNEW (6.0.6)) date 2022-08-07 11:28:29*
%MOMM*%
%LPD*%
G01*
G04 APERTURE LIST*
%ADD10C,1.600000*%
%ADD11R,1.600000X1.600000*%
%ADD12O,1.600000X1.600000*%
%ADD13R,1.800000X1.800000*%
%ADD14C,1.800000*%
%ADD15C,3.200000*%
%ADD16R,1.500000X1.500000*%
%ADD17C,1.500000*%
%ADD18R,1.700000X1.700000*%
%ADD19O,1.700000X1.700000*%
%ADD20R,1.727200X1.727200*%
%ADD21O,1.727200X1.727200*%
%ADD22R,2.000000X2.000000*%
%ADD23C,2.000000*%
%ADD24C,1.220000*%
%ADD25C,2.400000*%
%ADD26O,2.400000X2.400000*%
%ADD27C,1.440000*%
%ADD28R,2.400000X2.400000*%
%ADD29C,4.000000*%
%ADD30C,7.400000*%
%ADD31R,2.550000X2.550000*%
%ADD32C,2.550000*%
G04 APERTURE END LIST*
D10*
X157514988Y-138395012D03*
X157514988Y-143395012D03*
D11*
X139734988Y-128235012D03*
D10*
X136234988Y-128235012D03*
X88934988Y-152365012D03*
X88934988Y-147365012D03*
X104174988Y-142205012D03*
X104174988Y-147205012D03*
X124494988Y-59655012D03*
X124494988Y-62155012D03*
X104174988Y-64735012D03*
X104174988Y-67235012D03*
X106714988Y-30445012D03*
X109214988Y-30445012D03*
X107984988Y-142205012D03*
X107984988Y-144705012D03*
X139734988Y-45685012D03*
X137234988Y-45685012D03*
D11*
X123224988Y-110455012D03*
D12*
X123224988Y-118075012D03*
D11*
X180374988Y-148555012D03*
D12*
X180374988Y-156175012D03*
D11*
X153704988Y-116805012D03*
D12*
X153704988Y-124425012D03*
D11*
X153704988Y-67275012D03*
D12*
X153704988Y-74895012D03*
D11*
X153704988Y-104105012D03*
D12*
X153704988Y-111725012D03*
D11*
X153704988Y-54575012D03*
D12*
X153704988Y-62195012D03*
D11*
X153704988Y-92040012D03*
D12*
X153704988Y-99660012D03*
D11*
X153704988Y-41875012D03*
D12*
X153704988Y-49495012D03*
D11*
X153704988Y-79340012D03*
D12*
X153704988Y-86960012D03*
D11*
X153704988Y-29810012D03*
D12*
X153704988Y-37430012D03*
D13*
X210854988Y-147285012D03*
D14*
X210854988Y-149825012D03*
D15*
X62264988Y-96485012D03*
X62264988Y-107915012D03*
D16*
X68614988Y-97755012D03*
D17*
X71154988Y-99025012D03*
X68614988Y-100295012D03*
X71154988Y-101565012D03*
X68614988Y-102835012D03*
X71154988Y-104105012D03*
X68614988Y-105375012D03*
X71154988Y-106645012D03*
D18*
X163864988Y-138395012D03*
D19*
X166404988Y-138395012D03*
X168944988Y-138395012D03*
D15*
X62264988Y-128235012D03*
X62264988Y-116805012D03*
D16*
X68614988Y-118075012D03*
D17*
X71154988Y-119345012D03*
X68614988Y-120615012D03*
X71154988Y-121885012D03*
X68614988Y-123155012D03*
X71154988Y-124425012D03*
X68614988Y-125695012D03*
X71154988Y-126965012D03*
D20*
X91474988Y-39335012D03*
D21*
X94014988Y-39335012D03*
X91474988Y-41875012D03*
X94014988Y-41875012D03*
X91474988Y-44415012D03*
X94014988Y-44415012D03*
X91474988Y-46955012D03*
X94014988Y-46955012D03*
X91474988Y-49495012D03*
X94014988Y-49495012D03*
X91474988Y-52035012D03*
X94014988Y-52035012D03*
X91474988Y-54575012D03*
X94014988Y-54575012D03*
X91474988Y-57115012D03*
X94014988Y-57115012D03*
X91474988Y-59655012D03*
X94014988Y-59655012D03*
X91474988Y-62195012D03*
X94014988Y-62195012D03*
D22*
X186189989Y-156290013D03*
D23*
X193809989Y-156290013D03*
X198889989Y-156290013D03*
X203969989Y-156290013D03*
X203969989Y-148670013D03*
X198889989Y-148670013D03*
X193809989Y-148670013D03*
X186189989Y-148670013D03*
D22*
X186189989Y-143910013D03*
D23*
X193809989Y-143910013D03*
X198889989Y-143910013D03*
X203969989Y-143910013D03*
X203969989Y-136290013D03*
X198889989Y-136290013D03*
X193809989Y-136290013D03*
X186189989Y-136290013D03*
D22*
X158784988Y-111725012D03*
D23*
X166404988Y-111725012D03*
X171484988Y-111725012D03*
X176564988Y-111725012D03*
X176564988Y-104105012D03*
X171484988Y-104105012D03*
X166404988Y-104105012D03*
X158784988Y-104105012D03*
D22*
X158784988Y-99660012D03*
D23*
X166404988Y-99660012D03*
X171484988Y-99660012D03*
X176564988Y-99660012D03*
X176564988Y-92040012D03*
X171484988Y-92040012D03*
X166404988Y-92040012D03*
X158784988Y-92040012D03*
D22*
X158784988Y-86960012D03*
D23*
X166404988Y-86960012D03*
X171484988Y-86960012D03*
X176564988Y-86960012D03*
X176564988Y-79340012D03*
X171484988Y-79340012D03*
X166404988Y-79340012D03*
X158784988Y-79340012D03*
D22*
X158784988Y-74895012D03*
D23*
X166404988Y-74895012D03*
X171484988Y-74895012D03*
X176564988Y-74895012D03*
X176564988Y-67275012D03*
X171484988Y-67275012D03*
X166404988Y-67275012D03*
X158784988Y-67275012D03*
D22*
X158784988Y-49495012D03*
D23*
X166404988Y-49495012D03*
X171484988Y-49495012D03*
X176564988Y-49495012D03*
X176564988Y-41875012D03*
X171484988Y-41875012D03*
X166404988Y-41875012D03*
X158784988Y-41875012D03*
D22*
X158784988Y-37430012D03*
D23*
X166404988Y-37430012D03*
X171484988Y-37430012D03*
X176564988Y-37430012D03*
X176564988Y-29810012D03*
X171484988Y-29810012D03*
X166404988Y-29810012D03*
X158784988Y-29810012D03*
D22*
X127034988Y-118075012D03*
D23*
X134654988Y-118075012D03*
X139734988Y-118075012D03*
X144814988Y-118075012D03*
X144814988Y-110455012D03*
X139734988Y-110455012D03*
X134654988Y-110455012D03*
X127034988Y-110455012D03*
D24*
X114464988Y-154905012D03*
X117004988Y-154905012D03*
X129704988Y-154905012D03*
X132244988Y-154905012D03*
X134784988Y-154905012D03*
X139864988Y-154905012D03*
X139864988Y-139665012D03*
X134784988Y-139665012D03*
X132244988Y-139665012D03*
X129704988Y-139665012D03*
X117004988Y-139665012D03*
X114464988Y-139665012D03*
D25*
X176564988Y-130775012D03*
D26*
X146084988Y-130775012D03*
D10*
X109254988Y-26635012D03*
D12*
X101634988Y-26635012D03*
D25*
X184184988Y-124425012D03*
D26*
X184184988Y-104105012D03*
D25*
X184184988Y-74895012D03*
D26*
X184184988Y-54575012D03*
D25*
X184184988Y-99660012D03*
D26*
X184184988Y-79340012D03*
D25*
X184184988Y-49495012D03*
D26*
X184184988Y-29175012D03*
D27*
X134654988Y-161255012D03*
X132114988Y-163795012D03*
X129574988Y-161255012D03*
D10*
X198154988Y-118075012D03*
D12*
X190534988Y-118075012D03*
D23*
X119414988Y-25365012D03*
X112914988Y-25365012D03*
X112914988Y-29865012D03*
X119414988Y-29865012D03*
D18*
X148624988Y-139665012D03*
D19*
X148624988Y-142205012D03*
X148624988Y-147285012D03*
X148624988Y-149825012D03*
X148624988Y-152365012D03*
D22*
X94014988Y-149825012D03*
D23*
X94014988Y-147285012D03*
X94014988Y-144745012D03*
D11*
X106714988Y-39335012D03*
D12*
X106714988Y-41875012D03*
X106714988Y-44415012D03*
X106714988Y-46955012D03*
X106714988Y-49495012D03*
X106714988Y-52035012D03*
X106714988Y-54575012D03*
X106714988Y-57115012D03*
X106714988Y-59655012D03*
X106714988Y-62195012D03*
X106714988Y-64735012D03*
X106714988Y-67275012D03*
X106714988Y-69815012D03*
X106714988Y-72355012D03*
X106714988Y-74895012D03*
X106714988Y-77435012D03*
X106714988Y-79975012D03*
X106714988Y-82515012D03*
X106714988Y-85055012D03*
X106714988Y-87595012D03*
X121954988Y-87595012D03*
X121954988Y-85055012D03*
X121954988Y-82515012D03*
X121954988Y-79975012D03*
X121954988Y-77435012D03*
X121954988Y-74895012D03*
X121954988Y-72355012D03*
X121954988Y-69815012D03*
X121954988Y-67275012D03*
X121954988Y-64735012D03*
X121954988Y-62195012D03*
X121954988Y-59655012D03*
X121954988Y-57115012D03*
X121954988Y-54575012D03*
X121954988Y-52035012D03*
X121954988Y-49495012D03*
X121954988Y-46955012D03*
X121954988Y-44415012D03*
X121954988Y-41875012D03*
X121954988Y-39335012D03*
D11*
X134654988Y-72355012D03*
D12*
X134654988Y-74895012D03*
X134654988Y-77435012D03*
X134654988Y-79975012D03*
X134654988Y-82515012D03*
X134654988Y-85055012D03*
X134654988Y-87595012D03*
X142274988Y-87595012D03*
X142274988Y-85055012D03*
X142274988Y-82515012D03*
X142274988Y-79975012D03*
X142274988Y-77435012D03*
X142274988Y-74895012D03*
X142274988Y-72355012D03*
D11*
X134654988Y-49495012D03*
D12*
X134654988Y-52035012D03*
X134654988Y-54575012D03*
X134654988Y-57115012D03*
X134654988Y-59655012D03*
X134654988Y-62195012D03*
X134654988Y-64735012D03*
X142274988Y-64735012D03*
X142274988Y-62195012D03*
X142274988Y-59655012D03*
X142274988Y-57115012D03*
X142274988Y-54575012D03*
X142274988Y-52035012D03*
X142274988Y-49495012D03*
D10*
X139694988Y-68545012D03*
X137194988Y-68545012D03*
D22*
X158784988Y-124425012D03*
D23*
X166404988Y-124425012D03*
X171484988Y-124425012D03*
X176564988Y-124425012D03*
X176564988Y-116805012D03*
X171484988Y-116805012D03*
X166404988Y-116805012D03*
X158784988Y-116805012D03*
D11*
X168944988Y-156175012D03*
D10*
X168944988Y-153675012D03*
D11*
X168944988Y-147285012D03*
D10*
X168944988Y-144785012D03*
D28*
X78774988Y-152285012D03*
D25*
X78774988Y-147285012D03*
D10*
X162594988Y-147285012D03*
D12*
X152434988Y-147285012D03*
D10*
X162594988Y-152365012D03*
D12*
X152434988Y-152365012D03*
D13*
X210820000Y-101600000D03*
D14*
X210820000Y-104140000D03*
D22*
X158784988Y-62195012D03*
D23*
X166404988Y-62195012D03*
X171484988Y-62195012D03*
X176564988Y-62195012D03*
X176564988Y-54575012D03*
X171484988Y-54575012D03*
X166404988Y-54575012D03*
X158784988Y-54575012D03*
D11*
X180374988Y-136490012D03*
D12*
X180374988Y-144110012D03*
D10*
X190500000Y-104140000D03*
D12*
X198120000Y-104140000D03*
D10*
X73694988Y-40605012D03*
X73694988Y-43105012D03*
X73694988Y-45685012D03*
X73694988Y-48185012D03*
X83854988Y-34890012D03*
X81354988Y-34890012D03*
X73694988Y-50805012D03*
X73694988Y-53305012D03*
D29*
X65416988Y-60265012D03*
X65416988Y-35265012D03*
D11*
X66836988Y-53305012D03*
D10*
X66836988Y-50535012D03*
X66836988Y-47765012D03*
X66836988Y-44995012D03*
X66836988Y-42225012D03*
X63996988Y-51920012D03*
X63996988Y-49150012D03*
X63996988Y-46380012D03*
X63996988Y-43610012D03*
X73694988Y-29175012D03*
D12*
X81314988Y-29175012D03*
D11*
X76234988Y-38065012D03*
D12*
X76234988Y-40605012D03*
X76234988Y-43145012D03*
X76234988Y-45685012D03*
X76234988Y-48225012D03*
X76234988Y-50765012D03*
X76234988Y-53305012D03*
X76234988Y-55845012D03*
X83854988Y-55845012D03*
X83854988Y-53305012D03*
X83854988Y-50765012D03*
X83854988Y-48225012D03*
X83854988Y-45685012D03*
X83854988Y-43145012D03*
X83854988Y-40605012D03*
X83854988Y-38065012D03*
D18*
X106714988Y-34255012D03*
D19*
X109254988Y-34255012D03*
X111794988Y-34255012D03*
X114334988Y-34255012D03*
X116874988Y-34255012D03*
X119414988Y-34255012D03*
D10*
X66074988Y-29175012D03*
X71074988Y-29175012D03*
X205139988Y-132680012D03*
D12*
X205139988Y-122520012D03*
D10*
X86394988Y-38065012D03*
X86394988Y-40565012D03*
D30*
X208314988Y-163795012D03*
X63534988Y-21555012D03*
X208314988Y-21555012D03*
X63534988Y-163795012D03*
D10*
X101634988Y-64735012D03*
X101634988Y-67235012D03*
X127034988Y-59655012D03*
X127034988Y-62155012D03*
D30*
X124494988Y-130775012D03*
D10*
X119414988Y-115535012D03*
D12*
X111794988Y-115535012D03*
D10*
X107984988Y-115535012D03*
D12*
X100364988Y-115535012D03*
D11*
X111794988Y-111725012D03*
D12*
X114334988Y-111725012D03*
X116874988Y-111725012D03*
X119414988Y-111725012D03*
X119414988Y-104105012D03*
X116874988Y-104105012D03*
X114334988Y-104105012D03*
X111794988Y-104105012D03*
D11*
X100364988Y-111725012D03*
D12*
X102904988Y-111725012D03*
X105444988Y-111725012D03*
X107984988Y-111725012D03*
X107984988Y-104105012D03*
X105444988Y-104105012D03*
X102904988Y-104105012D03*
X100364988Y-104105012D03*
D11*
X77504988Y-111725012D03*
D12*
X80044988Y-111725012D03*
X82584988Y-111725012D03*
X85124988Y-111725012D03*
X85124988Y-104105012D03*
X82584988Y-104105012D03*
X80044988Y-104105012D03*
X77504988Y-104105012D03*
D10*
X96554988Y-115535012D03*
D12*
X88934988Y-115535012D03*
D10*
X85124988Y-115535012D03*
D12*
X77504988Y-115535012D03*
D11*
X88934988Y-111725012D03*
D12*
X91474988Y-111725012D03*
X94014988Y-111725012D03*
X96554988Y-111725012D03*
X96554988Y-104105012D03*
X94014988Y-104105012D03*
X91474988Y-104105012D03*
X88934988Y-104105012D03*
D10*
X83219988Y-159985012D03*
D12*
X73059988Y-159985012D03*
D30*
X60960000Y-88900000D03*
D13*
X210854988Y-49495012D03*
D14*
X210854988Y-52035012D03*
X210854988Y-54575012D03*
D13*
X210854988Y-36820000D03*
D14*
X210854988Y-39360000D03*
X210854988Y-41900000D03*
D10*
X198154988Y-64770000D03*
D12*
X190534988Y-64770000D03*
D10*
X198154988Y-52035012D03*
D12*
X190534988Y-52035012D03*
D10*
X157480000Y-157480000D03*
D12*
X144780000Y-157480000D03*
D13*
X210820000Y-62220000D03*
D14*
X210820000Y-64760000D03*
X210820000Y-67300000D03*
D10*
X198120000Y-77470000D03*
D12*
X190500000Y-77470000D03*
D31*
X66040000Y-154940000D03*
D32*
X66040000Y-149860000D03*
X66040000Y-144780000D03*
X66040000Y-139700000D03*
D10*
X157480000Y-162560000D03*
D12*
X144780000Y-162560000D03*
D13*
X210854988Y-74920000D03*
D14*
X210854988Y-77460000D03*
X210854988Y-80000000D03*
D10*
X198154988Y-39370000D03*
D12*
X190534988Y-39370000D03*
D18*
X68580000Y-81280000D03*
D19*
X68580000Y-78740000D03*
X68580000Y-76200000D03*
X68580000Y-73660000D03*
X68580000Y-71120000D03*
X68580000Y-68580000D03*
D11*
X191780000Y-123200000D03*
D12*
X191780000Y-125740000D03*
X191780000Y-128280000D03*
X191780000Y-130820000D03*
X199400000Y-130820000D03*
X199400000Y-128280000D03*
X199400000Y-125740000D03*
X199400000Y-123200000D03*
M02*
