M48
; DRILL file {KiCad 8.0.1} date 2024-03-24T02:00:19-0700
; FORMAT={-:-/ absolute / inch / decimal}
; #@! TF.CreationDate,2024-03-24T02:00:19-07:00
; #@! TF.GenerationSoftware,Kicad,Pcbnew,8.0.1
; #@! TF.FileFunction,Plated,1,2,PTH
FMAT,2
INCH
; #@! TA.AperFunction,Plated,PTH,ViaDrill
T1C0.0157
; #@! TA.AperFunction,Plated,PTH,ComponentDrill
T2C0.0276
; #@! TA.AperFunction,Plated,PTH,ComponentDrill
T3C0.0299
; #@! TA.AperFunction,Plated,PTH,ComponentDrill
T4C0.0315
; #@! TA.AperFunction,Plated,PTH,ComponentDrill
T5C0.0319
; #@! TA.AperFunction,Plated,PTH,ComponentDrill
T6C0.0354
; #@! TA.AperFunction,Plated,PTH,ComponentDrill
T7C0.0394
; #@! TA.AperFunction,Plated,PTH,ComponentDrill
T8C0.0433
; #@! TA.AperFunction,Plated,PTH,ComponentDrill
T9C0.0472
; #@! TA.AperFunction,Plated,PTH,ComponentDrill
T10C0.0669
; #@! TA.AperFunction,Plated,PTH,ComponentDrill
T11C0.1260
; #@! TA.AperFunction,Plated,PTH,ComponentDrill
T12C0.1457
%
G90
G05
T1
X3.8Y-2.8
X3.9Y-2.75
X3.95Y-2.65
X4.0Y-2.55
X4.05Y-2.45
X4.1Y-2.35
X4.1514Y-2.2514
X4.425Y-1.975
X4.449Y-2.025
X4.475Y-2.1
X4.8014Y-4.1986
X4.8014Y-4.8986
X5.6Y-6.15
X6.4514Y-4.5986
X6.4959Y-4.6431
T2
X5.0Y-4.35
X5.0Y-4.65
X5.3Y-4.35
X5.3Y-4.65
X5.5Y-4.35
X5.5Y-4.65
X5.7Y-4.35
X5.7Y-4.65
X6.25Y-1.65
X6.25Y-1.95
X6.25Y-2.15
X6.25Y-2.45
X6.25Y-2.65
X6.25Y-2.95
X6.25Y-3.125
X6.25Y-3.425
X6.25Y-3.625
X6.25Y-3.925
X6.25Y-4.1
X6.25Y-4.4
X6.25Y-4.5981
X6.25Y-4.8981
X6.2513Y-1.1731
X6.2513Y-1.4731
X6.55Y-1.65
X6.55Y-1.95
X6.55Y-2.15
X6.55Y-2.45
X6.55Y-2.65
X6.55Y-2.95
X6.55Y-3.125
X6.55Y-3.425
X6.55Y-3.625
X6.55Y-3.925
X6.55Y-4.1
X6.55Y-4.4
X6.55Y-4.5981
X6.55Y-4.8981
X6.5513Y-1.1731
X6.5513Y-1.4731
X6.75Y-1.65
X6.75Y-1.95
X6.75Y-2.15
X6.75Y-2.45
X6.75Y-2.65
X6.75Y-2.95
X6.75Y-3.125
X6.75Y-3.425
X6.75Y-3.625
X6.75Y-3.925
X6.75Y-4.1
X6.75Y-4.4
X6.75Y-4.5981
X6.75Y-4.8981
X6.7513Y-1.1731
X6.7513Y-1.4731
X6.95Y-1.65
X6.95Y-1.95
X6.95Y-2.15
X6.95Y-2.45
X6.95Y-2.65
X6.95Y-2.95
X6.95Y-3.125
X6.95Y-3.425
X6.95Y-3.625
X6.95Y-3.925
X6.95Y-4.1
X6.95Y-4.4
X6.95Y-4.5981
X6.95Y-4.8981
X6.9513Y-1.1731
X6.9513Y-1.4731
X7.325Y-5.375
X7.325Y-5.675
X7.325Y-5.85
X7.325Y-6.15
X7.625Y-5.375
X7.625Y-5.675
X7.625Y-5.85
X7.625Y-6.15
X7.825Y-5.375
X7.825Y-5.675
X7.825Y-5.85
X7.825Y-6.15
X8.025Y-5.375
X8.025Y-5.675
X8.025Y-5.85
X8.025Y-6.15
T3
X2.67Y-3.8486
X2.67Y-3.9486
X2.67Y-4.0486
X2.67Y-4.1486
X2.67Y-4.6486
X2.67Y-4.7486
X2.67Y-4.8486
X2.67Y-4.9486
X2.77Y-3.8986
X2.77Y-3.9986
X2.77Y-4.0986
X2.77Y-4.1986
X2.77Y-4.6986
X2.77Y-4.7986
X2.77Y-4.8986
X2.77Y-4.9986
T4
X2.6014Y-1.1486
X2.7982Y-1.1486
X2.8764Y-6.2986
X2.9014Y-1.1486
X2.9014Y-1.5986
X2.9014Y-1.697
X2.9014Y-1.7986
X2.9014Y-1.897
X2.9014Y-2.0002
X2.9014Y-2.0986
X3.0014Y-1.4986
X3.0014Y-1.5986
X3.0014Y-1.6986
X3.0014Y-1.7986
X3.0014Y-1.8986
X3.0014Y-1.9986
X3.0014Y-2.0986
X3.0014Y-2.1986
X3.0514Y-4.0986
X3.0514Y-4.3986
X3.0514Y-4.5486
X3.1514Y-4.0986
X3.1514Y-4.3986
X3.2014Y-1.1486
X3.203Y-1.3736
X3.2514Y-4.0986
X3.2514Y-4.3986
X3.2764Y-6.2986
X3.3014Y-1.3736
X3.3014Y-1.4986
X3.3014Y-1.5986
X3.3014Y-1.6986
X3.3014Y-1.7986
X3.3014Y-1.8986
X3.3014Y-1.9986
X3.3014Y-2.0986
X3.3014Y-2.1986
X3.3514Y-4.0986
X3.3514Y-4.3986
X3.3514Y-4.5486
X3.4014Y-1.4986
X3.4014Y-1.597
X3.475Y-5.8016
X3.475Y-5.9984
X3.5014Y-4.0986
X3.5014Y-4.3986
X3.5014Y-4.5486
X3.6014Y-4.0986
X3.6014Y-4.3986
X3.7014Y-4.0986
X3.7014Y-4.3986
X3.8014Y-4.0986
X3.8014Y-4.3986
X3.8014Y-4.5486
X3.9514Y-4.0986
X3.9514Y-4.3986
X3.9514Y-4.5486
X4.0514Y-4.0986
X4.0514Y-4.3986
X4.1014Y-5.5986
X4.1014Y-5.7955
X4.1514Y-4.0986
X4.1514Y-4.3986
X4.2514Y-4.0986
X4.2514Y-4.3986
X4.2514Y-4.5486
X4.2514Y-5.5986
X4.2514Y-5.697
X4.3Y-1.55
X4.3Y-1.65
X4.3Y-1.75
X4.3Y-1.85
X4.3Y-1.95
X4.3Y-2.05
X4.3Y-2.15
X4.3Y-2.25
X4.3Y-2.35
X4.3Y-2.45
X4.3Y-2.55
X4.3Y-2.65
X4.3Y-2.75
X4.3Y-2.85
X4.4Y-3.0
X4.4Y-3.1492
X4.4014Y-4.0986
X4.4014Y-4.3986
X4.4014Y-4.5486
X4.4984Y-3.0
X4.4984Y-3.1492
X4.5014Y-4.0986
X4.5014Y-4.3986
X4.6Y-1.55
X4.6Y-1.65
X4.6Y-1.75
X4.6Y-1.85
X4.6Y-1.95
X4.6Y-2.05
X4.6Y-2.15
X4.6Y-2.25
X4.6Y-2.35
X4.6Y-2.45
X4.6Y-2.55
X4.6Y-2.65
X4.6Y-2.75
X4.6Y-2.85
X4.6014Y-4.0986
X4.6014Y-4.3986
X4.7014Y-4.0986
X4.7014Y-4.3986
X4.7014Y-4.5486
X4.7258Y-3.5
X4.75Y-2.2516
X4.75Y-2.35
X4.8242Y-3.5
X4.8514Y-4.3486
X4.8514Y-4.6486
X4.9Y-2.2516
X4.9Y-2.35
X5.05Y-3.2
X5.05Y-3.5
X5.0994Y-6.2768
X5.13Y-1.85
X5.13Y-1.95
X5.13Y-2.05
X5.13Y-2.15
X5.13Y-2.25
X5.13Y-2.35
X5.13Y-2.45
X5.13Y-2.55
X5.13Y-2.65
X5.13Y-2.75
X5.13Y-2.85
X5.1994Y-6.3768
X5.2994Y-6.2768
X5.3Y-3.575
X5.3Y-3.875
X5.3014Y-1.9486
X5.3014Y-2.0486
X5.3014Y-2.1486
X5.3014Y-2.2486
X5.3014Y-2.3486
X5.3014Y-2.4486
X5.3014Y-2.5486
X5.3014Y-2.8486
X5.3014Y-2.9486
X5.3014Y-3.0486
X5.3014Y-3.1486
X5.3014Y-3.2486
X5.3014Y-3.3486
X5.3014Y-3.4486
X5.3636Y-5.0486
X5.4014Y-2.6986
X5.403Y-1.7986
X5.4998Y-2.6986
X5.5014Y-1.7986
X5.5014Y-5.0486
X5.6014Y-1.9486
X5.6014Y-2.0486
X5.6014Y-2.1486
X5.6014Y-2.2486
X5.6014Y-2.3486
X5.6014Y-2.4486
X5.6014Y-2.5486
X5.6014Y-2.8486
X5.6014Y-2.9486
X5.6014Y-3.0486
X5.6014Y-3.1486
X5.6014Y-3.2486
X5.6014Y-3.3486
X5.6014Y-3.4486
X5.675Y-6.25
X5.675Y-6.55
X5.8Y-6.36
X5.8Y-6.48
X5.96Y-6.12
X5.96Y-6.24
X6.0014Y-5.7986
X6.0014Y-5.9986
X6.0514Y-1.1736
X6.0514Y-1.4736
X6.0514Y-1.6486
X6.0514Y-1.9486
X6.0514Y-2.1486
X6.0514Y-2.4486
X6.0514Y-2.6486
X6.0514Y-2.9486
X6.0514Y-3.1236
X6.0514Y-3.4236
X6.0514Y-3.6236
X6.0514Y-3.9236
X6.0514Y-4.0986
X6.0514Y-4.3986
X6.0514Y-4.5986
X6.0514Y-4.8986
X6.2Y-6.36
X6.2Y-6.48
X6.2014Y-5.4486
X6.2014Y-5.6455
X6.26Y-6.12
X6.26Y-6.24
X6.4014Y-5.7986
X6.4014Y-5.9986
X6.6514Y-5.7002
X6.6514Y-5.7986
X6.6514Y-6.0502
X6.6514Y-6.1486
X7.1014Y-5.3736
X7.1014Y-5.6736
X7.1014Y-5.8486
X7.1014Y-6.1486
X7.5Y-1.95
X7.5Y-2.75
X7.5Y-3.8
X7.5Y-4.2
X7.5014Y-1.55
X7.5014Y-2.35
X7.5014Y-4.6486
X7.5504Y-4.8504
X7.5504Y-4.9504
X7.5504Y-5.0504
X7.5504Y-5.1504
X7.8Y-1.95
X7.8Y-2.75
X7.8Y-3.8
X7.8Y-4.2
X7.8014Y-1.55
X7.8014Y-2.35
X7.8014Y-4.6486
X7.8504Y-4.8504
X7.8504Y-4.9504
X7.8504Y-5.0504
X7.8504Y-5.1504
X8.0764Y-4.8236
X8.0764Y-5.2236
T5
X4.5065Y-5.5
X4.5065Y-6.1
X4.6065Y-5.5
X4.6065Y-6.1
X5.1065Y-5.5
X5.1065Y-6.1
X5.2065Y-5.5
X5.2065Y-6.1
X5.3065Y-5.5
X5.3065Y-6.1
X5.5065Y-5.5
X5.5065Y-6.1
T6
X5.48Y-6.3198
X5.48Y-6.4198
X6.44Y-6.32
X6.44Y-6.42
X6.7Y-6.3198
X6.7Y-6.4198
X8.3Y-1.8496
X8.3Y-1.9496
X8.3Y-2.0496
X8.3Y-2.25
X8.3Y-2.35
X8.3Y-2.45
X8.3Y-3.7
X8.3Y-3.8
X8.3Y-4.1
X8.3Y-4.2
X8.3014Y-1.4496
X8.3014Y-1.5496
X8.3014Y-1.6496
X8.3014Y-2.65
X8.3014Y-2.75
X8.3014Y-2.85
X8.3014Y-5.7986
X8.3014Y-5.8986
T7
X2.5196Y-1.7169
X2.5196Y-1.826
X2.5196Y-1.935
X2.5196Y-2.0441
X2.6222Y-2.7
X2.6222Y-2.8
X2.6222Y-2.9
X2.6222Y-3.0
X2.6222Y-3.1
X2.6222Y-3.2
X2.6314Y-1.6624
X2.6314Y-1.7715
X2.6314Y-1.8805
X2.6314Y-1.9896
X2.6314Y-2.0986
X3.55Y-1.9
X3.55Y-2.1
X3.55Y-2.8
X3.65Y-1.9
X3.65Y-2.1
X3.65Y-2.8
X3.7Y-5.7
X3.7Y-5.8
X3.7Y-5.9
X3.75Y-1.9
X3.75Y-2.1
X4.9Y-2.55
X4.9Y-2.65
X4.9Y-2.75
X4.9Y-2.85
X4.9Y-2.95
X4.9Y-3.05
X5.8514Y-5.4986
X5.8514Y-5.5986
X5.8514Y-5.7986
X5.8514Y-5.8986
X5.8514Y-5.9986
X6.4514Y-5.4486
X6.5514Y-5.4486
X6.6514Y-5.4486
T8
X4.647Y-3.2114
X4.647Y-3.3886
X4.903Y-3.2114
X4.903Y-3.3886
T9
X3.1014Y-5.7986
X3.1014Y-5.9955
X5.7514Y-5.1486
X6.9514Y-5.1486
X7.25Y-4.1
X7.25Y-4.9
X7.2514Y-1.1486
X7.2514Y-1.9486
X7.2514Y-2.1486
X7.2514Y-2.9486
X7.2514Y-3.1236
X7.2514Y-3.9236
T10
X2.54Y-5.5
X2.54Y-5.7
X2.54Y-5.9
X2.54Y-6.1
T11
X2.5755Y-1.3884
X2.5755Y-2.3726
T12
X2.5Y-0.9
X2.5Y-3.5
X3.5Y-3.5
X3.5Y-6.55
X4.9014Y-5.1486
X8.1Y-0.8486
X8.1Y-6.55
T7
G00X2.45Y-6.2229
M15
G01X2.45Y-6.3017
M16
G05
G00X2.5287Y-6.4473
M15
G01X2.6075Y-6.4473
M16
G05
G00X2.6862Y-6.2229
M15
G01X2.6862Y-6.3017
M16
G05
M30
