G04 #@! TF.GenerationSoftware,KiCad,Pcbnew,(5.1.6)-1*
G04 #@! TF.CreationDate,2020-06-24T19:29:31-07:00*
G04 #@! TF.ProjectId,1d_coinctrl_r2,31645f63-6f69-46e6-9374-726c5f72322e,rev?*
G04 #@! TF.SameCoordinates,Original*
G04 #@! TF.FileFunction,Copper,L1,Top*
G04 #@! TF.FilePolarity,Positive*
%FSLAX46Y46*%
G04 Gerber Fmt 4.6, Leading zero omitted, Abs format (unit mm)*
G04 Created by KiCad (PCBNEW (5.1.6)-1) date 2020-06-24 19:29:31*
%MOMM*%
%LPD*%
G01*
G04 APERTURE LIST*
G04 #@! TA.AperFunction,NonConductor*
%ADD10C,0.300000*%
G04 #@! TD*
G04 #@! TA.AperFunction,ComponentPad*
%ADD11C,1.600000*%
G04 #@! TD*
G04 #@! TA.AperFunction,ComponentPad*
%ADD12O,1.600000X1.600000*%
G04 #@! TD*
G04 #@! TA.AperFunction,ComponentPad*
%ADD13R,1.600000X1.600000*%
G04 #@! TD*
G04 #@! TA.AperFunction,ComponentPad*
%ADD14C,1.500000*%
G04 #@! TD*
G04 #@! TA.AperFunction,ComponentPad*
%ADD15R,1.500000X1.500000*%
G04 #@! TD*
G04 #@! TA.AperFunction,ComponentPad*
%ADD16C,7.400000*%
G04 #@! TD*
G04 #@! TA.AperFunction,ComponentPad*
%ADD17O,1.700000X1.700000*%
G04 #@! TD*
G04 #@! TA.AperFunction,ComponentPad*
%ADD18R,1.700000X1.700000*%
G04 #@! TD*
G04 #@! TA.AperFunction,ComponentPad*
%ADD19C,1.800000*%
G04 #@! TD*
G04 #@! TA.AperFunction,ComponentPad*
%ADD20R,1.800000X1.800000*%
G04 #@! TD*
G04 #@! TA.AperFunction,ComponentPad*
%ADD21O,1.727200X1.727200*%
G04 #@! TD*
G04 #@! TA.AperFunction,ComponentPad*
%ADD22R,1.727200X1.727200*%
G04 #@! TD*
G04 #@! TA.AperFunction,ComponentPad*
%ADD23C,4.000000*%
G04 #@! TD*
G04 #@! TA.AperFunction,ComponentPad*
%ADD24C,2.000000*%
G04 #@! TD*
G04 #@! TA.AperFunction,ComponentPad*
%ADD25R,2.000000X2.000000*%
G04 #@! TD*
G04 #@! TA.AperFunction,ComponentPad*
%ADD26O,2.400000X2.400000*%
G04 #@! TD*
G04 #@! TA.AperFunction,ComponentPad*
%ADD27C,2.400000*%
G04 #@! TD*
G04 #@! TA.AperFunction,ComponentPad*
%ADD28R,2.400000X2.400000*%
G04 #@! TD*
G04 #@! TA.AperFunction,ComponentPad*
%ADD29R,2.000000X4.500000*%
G04 #@! TD*
G04 #@! TA.AperFunction,ComponentPad*
%ADD30R,4.500000X2.000000*%
G04 #@! TD*
G04 #@! TA.AperFunction,ComponentPad*
%ADD31C,3.500000*%
G04 #@! TD*
G04 #@! TA.AperFunction,ComponentPad*
%ADD32C,1.700000*%
G04 #@! TD*
G04 #@! TA.AperFunction,ComponentPad*
%ADD33C,1.220000*%
G04 #@! TD*
G04 #@! TA.AperFunction,ComponentPad*
%ADD34C,1.440000*%
G04 #@! TD*
G04 #@! TA.AperFunction,ViaPad*
%ADD35C,0.800000*%
G04 #@! TD*
G04 #@! TA.AperFunction,Conductor*
%ADD36C,1.000000*%
G04 #@! TD*
G04 #@! TA.AperFunction,Conductor*
%ADD37C,2.000000*%
G04 #@! TD*
G04 #@! TA.AperFunction,Conductor*
%ADD38C,0.200000*%
G04 #@! TD*
G04 #@! TA.AperFunction,Conductor*
%ADD39C,0.500000*%
G04 #@! TD*
G04 #@! TA.AperFunction,Conductor*
%ADD40C,0.300000*%
G04 #@! TD*
G04 APERTURE END LIST*
D10*
X148572142Y-24438571D02*
X148572142Y-25438571D01*
X148215000Y-23867142D02*
X147857857Y-24938571D01*
X148786428Y-24938571D01*
X149357857Y-24867142D02*
X150500714Y-24867142D01*
X151929285Y-25438571D02*
X151215000Y-25438571D01*
X151215000Y-23938571D01*
X152429285Y-25438571D02*
X152429285Y-24438571D01*
X152429285Y-23938571D02*
X152357857Y-24010000D01*
X152429285Y-24081428D01*
X152500714Y-24010000D01*
X152429285Y-23938571D01*
X152429285Y-24081428D01*
X153143571Y-24438571D02*
X153143571Y-25438571D01*
X153143571Y-24581428D02*
X153215000Y-24510000D01*
X153357857Y-24438571D01*
X153572142Y-24438571D01*
X153715000Y-24510000D01*
X153786428Y-24652857D01*
X153786428Y-25438571D01*
X155072142Y-25367142D02*
X154929285Y-25438571D01*
X154643571Y-25438571D01*
X154500714Y-25367142D01*
X154429285Y-25224285D01*
X154429285Y-24652857D01*
X154500714Y-24510000D01*
X154643571Y-24438571D01*
X154929285Y-24438571D01*
X155072142Y-24510000D01*
X155143571Y-24652857D01*
X155143571Y-24795714D01*
X154429285Y-24938571D01*
X157786428Y-25295714D02*
X157715000Y-25367142D01*
X157500714Y-25438571D01*
X157357857Y-25438571D01*
X157143571Y-25367142D01*
X157000714Y-25224285D01*
X156929285Y-25081428D01*
X156857857Y-24795714D01*
X156857857Y-24581428D01*
X156929285Y-24295714D01*
X157000714Y-24152857D01*
X157143571Y-24010000D01*
X157357857Y-23938571D01*
X157500714Y-23938571D01*
X157715000Y-24010000D01*
X157786428Y-24081428D01*
X158643571Y-25438571D02*
X158500714Y-25367142D01*
X158429285Y-25295714D01*
X158357857Y-25152857D01*
X158357857Y-24724285D01*
X158429285Y-24581428D01*
X158500714Y-24510000D01*
X158643571Y-24438571D01*
X158857857Y-24438571D01*
X159000714Y-24510000D01*
X159072142Y-24581428D01*
X159143571Y-24724285D01*
X159143571Y-25152857D01*
X159072142Y-25295714D01*
X159000714Y-25367142D01*
X158857857Y-25438571D01*
X158643571Y-25438571D01*
X159786428Y-25438571D02*
X159786428Y-24438571D01*
X159786428Y-23938571D02*
X159715000Y-24010000D01*
X159786428Y-24081428D01*
X159857857Y-24010000D01*
X159786428Y-23938571D01*
X159786428Y-24081428D01*
X160500714Y-24438571D02*
X160500714Y-25438571D01*
X160500714Y-24581428D02*
X160572142Y-24510000D01*
X160715000Y-24438571D01*
X160929285Y-24438571D01*
X161072142Y-24510000D01*
X161143571Y-24652857D01*
X161143571Y-25438571D01*
X163857857Y-25295714D02*
X163786428Y-25367142D01*
X163572142Y-25438571D01*
X163429285Y-25438571D01*
X163215000Y-25367142D01*
X163072142Y-25224285D01*
X163000714Y-25081428D01*
X162929285Y-24795714D01*
X162929285Y-24581428D01*
X163000714Y-24295714D01*
X163072142Y-24152857D01*
X163215000Y-24010000D01*
X163429285Y-23938571D01*
X163572142Y-23938571D01*
X163786428Y-24010000D01*
X163857857Y-24081428D01*
X164715000Y-25438571D02*
X164572142Y-25367142D01*
X164500714Y-25295714D01*
X164429285Y-25152857D01*
X164429285Y-24724285D01*
X164500714Y-24581428D01*
X164572142Y-24510000D01*
X164715000Y-24438571D01*
X164929285Y-24438571D01*
X165072142Y-24510000D01*
X165143571Y-24581428D01*
X165215000Y-24724285D01*
X165215000Y-25152857D01*
X165143571Y-25295714D01*
X165072142Y-25367142D01*
X164929285Y-25438571D01*
X164715000Y-25438571D01*
X165857857Y-24438571D02*
X165857857Y-25438571D01*
X165857857Y-24581428D02*
X165929285Y-24510000D01*
X166072142Y-24438571D01*
X166286428Y-24438571D01*
X166429285Y-24510000D01*
X166500714Y-24652857D01*
X166500714Y-25438571D01*
X167000714Y-24438571D02*
X167572142Y-24438571D01*
X167215000Y-23938571D02*
X167215000Y-25224285D01*
X167286428Y-25367142D01*
X167429285Y-25438571D01*
X167572142Y-25438571D01*
X168072142Y-25438571D02*
X168072142Y-24438571D01*
X168072142Y-24724285D02*
X168143571Y-24581428D01*
X168215000Y-24510000D01*
X168357857Y-24438571D01*
X168500714Y-24438571D01*
X169215000Y-25438571D02*
X169072142Y-25367142D01*
X169000714Y-25295714D01*
X168929285Y-25152857D01*
X168929285Y-24724285D01*
X169000714Y-24581428D01*
X169072142Y-24510000D01*
X169215000Y-24438571D01*
X169429285Y-24438571D01*
X169572142Y-24510000D01*
X169643571Y-24581428D01*
X169715000Y-24724285D01*
X169715000Y-25152857D01*
X169643571Y-25295714D01*
X169572142Y-25367142D01*
X169429285Y-25438571D01*
X169215000Y-25438571D01*
X170572142Y-25438571D02*
X170429285Y-25367142D01*
X170357857Y-25224285D01*
X170357857Y-23938571D01*
X171357857Y-25438571D02*
X171215000Y-25367142D01*
X171143571Y-25224285D01*
X171143571Y-23938571D01*
X172500714Y-25367142D02*
X172357857Y-25438571D01*
X172072142Y-25438571D01*
X171929285Y-25367142D01*
X171857857Y-25224285D01*
X171857857Y-24652857D01*
X171929285Y-24510000D01*
X172072142Y-24438571D01*
X172357857Y-24438571D01*
X172500714Y-24510000D01*
X172572142Y-24652857D01*
X172572142Y-24795714D01*
X171857857Y-24938571D01*
X173215000Y-25438571D02*
X173215000Y-24438571D01*
X173215000Y-24724285D02*
X173286428Y-24581428D01*
X173357857Y-24510000D01*
X173500714Y-24438571D01*
X173643571Y-24438571D01*
X175286428Y-25438571D02*
X175286428Y-23938571D01*
X175929285Y-25367142D02*
X176072142Y-25438571D01*
X176357857Y-25438571D01*
X176500714Y-25367142D01*
X176572142Y-25224285D01*
X176572142Y-25152857D01*
X176500714Y-25010000D01*
X176357857Y-24938571D01*
X176143571Y-24938571D01*
X176000714Y-24867142D01*
X175929285Y-24724285D01*
X175929285Y-24652857D01*
X176000714Y-24510000D01*
X176143571Y-24438571D01*
X176357857Y-24438571D01*
X176500714Y-24510000D01*
X177143571Y-25367142D02*
X177286428Y-25438571D01*
X177572142Y-25438571D01*
X177715000Y-25367142D01*
X177786428Y-25224285D01*
X177786428Y-25152857D01*
X177715000Y-25010000D01*
X177572142Y-24938571D01*
X177357857Y-24938571D01*
X177215000Y-24867142D01*
X177143571Y-24724285D01*
X177143571Y-24652857D01*
X177215000Y-24510000D01*
X177357857Y-24438571D01*
X177572142Y-24438571D01*
X177715000Y-24510000D01*
X179500714Y-24081428D02*
X179572142Y-24010000D01*
X179715000Y-23938571D01*
X180072142Y-23938571D01*
X180215000Y-24010000D01*
X180286428Y-24081428D01*
X180357857Y-24224285D01*
X180357857Y-24367142D01*
X180286428Y-24581428D01*
X179429285Y-25438571D01*
X180357857Y-25438571D01*
X181000714Y-25295714D02*
X181072142Y-25367142D01*
X181000714Y-25438571D01*
X180929285Y-25367142D01*
X181000714Y-25295714D01*
X181000714Y-25438571D01*
X145036428Y-28560000D02*
X144964999Y-28488571D01*
X144822142Y-28274285D01*
X144750714Y-28131428D01*
X144679285Y-27917142D01*
X144607857Y-27560000D01*
X144607857Y-27274285D01*
X144679285Y-26917142D01*
X144750714Y-26702857D01*
X144822142Y-26560000D01*
X144964999Y-26345714D01*
X145036428Y-26274285D01*
X146250714Y-27917142D02*
X146107857Y-27988571D01*
X145822142Y-27988571D01*
X145679285Y-27917142D01*
X145607857Y-27845714D01*
X145536428Y-27702857D01*
X145536428Y-27274285D01*
X145607857Y-27131428D01*
X145679285Y-27060000D01*
X145822142Y-26988571D01*
X146107857Y-26988571D01*
X146250714Y-27060000D01*
X146750714Y-28560000D02*
X146822142Y-28488571D01*
X146964999Y-28274285D01*
X147036428Y-28131428D01*
X147107857Y-27917142D01*
X147179285Y-27560000D01*
X147179285Y-27274285D01*
X147107857Y-26917142D01*
X147036428Y-26702857D01*
X146964999Y-26560000D01*
X146822142Y-26345714D01*
X146750714Y-26274285D01*
X148964999Y-26631428D02*
X149036428Y-26560000D01*
X149179285Y-26488571D01*
X149536428Y-26488571D01*
X149679285Y-26560000D01*
X149750714Y-26631428D01*
X149822142Y-26774285D01*
X149822142Y-26917142D01*
X149750714Y-27131428D01*
X148893571Y-27988571D01*
X149822142Y-27988571D01*
X150750714Y-26488571D02*
X150893571Y-26488571D01*
X151036428Y-26560000D01*
X151107857Y-26631428D01*
X151179285Y-26774285D01*
X151250714Y-27060000D01*
X151250714Y-27417142D01*
X151179285Y-27702857D01*
X151107857Y-27845714D01*
X151036428Y-27917142D01*
X150893571Y-27988571D01*
X150750714Y-27988571D01*
X150607857Y-27917142D01*
X150536428Y-27845714D01*
X150464999Y-27702857D01*
X150393571Y-27417142D01*
X150393571Y-27060000D01*
X150464999Y-26774285D01*
X150536428Y-26631428D01*
X150607857Y-26560000D01*
X150750714Y-26488571D01*
X151822142Y-26631428D02*
X151893571Y-26560000D01*
X152036428Y-26488571D01*
X152393571Y-26488571D01*
X152536428Y-26560000D01*
X152607857Y-26631428D01*
X152679285Y-26774285D01*
X152679285Y-26917142D01*
X152607857Y-27131428D01*
X151750714Y-27988571D01*
X152679285Y-27988571D01*
X153607857Y-26488571D02*
X153750714Y-26488571D01*
X153893571Y-26560000D01*
X153964999Y-26631428D01*
X154036428Y-26774285D01*
X154107857Y-27060000D01*
X154107857Y-27417142D01*
X154036428Y-27702857D01*
X153964999Y-27845714D01*
X153893571Y-27917142D01*
X153750714Y-27988571D01*
X153607857Y-27988571D01*
X153464999Y-27917142D01*
X153393571Y-27845714D01*
X153322142Y-27702857D01*
X153250714Y-27417142D01*
X153250714Y-27060000D01*
X153322142Y-26774285D01*
X153393571Y-26631428D01*
X153464999Y-26560000D01*
X153607857Y-26488571D01*
X155893571Y-27988571D02*
X155893571Y-26488571D01*
X155893571Y-27202857D02*
X156750714Y-27202857D01*
X156750714Y-27988571D02*
X156750714Y-26488571D01*
X157679285Y-27988571D02*
X157536428Y-27917142D01*
X157464999Y-27845714D01*
X157393571Y-27702857D01*
X157393571Y-27274285D01*
X157464999Y-27131428D01*
X157536428Y-27060000D01*
X157679285Y-26988571D01*
X157893571Y-26988571D01*
X158036428Y-27060000D01*
X158107857Y-27131428D01*
X158179285Y-27274285D01*
X158179285Y-27702857D01*
X158107857Y-27845714D01*
X158036428Y-27917142D01*
X157893571Y-27988571D01*
X157679285Y-27988571D01*
X158679285Y-26988571D02*
X158964999Y-27988571D01*
X159250714Y-27274285D01*
X159536428Y-27988571D01*
X159822142Y-26988571D01*
X161036428Y-27988571D02*
X161036428Y-27202857D01*
X160964999Y-27060000D01*
X160822142Y-26988571D01*
X160536428Y-26988571D01*
X160393571Y-27060000D01*
X161036428Y-27917142D02*
X160893571Y-27988571D01*
X160536428Y-27988571D01*
X160393571Y-27917142D01*
X160322142Y-27774285D01*
X160322142Y-27631428D01*
X160393571Y-27488571D01*
X160536428Y-27417142D01*
X160893571Y-27417142D01*
X161036428Y-27345714D01*
X161750714Y-27988571D02*
X161750714Y-26988571D01*
X161750714Y-27274285D02*
X161822142Y-27131428D01*
X161893571Y-27060000D01*
X162036428Y-26988571D01*
X162179285Y-26988571D01*
X163322142Y-27988571D02*
X163322142Y-26488571D01*
X163322142Y-27917142D02*
X163179285Y-27988571D01*
X162893571Y-27988571D01*
X162750714Y-27917142D01*
X162679285Y-27845714D01*
X162607857Y-27702857D01*
X162607857Y-27274285D01*
X162679285Y-27131428D01*
X162750714Y-27060000D01*
X162893571Y-26988571D01*
X163179285Y-26988571D01*
X163322142Y-27060000D01*
X165179285Y-27988571D02*
X165179285Y-26488571D01*
X165679285Y-27560000D01*
X166179285Y-26488571D01*
X166179285Y-27988571D01*
X166893571Y-27845714D02*
X166964999Y-27917142D01*
X166893571Y-27988571D01*
X166822142Y-27917142D01*
X166893571Y-27845714D01*
X166893571Y-27988571D01*
X168750714Y-27988571D02*
X168750714Y-26488571D01*
X168750714Y-27202857D02*
X169607857Y-27202857D01*
X169607857Y-27988571D02*
X169607857Y-26488571D01*
X170964999Y-27988571D02*
X170964999Y-27202857D01*
X170893571Y-27060000D01*
X170750714Y-26988571D01*
X170464999Y-26988571D01*
X170322142Y-27060000D01*
X170964999Y-27917142D02*
X170822142Y-27988571D01*
X170464999Y-27988571D01*
X170322142Y-27917142D01*
X170250714Y-27774285D01*
X170250714Y-27631428D01*
X170322142Y-27488571D01*
X170464999Y-27417142D01*
X170822142Y-27417142D01*
X170964999Y-27345714D01*
X171679285Y-27988571D02*
X171679285Y-26988571D01*
X171679285Y-27274285D02*
X171750714Y-27131428D01*
X171822142Y-27060000D01*
X171964999Y-26988571D01*
X172107857Y-26988571D01*
X172393571Y-26988571D02*
X172964999Y-26988571D01*
X172607857Y-26488571D02*
X172607857Y-27774285D01*
X172679285Y-27917142D01*
X172822142Y-27988571D01*
X172964999Y-27988571D01*
X174036428Y-27917142D02*
X173893571Y-27988571D01*
X173607857Y-27988571D01*
X173464999Y-27917142D01*
X173393571Y-27774285D01*
X173393571Y-27202857D01*
X173464999Y-27060000D01*
X173607857Y-26988571D01*
X173893571Y-26988571D01*
X174036428Y-27060000D01*
X174107857Y-27202857D01*
X174107857Y-27345714D01*
X173393571Y-27488571D01*
X175893571Y-27417142D02*
X177036428Y-27417142D01*
X178750714Y-26488571D02*
X179107857Y-27988571D01*
X179393571Y-26917142D01*
X179679285Y-27988571D01*
X180036428Y-26488571D01*
X180465000Y-26488571D02*
X181465000Y-26488571D01*
X180465000Y-27988571D01*
X181465000Y-27988571D01*
X181964999Y-26631428D02*
X182036428Y-26560000D01*
X182179285Y-26488571D01*
X182536428Y-26488571D01*
X182679285Y-26560000D01*
X182750714Y-26631428D01*
X182822142Y-26774285D01*
X182822142Y-26917142D01*
X182750714Y-27131428D01*
X181893571Y-27988571D01*
X182822142Y-27988571D01*
X184464999Y-28131428D02*
X184322142Y-28060000D01*
X184179285Y-27917142D01*
X183964999Y-27702857D01*
X183822142Y-27631428D01*
X183679285Y-27631428D01*
X183750714Y-27988571D02*
X183607857Y-27917142D01*
X183464999Y-27774285D01*
X183393571Y-27488571D01*
X183393571Y-26988571D01*
X183464999Y-26702857D01*
X183607857Y-26560000D01*
X183750714Y-26488571D01*
X184036428Y-26488571D01*
X184179285Y-26560000D01*
X184322142Y-26702857D01*
X184393571Y-26988571D01*
X184393571Y-27488571D01*
X184322142Y-27774285D01*
X184179285Y-27917142D01*
X184036428Y-27988571D01*
X183750714Y-27988571D01*
D11*
X111760000Y-102830000D03*
X111760000Y-100330000D03*
D12*
X100965000Y-166370000D03*
D11*
X111125000Y-166370000D03*
X164140000Y-134620000D03*
D13*
X167640000Y-134620000D03*
D12*
X105410000Y-110490000D03*
X113030000Y-118110000D03*
X107950000Y-110490000D03*
X110490000Y-118110000D03*
X110490000Y-110490000D03*
X107950000Y-118110000D03*
X113030000Y-110490000D03*
D13*
X105410000Y-118110000D03*
D12*
X128270000Y-110490000D03*
X135890000Y-118110000D03*
X130810000Y-110490000D03*
X133350000Y-118110000D03*
X133350000Y-110490000D03*
X130810000Y-118110000D03*
X135890000Y-110490000D03*
D13*
X128270000Y-118110000D03*
D12*
X116840000Y-110490000D03*
X124460000Y-118110000D03*
X119380000Y-110490000D03*
X121920000Y-118110000D03*
X121920000Y-110490000D03*
X119380000Y-118110000D03*
X124460000Y-110490000D03*
D13*
X116840000Y-118110000D03*
D12*
X139700000Y-110490000D03*
X147320000Y-118110000D03*
X142240000Y-110490000D03*
X144780000Y-118110000D03*
X144780000Y-110490000D03*
X142240000Y-118110000D03*
X147320000Y-110490000D03*
D13*
X139700000Y-118110000D03*
D12*
X116840000Y-97790000D03*
X137160000Y-105410000D03*
X119380000Y-97790000D03*
X134620000Y-105410000D03*
X121920000Y-97790000D03*
X132080000Y-105410000D03*
X124460000Y-97790000D03*
X129540000Y-105410000D03*
X127000000Y-97790000D03*
X127000000Y-105410000D03*
X129540000Y-97790000D03*
X124460000Y-105410000D03*
X132080000Y-97790000D03*
X121920000Y-105410000D03*
X134620000Y-97790000D03*
X119380000Y-105410000D03*
X137160000Y-97790000D03*
D13*
X116840000Y-105410000D03*
D12*
X105410000Y-121920000D03*
D11*
X113030000Y-121920000D03*
D12*
X128270000Y-121920000D03*
D11*
X135890000Y-121920000D03*
D12*
X116840000Y-121920000D03*
D11*
X124460000Y-121920000D03*
D12*
X139700000Y-121920000D03*
D11*
X147320000Y-121920000D03*
D14*
X99060000Y-133350000D03*
X96520000Y-132080000D03*
X99060000Y-130810000D03*
X96520000Y-129540000D03*
X99060000Y-128270000D03*
X96520000Y-127000000D03*
X99060000Y-125730000D03*
D15*
X96520000Y-124460000D03*
D14*
X99060000Y-113030000D03*
X96520000Y-111760000D03*
X99060000Y-110490000D03*
X96520000Y-109220000D03*
X99060000Y-107950000D03*
X96520000Y-106680000D03*
X99060000Y-105410000D03*
D15*
X96520000Y-104140000D03*
D11*
X185420000Y-149780000D03*
X185420000Y-144780000D03*
X132080000Y-153590000D03*
X132080000Y-148590000D03*
X116840000Y-153750000D03*
X116840000Y-158750000D03*
D16*
X152400000Y-137160000D03*
D11*
X154940000Y-68540000D03*
X154940000Y-66040000D03*
X129540000Y-73620000D03*
X129540000Y-71120000D03*
D16*
X91440000Y-144780000D03*
X236220000Y-27940000D03*
X91440000Y-27940000D03*
X236220000Y-170180000D03*
X91440000Y-170180000D03*
D17*
X109220000Y-81280000D03*
D18*
X106680000Y-81280000D03*
D19*
X238760000Y-105156000D03*
D20*
X238760000Y-102616000D03*
D19*
X238760000Y-155448000D03*
D20*
X238760000Y-152908000D03*
D17*
X218440000Y-168910000D03*
D18*
X215900000Y-168910000D03*
D21*
X121920000Y-68580000D03*
X119380000Y-68580000D03*
X121920000Y-66040000D03*
X119380000Y-66040000D03*
X121920000Y-63500000D03*
X119380000Y-63500000D03*
X121920000Y-60960000D03*
X119380000Y-60960000D03*
X121920000Y-58420000D03*
X119380000Y-58420000D03*
X121920000Y-55880000D03*
X119380000Y-55880000D03*
X121920000Y-53340000D03*
X119380000Y-53340000D03*
X121920000Y-50800000D03*
X119380000Y-50800000D03*
X121920000Y-48260000D03*
X119380000Y-48260000D03*
X121920000Y-45720000D03*
D22*
X119380000Y-45720000D03*
D12*
X149860000Y-45720000D03*
X134620000Y-93980000D03*
X149860000Y-48260000D03*
X134620000Y-91440000D03*
X149860000Y-50800000D03*
X134620000Y-88900000D03*
X149860000Y-53340000D03*
X134620000Y-86360000D03*
X149860000Y-55880000D03*
X134620000Y-83820000D03*
X149860000Y-58420000D03*
X134620000Y-81280000D03*
X149860000Y-60960000D03*
X134620000Y-78740000D03*
X149860000Y-63500000D03*
X134620000Y-76200000D03*
X149860000Y-66040000D03*
X134620000Y-73660000D03*
X149860000Y-68580000D03*
X134620000Y-71120000D03*
X149860000Y-71120000D03*
X134620000Y-68580000D03*
X149860000Y-73660000D03*
X134620000Y-66040000D03*
X149860000Y-76200000D03*
X134620000Y-63500000D03*
X149860000Y-78740000D03*
X134620000Y-60960000D03*
X149860000Y-81280000D03*
X134620000Y-58420000D03*
X149860000Y-83820000D03*
X134620000Y-55880000D03*
X149860000Y-86360000D03*
X134620000Y-53340000D03*
X149860000Y-88900000D03*
X134620000Y-50800000D03*
X149860000Y-91440000D03*
X134620000Y-48260000D03*
X149860000Y-93980000D03*
D13*
X134620000Y-45720000D03*
D12*
X96520000Y-92770000D03*
D11*
X88900000Y-92770000D03*
X93900000Y-96520000D03*
X88900000Y-96520000D03*
D12*
X111760000Y-44450000D03*
X104140000Y-62230000D03*
X111760000Y-46990000D03*
X104140000Y-59690000D03*
X111760000Y-49530000D03*
X104140000Y-57150000D03*
X111760000Y-52070000D03*
X104140000Y-54610000D03*
X111760000Y-54610000D03*
X104140000Y-52070000D03*
X111760000Y-57150000D03*
X104140000Y-49530000D03*
X111760000Y-59690000D03*
X104140000Y-46990000D03*
X111760000Y-62230000D03*
D13*
X104140000Y-44450000D03*
D12*
X109220000Y-35560000D03*
D11*
X101600000Y-35560000D03*
D12*
X233045000Y-128905000D03*
D11*
X233045000Y-139065000D03*
D23*
X93322000Y-66650000D03*
X93322000Y-41650000D03*
D11*
X91902000Y-49995000D03*
X91902000Y-52765000D03*
X91902000Y-55535000D03*
X91902000Y-58305000D03*
X94742000Y-48610000D03*
X94742000Y-51380000D03*
X94742000Y-54150000D03*
X94742000Y-56920000D03*
D13*
X94742000Y-59690000D03*
D11*
X98980000Y-35560000D03*
X93980000Y-35560000D03*
X101600000Y-59690000D03*
X101600000Y-57190000D03*
X109260000Y-41275000D03*
X111760000Y-41275000D03*
X101600000Y-54570000D03*
X101600000Y-52070000D03*
X101600000Y-49490000D03*
X101600000Y-46990000D03*
X114300000Y-46950000D03*
X114300000Y-44450000D03*
D24*
X204470000Y-123190000D03*
X199390000Y-123190000D03*
X194310000Y-123190000D03*
X204470000Y-130810000D03*
X199390000Y-130810000D03*
X194310000Y-130810000D03*
X186690000Y-123190000D03*
D25*
X186690000Y-130810000D03*
D26*
X212090000Y-110490000D03*
D27*
X212090000Y-130810000D03*
D12*
X218440000Y-124460000D03*
D11*
X226060000Y-124460000D03*
D12*
X226060000Y-105206800D03*
D11*
X218440000Y-105206800D03*
D12*
X129540000Y-33020000D03*
D11*
X137160000Y-33020000D03*
D17*
X176530000Y-158750000D03*
X176530000Y-156210000D03*
X176530000Y-153670000D03*
X176530000Y-148590000D03*
D18*
X176530000Y-146050000D03*
D11*
X196850000Y-151170000D03*
D13*
X196850000Y-153670000D03*
D11*
X196850000Y-160060000D03*
D13*
X196850000Y-162560000D03*
D12*
X180340000Y-153670000D03*
D11*
X190500000Y-153670000D03*
D12*
X180340000Y-158750000D03*
D11*
X190500000Y-158750000D03*
D27*
X106680000Y-153670000D03*
D28*
X106680000Y-158670000D03*
D26*
X173990000Y-137160000D03*
D27*
X204470000Y-137160000D03*
D29*
X90980000Y-157480000D03*
X96980000Y-157480000D03*
D30*
X93980000Y-162180000D03*
D31*
X92318000Y-76550000D03*
X92318000Y-88590000D03*
D32*
X95028000Y-83820000D03*
X95028000Y-81320000D03*
X97028000Y-81320000D03*
D18*
X97028000Y-83820000D03*
D11*
X152400000Y-68540000D03*
X152400000Y-66040000D03*
X132080000Y-73620000D03*
X132080000Y-71120000D03*
X137120000Y-36830000D03*
X134620000Y-36830000D03*
X132080000Y-88900000D03*
X132080000Y-91400000D03*
X135890000Y-151090000D03*
X135890000Y-148590000D03*
X165100000Y-74930000D03*
X167600000Y-74930000D03*
X165140000Y-52070000D03*
X167640000Y-52070000D03*
D12*
X151130000Y-124460000D03*
D13*
X151130000Y-116840000D03*
D12*
X208280000Y-162560000D03*
D13*
X208280000Y-154940000D03*
D12*
X208280000Y-150495000D03*
D13*
X208280000Y-142875000D03*
D12*
X181610000Y-130810000D03*
D13*
X181610000Y-123190000D03*
D12*
X181610000Y-81280000D03*
D13*
X181610000Y-73660000D03*
D12*
X181610000Y-118110000D03*
D13*
X181610000Y-110490000D03*
D12*
X181610000Y-68580000D03*
D13*
X181610000Y-60960000D03*
D12*
X181610000Y-106045000D03*
D13*
X181610000Y-98425000D03*
D12*
X181610000Y-55880000D03*
D13*
X181610000Y-48260000D03*
D12*
X181610000Y-93345000D03*
D13*
X181610000Y-85725000D03*
D12*
X181610000Y-43815000D03*
D13*
X181610000Y-36195000D03*
D17*
X196850000Y-144780000D03*
X194310000Y-144780000D03*
D18*
X191770000Y-144780000D03*
D17*
X147320000Y-40640000D03*
X144780000Y-40640000D03*
X142240000Y-40640000D03*
X139700000Y-40640000D03*
X137160000Y-40640000D03*
D18*
X134620000Y-40640000D03*
D24*
X231875001Y-155055001D03*
X226795001Y-155055001D03*
X221715001Y-155055001D03*
X231875001Y-162675001D03*
X226795001Y-162675001D03*
X221715001Y-162675001D03*
X214095001Y-155055001D03*
D25*
X214095001Y-162675001D03*
D24*
X231875001Y-142675001D03*
X226795001Y-142675001D03*
X221715001Y-142675001D03*
X231875001Y-150295001D03*
X226795001Y-150295001D03*
X221715001Y-150295001D03*
X214095001Y-142675001D03*
D25*
X214095001Y-150295001D03*
D24*
X204470000Y-110490000D03*
X199390000Y-110490000D03*
X194310000Y-110490000D03*
X204470000Y-118110000D03*
X199390000Y-118110000D03*
X194310000Y-118110000D03*
X186690000Y-110490000D03*
D25*
X186690000Y-118110000D03*
D24*
X204470000Y-98425000D03*
X199390000Y-98425000D03*
X194310000Y-98425000D03*
X204470000Y-106045000D03*
X199390000Y-106045000D03*
X194310000Y-106045000D03*
X186690000Y-98425000D03*
D25*
X186690000Y-106045000D03*
D24*
X204470000Y-85725000D03*
X199390000Y-85725000D03*
X194310000Y-85725000D03*
X204470000Y-93345000D03*
X199390000Y-93345000D03*
X194310000Y-93345000D03*
X186690000Y-85725000D03*
D25*
X186690000Y-93345000D03*
D24*
X204470000Y-73660000D03*
X199390000Y-73660000D03*
X194310000Y-73660000D03*
X204470000Y-81280000D03*
X199390000Y-81280000D03*
X194310000Y-81280000D03*
X186690000Y-73660000D03*
D25*
X186690000Y-81280000D03*
D24*
X204470000Y-60960000D03*
X199390000Y-60960000D03*
X194310000Y-60960000D03*
X204470000Y-68580000D03*
X199390000Y-68580000D03*
X194310000Y-68580000D03*
X186690000Y-60960000D03*
D25*
X186690000Y-68580000D03*
D24*
X204470000Y-48260000D03*
X199390000Y-48260000D03*
X194310000Y-48260000D03*
X204470000Y-55880000D03*
X199390000Y-55880000D03*
X194310000Y-55880000D03*
X186690000Y-48260000D03*
D25*
X186690000Y-55880000D03*
D24*
X204470000Y-36195000D03*
X199390000Y-36195000D03*
X194310000Y-36195000D03*
X204470000Y-43815000D03*
X199390000Y-43815000D03*
X194310000Y-43815000D03*
X186690000Y-36195000D03*
D25*
X186690000Y-43815000D03*
D24*
X172720000Y-116840000D03*
X167640000Y-116840000D03*
X162560000Y-116840000D03*
X172720000Y-124460000D03*
X167640000Y-124460000D03*
X162560000Y-124460000D03*
X154940000Y-116840000D03*
D25*
X154940000Y-124460000D03*
D33*
X142370000Y-146050000D03*
X144910000Y-146050000D03*
X157610000Y-146050000D03*
X160150000Y-146050000D03*
X162690000Y-146050000D03*
X167770000Y-146050000D03*
X167770000Y-161290000D03*
X162690000Y-161290000D03*
X160150000Y-161290000D03*
X157610000Y-161290000D03*
X144910000Y-161290000D03*
X142370000Y-161290000D03*
D26*
X212090000Y-60960000D03*
D27*
X212090000Y-81280000D03*
D26*
X212090000Y-85725000D03*
D27*
X212090000Y-106045000D03*
D26*
X212090000Y-35560000D03*
D27*
X212090000Y-55880000D03*
D34*
X157480000Y-167640000D03*
X160020000Y-170180000D03*
X162560000Y-167640000D03*
D24*
X147320000Y-31750000D03*
X147320000Y-36250000D03*
X140820000Y-31750000D03*
X140820000Y-36250000D03*
X121920000Y-151130000D03*
X121920000Y-153670000D03*
D25*
X121920000Y-156210000D03*
D12*
X170180000Y-78740000D03*
X162560000Y-93980000D03*
X170180000Y-81280000D03*
X162560000Y-91440000D03*
X170180000Y-83820000D03*
X162560000Y-88900000D03*
X170180000Y-86360000D03*
X162560000Y-86360000D03*
X170180000Y-88900000D03*
X162560000Y-83820000D03*
X170180000Y-91440000D03*
X162560000Y-81280000D03*
X170180000Y-93980000D03*
D13*
X162560000Y-78740000D03*
D12*
X170180000Y-55880000D03*
X162560000Y-71120000D03*
X170180000Y-58420000D03*
X162560000Y-68580000D03*
X170180000Y-60960000D03*
X162560000Y-66040000D03*
X170180000Y-63500000D03*
X162560000Y-63500000D03*
X170180000Y-66040000D03*
X162560000Y-60960000D03*
X170180000Y-68580000D03*
X162560000Y-58420000D03*
X170180000Y-71120000D03*
D13*
X162560000Y-55880000D03*
D12*
X229870000Y-132080000D03*
X222250000Y-137160000D03*
X229870000Y-134620000D03*
X222250000Y-134620000D03*
X229870000Y-137160000D03*
D13*
X222250000Y-132080000D03*
D35*
X149860000Y-113030000D03*
X149860000Y-130810000D03*
X191770000Y-123190000D03*
X192899999Y-124319999D03*
X148590000Y-101600000D03*
X147320000Y-100330000D03*
X146050000Y-98859979D03*
D36*
X185420000Y-144780000D02*
X191770000Y-144780000D01*
D37*
X176530000Y-146050000D02*
X171450000Y-146050000D01*
X171450000Y-146050000D02*
X166370000Y-151130000D01*
X166370000Y-151130000D02*
X154940000Y-151130000D01*
X149860000Y-146050000D02*
X144910000Y-146050000D01*
X154940000Y-151130000D02*
X149860000Y-146050000D01*
D36*
X173990000Y-156210000D02*
X176530000Y-156210000D01*
X140240000Y-36830000D02*
X140820000Y-36250000D01*
X137120000Y-36830000D02*
X140240000Y-36830000D01*
X134620000Y-73660000D02*
X139700000Y-73660000D01*
X144780000Y-68580000D02*
X149860000Y-68580000D01*
X139700000Y-73660000D02*
X144780000Y-68580000D01*
X165140000Y-68540000D02*
X165140000Y-52070000D01*
X162560000Y-71120000D02*
X165140000Y-68540000D01*
X165140000Y-52070000D02*
X165140000Y-41950000D01*
X159440000Y-36250000D02*
X147320000Y-36250000D01*
X165140000Y-41950000D02*
X159440000Y-36250000D01*
X162560000Y-93980000D02*
X165100000Y-91440000D01*
X119380000Y-68580000D02*
X121920000Y-68580000D01*
X109220000Y-35560000D02*
X113030000Y-35560000D01*
X113030000Y-35560000D02*
X116840000Y-39370000D01*
X116840000Y-44410000D02*
X114300000Y-46950000D01*
X116840000Y-39370000D02*
X116840000Y-44410000D01*
X154900000Y-68580000D02*
X154940000Y-68540000D01*
X149860000Y-68580000D02*
X154900000Y-68580000D01*
D38*
X160020000Y-83820000D02*
X160020000Y-85090000D01*
X160020000Y-85090000D02*
X165100000Y-85090000D01*
X162560000Y-83820000D02*
X160020000Y-83820000D01*
D36*
X165100000Y-91440000D02*
X165100000Y-85090000D01*
X165100000Y-85090000D02*
X165100000Y-74930000D01*
D37*
X144910000Y-161290000D02*
X152400000Y-161290000D01*
X152400000Y-161290000D02*
X157480000Y-156210000D01*
X157480000Y-156210000D02*
X176530000Y-156210000D01*
X176530000Y-148590000D02*
X173990000Y-151130000D01*
X173990000Y-151130000D02*
X173990000Y-156210000D01*
D36*
X121920000Y-105410000D02*
X124460000Y-105410000D01*
X152400000Y-66040000D02*
X149860000Y-66040000D01*
X143510000Y-66040000D02*
X149860000Y-66040000D01*
X138430000Y-71120000D02*
X143510000Y-66040000D01*
X167640000Y-53340000D02*
X170180000Y-55880000D01*
X167640000Y-52070000D02*
X167640000Y-53340000D01*
X167600000Y-58460000D02*
X170180000Y-55880000D01*
X134620000Y-71120000D02*
X137160000Y-71120000D01*
X137160000Y-71120000D02*
X138430000Y-71120000D01*
X137160000Y-40640000D02*
X137160000Y-43180000D01*
X137160000Y-43180000D02*
X137160000Y-71120000D01*
X137160000Y-39437919D02*
X137160000Y-40640000D01*
X136012082Y-38290001D02*
X137160000Y-39437919D01*
X122110001Y-38290001D02*
X136012082Y-38290001D01*
X119380000Y-45720000D02*
X119380000Y-40640000D01*
X119760002Y-40640000D02*
X122110001Y-38290001D01*
X119380000Y-40640000D02*
X119760002Y-40640000D01*
X167449999Y-72580001D02*
X167600000Y-72430000D01*
X158940001Y-72580001D02*
X167449999Y-72580001D01*
X167600000Y-74930000D02*
X167600000Y-72430000D01*
X167600000Y-72430000D02*
X167600000Y-58460000D01*
X196850000Y-142240000D02*
X196850000Y-141803751D01*
X214193751Y-124460000D02*
X218440000Y-124460000D01*
X196850000Y-141803751D02*
X214193751Y-124460000D01*
X111760000Y-44450000D02*
X110490000Y-44450000D01*
X109220000Y-45720000D02*
X109220000Y-81280000D01*
X110490000Y-44450000D02*
X109220000Y-45720000D01*
X152400000Y-66040000D02*
X154940000Y-66040000D01*
X158940001Y-72580001D02*
X157480000Y-71120000D01*
X157480000Y-71120000D02*
X157480000Y-67310000D01*
X157480000Y-67310000D02*
X156210000Y-66040000D01*
X156210000Y-66040000D02*
X154940000Y-66040000D01*
D37*
X135890000Y-148590000D02*
X142240000Y-142240000D01*
X142240000Y-142240000D02*
X196850000Y-142240000D01*
X196850000Y-141803751D02*
X196850000Y-144780000D01*
D39*
X192895787Y-81280000D02*
X194310000Y-81280000D01*
X171450000Y-100330000D02*
X175260000Y-96520000D01*
X99060000Y-105410000D02*
X104199998Y-110549998D01*
X104199998Y-110549998D02*
X104199998Y-111070800D01*
X105499187Y-112369989D02*
X148051207Y-112369989D01*
X175260000Y-86360000D02*
X177800000Y-83820000D01*
X175260000Y-96520000D02*
X175260000Y-86360000D01*
X190355787Y-83820000D02*
X192895787Y-81280000D01*
X161290000Y-100330000D02*
X171450000Y-100330000D01*
X149400002Y-112219998D02*
X161290000Y-100330000D01*
X148051207Y-112369989D02*
X148201198Y-112219998D01*
X148201198Y-112219998D02*
X149400002Y-112219998D01*
X104199998Y-111070800D02*
X105499187Y-112369989D01*
X177800000Y-83820000D02*
X190355787Y-83820000D01*
X103539988Y-111159988D02*
X100330000Y-107950000D01*
X103539989Y-111344187D02*
X103539988Y-111159988D01*
X148590000Y-114300000D02*
X106495802Y-114300000D01*
X106495802Y-114300000D02*
X103539989Y-111344187D01*
X148590000Y-114300000D02*
X149860000Y-113030000D01*
X179819198Y-130810000D02*
X149860000Y-130810000D01*
X192899999Y-132220001D02*
X181229199Y-132220001D01*
X194310000Y-130810000D02*
X192899999Y-132220001D01*
X181229199Y-132220001D02*
X179819198Y-130810000D01*
X100330000Y-107950000D02*
X99060000Y-107950000D01*
X194310000Y-106045000D02*
X192239988Y-108115012D01*
X192239988Y-108115012D02*
X192239988Y-117640012D01*
X139119199Y-120709999D02*
X136639198Y-123190000D01*
X147900801Y-120709999D02*
X139119199Y-120709999D01*
X188100001Y-121779999D02*
X148970801Y-121779999D01*
X148970801Y-121779999D02*
X147900801Y-120709999D01*
X192239988Y-117640012D02*
X188100001Y-121779999D01*
X104889198Y-123190000D02*
X97790000Y-116090802D01*
X136639198Y-123190000D02*
X104889198Y-123190000D01*
X97790000Y-111760000D02*
X99060000Y-110490000D01*
X97790000Y-116090802D02*
X97790000Y-111760000D01*
X99060000Y-113030000D02*
X101650021Y-115620021D01*
X149078582Y-115620020D02*
X151668602Y-113030000D01*
X148539980Y-115620020D02*
X149078582Y-115620020D01*
X101650021Y-115620021D02*
X148539980Y-115620020D01*
X148539980Y-115620020D02*
X149136772Y-115620020D01*
X151668602Y-113030000D02*
X154940000Y-113030000D01*
X182210012Y-108619988D02*
X159350012Y-108619988D01*
X184150000Y-91931408D02*
X184150000Y-106680000D01*
X159350012Y-108619988D02*
X154940000Y-113030000D01*
X184150000Y-106680000D02*
X182210012Y-108619988D01*
X193391405Y-82690002D02*
X193004780Y-83076628D01*
X194986801Y-82690001D02*
X193391405Y-82690002D01*
X193840012Y-71589988D02*
X193359814Y-71589988D01*
X195126802Y-82550000D02*
X194986801Y-82690001D01*
X193359814Y-71589988D02*
X192239988Y-72709814D01*
X195720001Y-69709999D02*
X193840012Y-71589988D01*
X194310000Y-55880000D02*
X195720001Y-57290001D01*
X195720001Y-80603199D02*
X195720001Y-82409999D01*
X195720001Y-57290001D02*
X195720001Y-69709999D01*
X192239988Y-72709814D02*
X192239988Y-77123186D01*
X193004780Y-83076628D02*
X184150000Y-91931408D01*
X195720001Y-82409999D02*
X195580000Y-82550000D01*
X192239988Y-77123186D02*
X195720001Y-80603199D01*
X195580000Y-82550000D02*
X195126802Y-82550000D01*
X150749199Y-125870001D02*
X157339999Y-125870001D01*
X96520000Y-124460000D02*
X149339198Y-124460000D01*
X149339198Y-124460000D02*
X150749199Y-125870001D01*
X161883199Y-125870001D02*
X189089999Y-125870001D01*
X161743198Y-125730000D02*
X161883199Y-125870001D01*
X157339999Y-125870001D02*
X157480000Y-125730000D01*
X157480000Y-125730000D02*
X161743198Y-125730000D01*
X189089999Y-125870001D02*
X190359999Y-125870001D01*
X190359999Y-125870001D02*
X191770000Y-124460000D01*
X191770000Y-124460000D02*
X191770000Y-123190000D01*
X192899999Y-124600001D02*
X192899999Y-124319999D01*
X190969989Y-126530011D02*
X192899999Y-124600001D01*
X150475813Y-126530011D02*
X190969989Y-126530011D01*
X99060000Y-125730000D02*
X149675802Y-125730000D01*
X149675802Y-125730000D02*
X150475813Y-126530011D01*
X191770000Y-93798198D02*
X191770000Y-88265000D01*
X196033198Y-106680000D02*
X196033198Y-98061396D01*
X192396780Y-127190022D02*
X195720001Y-123866801D01*
X191770000Y-88265000D02*
X194310000Y-85725000D01*
X196033198Y-98061396D02*
X191770000Y-93798198D01*
X192899999Y-109813199D02*
X196033198Y-106680000D01*
X195720001Y-122513199D02*
X192899999Y-119693197D01*
X150012406Y-127000000D02*
X150202428Y-127190022D01*
X195720001Y-123866801D02*
X195720001Y-122513199D01*
X96520000Y-127000000D02*
X150012406Y-127000000D01*
X150202428Y-127190022D02*
X192396780Y-127190022D01*
X192899999Y-119693197D02*
X192899999Y-109813199D01*
X194310000Y-120169802D02*
X196380012Y-122239814D01*
X99479969Y-127850031D02*
X99060000Y-128270000D01*
X196380012Y-124593384D02*
X193123365Y-127850031D01*
X194310000Y-118110000D02*
X194310000Y-120169802D01*
X196380012Y-122239814D02*
X196380012Y-124593384D01*
X193123365Y-127850031D02*
X99479969Y-127850031D01*
X195446616Y-128739988D02*
X105347814Y-128739988D01*
X197040022Y-127146582D02*
X195446616Y-128739988D01*
X105347814Y-128739988D02*
X104547802Y-129540000D01*
X194310000Y-110490000D02*
X196900020Y-113080020D01*
X104547802Y-129540000D02*
X97580660Y-129540000D01*
X97580660Y-129540000D02*
X96520000Y-129540000D01*
X197040022Y-121966428D02*
X197040022Y-127146582D01*
X196900020Y-121826426D02*
X197040022Y-121966428D01*
X196900020Y-113080020D02*
X196900020Y-121826426D01*
X195720001Y-129399999D02*
X197700033Y-127419967D01*
X104211198Y-130810000D02*
X105621199Y-129399999D01*
X99060000Y-130810000D02*
X104211198Y-130810000D01*
X105621199Y-129399999D02*
X195720001Y-129399999D01*
X197700033Y-127419967D02*
X197700033Y-121693043D01*
X197700033Y-121693043D02*
X197560031Y-121553041D01*
X197560031Y-121553041D02*
X197560031Y-96595031D01*
X197560031Y-96595031D02*
X195309999Y-94344999D01*
X195309999Y-94344999D02*
X194310000Y-93345000D01*
X120986604Y-132080000D02*
X96520000Y-132080000D01*
X194310000Y-36195000D02*
X196215000Y-36195000D01*
X200800001Y-40780001D02*
X200800001Y-126859999D01*
X196215000Y-36195000D02*
X200800001Y-40780001D01*
X170041398Y-133350000D02*
X168771398Y-132080000D01*
X200800001Y-126859999D02*
X194310000Y-133350000D01*
X194310000Y-133350000D02*
X170041398Y-133350000D01*
X168771398Y-132080000D02*
X120986604Y-132080000D01*
X191770000Y-41275000D02*
X194310000Y-43815000D01*
X193040000Y-33020000D02*
X191770000Y-34290000D01*
X100420661Y-133049999D02*
X168808001Y-133049999D01*
X169768012Y-134010010D02*
X200669987Y-134010011D01*
X200669987Y-134010011D02*
X202599998Y-132080000D01*
X168808001Y-133049999D02*
X169768012Y-134010010D01*
X100120660Y-133350000D02*
X100420661Y-133049999D01*
X99060000Y-133350000D02*
X100120660Y-133350000D01*
X202599998Y-36229998D02*
X199390000Y-33020000D01*
X202599998Y-132080000D02*
X202599998Y-36229998D01*
X199390000Y-33020000D02*
X193040000Y-33020000D01*
X191770000Y-34290000D02*
X191770000Y-41275000D01*
X125730000Y-53340000D02*
X123190000Y-50800000D01*
X123190000Y-50800000D02*
X123141314Y-50800000D01*
X130665802Y-77470000D02*
X125730000Y-72534198D01*
X143510000Y-77470000D02*
X130665802Y-77470000D01*
X149860000Y-83820000D02*
X143510000Y-77470000D01*
X123141314Y-50800000D02*
X121920000Y-50800000D01*
X125730000Y-72534198D02*
X125730000Y-53340000D01*
X121923601Y-48263601D02*
X121920000Y-48260000D01*
X123193601Y-48263601D02*
X121923601Y-48263601D01*
X127000000Y-71120000D02*
X127000000Y-52070000D01*
X149860000Y-81280000D02*
X143510000Y-74930000D01*
X127000000Y-52070000D02*
X123193601Y-48263601D01*
X129059198Y-74930000D02*
X143510000Y-74930000D01*
X128329999Y-74200801D02*
X129059198Y-74930000D01*
X128329999Y-72449999D02*
X127000000Y-71120000D01*
X128329999Y-74200801D02*
X128329999Y-72449999D01*
X101640000Y-81320000D02*
X106680000Y-86360000D01*
X106680000Y-86360000D02*
X132080000Y-86360000D01*
X148649999Y-87689999D02*
X149860000Y-88900000D01*
X133409999Y-87689999D02*
X148649999Y-87689999D01*
X132080000Y-86360000D02*
X133409999Y-87689999D01*
X101640000Y-81320000D02*
X97028000Y-81320000D01*
X101649999Y-80059999D02*
X106680000Y-85090000D01*
X148590000Y-85090000D02*
X149860000Y-86360000D01*
X106680000Y-85090000D02*
X148590000Y-85090000D01*
X96288001Y-80059999D02*
X95028000Y-81320000D01*
X101649999Y-80059999D02*
X96288001Y-80059999D01*
X231875001Y-162675001D02*
X226910002Y-167640000D01*
X219710000Y-167640000D02*
X218440000Y-168910000D01*
X226910002Y-167640000D02*
X219710000Y-167640000D01*
X226795001Y-162675001D02*
X224370002Y-165100000D01*
X219710000Y-165100000D02*
X215900000Y-168910000D01*
X224370002Y-165100000D02*
X219710000Y-165100000D01*
X189140019Y-124600001D02*
X191550019Y-122190001D01*
X175736605Y-124600001D02*
X189140019Y-124600001D01*
X191550019Y-122190001D02*
X193310001Y-122190001D01*
X147320000Y-121920000D02*
X148119999Y-122719999D01*
X193310001Y-122190001D02*
X194310000Y-123190000D01*
X173856603Y-122719999D02*
X175736605Y-124600001D01*
X148119999Y-122719999D02*
X173856603Y-122719999D01*
X184423386Y-119989990D02*
X137820010Y-119989990D01*
X191579977Y-116891421D02*
X188291386Y-120180012D01*
X184613408Y-120180012D02*
X184423386Y-119989990D01*
X194310000Y-98425000D02*
X191579977Y-101155023D01*
X188291386Y-120180012D02*
X184613408Y-120180012D01*
X191579977Y-101155023D02*
X191579977Y-116891421D01*
X136689999Y-121120001D02*
X135890000Y-121920000D01*
X137820010Y-119989990D02*
X136689999Y-121120001D01*
X194310000Y-73660000D02*
X197040023Y-76390023D01*
X193938175Y-84010023D02*
X190500000Y-87448198D01*
X190500000Y-117038002D02*
X188018001Y-119520001D01*
X188018001Y-119520001D02*
X184886793Y-119520001D01*
X184886793Y-119520001D02*
X184696772Y-119329980D01*
X127050020Y-119329980D02*
X125259999Y-121120001D01*
X125259999Y-121120001D02*
X124460000Y-121920000D01*
X184696772Y-119329980D02*
X127050020Y-119329980D01*
X197040023Y-82956769D02*
X195986769Y-84010023D01*
X197040023Y-76390023D02*
X197040023Y-82956769D01*
X195986769Y-84010023D02*
X193938175Y-84010023D01*
X190500000Y-87448198D02*
X190500000Y-117038002D01*
X195713384Y-83350012D02*
X196380012Y-82683384D01*
X182683397Y-109079999D02*
X188100001Y-109079999D01*
X188100001Y-109079999D02*
X188100001Y-88914801D01*
X196380012Y-77816814D02*
X192899999Y-74336801D01*
X162500001Y-109279999D02*
X182483397Y-109279999D01*
X193664790Y-83350012D02*
X195713384Y-83350012D01*
X196380012Y-69983440D02*
X196380012Y-50330012D01*
X194113453Y-72249999D02*
X196380012Y-69983440D01*
X192899999Y-74336801D02*
X192899999Y-72983199D01*
X114300000Y-118370188D02*
X116390156Y-116280032D01*
X196380012Y-50330012D02*
X194310000Y-48260000D01*
X156350001Y-115429999D02*
X162500001Y-109279999D01*
X193633199Y-72249999D02*
X194113453Y-72249999D01*
X149410157Y-116280031D02*
X150260189Y-115429999D01*
X114300000Y-120650000D02*
X114300000Y-118370188D01*
X196380012Y-82683384D02*
X196380012Y-77816814D01*
X192899999Y-72983199D02*
X193633199Y-72249999D01*
X116390156Y-116280032D02*
X149410157Y-116280031D01*
X182483397Y-109279999D02*
X182683397Y-109079999D01*
X188100001Y-88914801D02*
X193664790Y-83350012D01*
X150260189Y-115429999D02*
X156350001Y-115429999D01*
X113030000Y-121920000D02*
X114300000Y-120650000D01*
D38*
X158389989Y-85450011D02*
X158389989Y-82910011D01*
X158389989Y-82910011D02*
X162560000Y-78740000D01*
X134620000Y-91440000D02*
X135680001Y-90379999D01*
X153460001Y-90379999D02*
X158389989Y-85450011D01*
X135680001Y-90379999D02*
X153460001Y-90379999D01*
D36*
X206480000Y-154940000D02*
X204575000Y-156845000D01*
X208280000Y-154940000D02*
X206480000Y-154940000D01*
X204575000Y-156845000D02*
X194310000Y-156845000D01*
X194310000Y-156845000D02*
X193040000Y-155575000D01*
X193040000Y-155575000D02*
X193040000Y-149225000D01*
X193040000Y-149225000D02*
X194310000Y-147955000D01*
X194310000Y-147955000D02*
X194310000Y-144780000D01*
X181610000Y-110490000D02*
X163830000Y-110490000D01*
X157480000Y-116840000D02*
X154940000Y-116840000D01*
X163830000Y-110490000D02*
X157480000Y-116840000D01*
X225425000Y-128905000D02*
X222250000Y-132080000D01*
X233045000Y-128905000D02*
X225425000Y-128905000D01*
X230875002Y-154055002D02*
X231875001Y-155055001D01*
X228815001Y-151995001D02*
X230875002Y-154055002D01*
X197675001Y-151995001D02*
X228815001Y-151995001D01*
X196850000Y-151170000D02*
X197675001Y-151995001D01*
X231875001Y-142675001D02*
X228900000Y-139700000D01*
X228900000Y-139700000D02*
X213360000Y-139700000D01*
X210820000Y-137160000D02*
X204470000Y-137160000D01*
X213360000Y-139700000D02*
X210820000Y-137160000D01*
D40*
X120746399Y-64866399D02*
X119380000Y-63500000D01*
X123236379Y-64866399D02*
X120746399Y-64866399D01*
X125069990Y-66700010D02*
X123236379Y-64866399D01*
D39*
X134620000Y-78740000D02*
X131002406Y-78740000D01*
X125069990Y-72807584D02*
X125069990Y-66700010D01*
X131002406Y-78740000D02*
X125069990Y-72807584D01*
X134620000Y-83820000D02*
X124409980Y-73609980D01*
X124409980Y-73609980D02*
X124409980Y-68529980D01*
X124409980Y-68529980D02*
X121920000Y-66040000D01*
X170180000Y-91440000D02*
X167640000Y-91440000D01*
X167640000Y-91440000D02*
X163830000Y-95250000D01*
X163830000Y-95250000D02*
X138430000Y-95250000D01*
X137160000Y-93980000D02*
X134620000Y-93980000D01*
X138430000Y-95250000D02*
X137160000Y-93980000D01*
X129540000Y-104140000D02*
X129540000Y-105410000D01*
X144780000Y-100330000D02*
X133350000Y-100330000D01*
X148590000Y-101600000D02*
X146050000Y-101600000D01*
X133350000Y-100330000D02*
X129540000Y-104140000D01*
X146050000Y-101600000D02*
X144780000Y-100330000D01*
X146659989Y-99669989D02*
X147320000Y-100330000D01*
X133076615Y-99669989D02*
X146659989Y-99669989D01*
X132416604Y-100330000D02*
X133076615Y-99669989D01*
X124460000Y-100330000D02*
X132416604Y-100330000D01*
X119380000Y-105410000D02*
X124460000Y-100330000D01*
X121280011Y-99669989D02*
X132143219Y-99669989D01*
X116840000Y-104110000D02*
X121280011Y-99669989D01*
X132803228Y-99009980D02*
X145899999Y-99009980D01*
X132143219Y-99669989D02*
X132803228Y-99009980D01*
X116840000Y-105410000D02*
X116840000Y-104110000D01*
X145899999Y-99009980D02*
X146050000Y-98859979D01*
M02*
