G04 #@! TF.GenerationSoftware,KiCad,Pcbnew,8.0.1*
G04 #@! TF.CreationDate,2024-03-24T02:00:16-07:00*
G04 #@! TF.ProjectId,1d_coinctrl,31645f63-6f69-46e6-9374-726c2e6b6963,4*
G04 #@! TF.SameCoordinates,Original*
G04 #@! TF.FileFunction,Copper,L2,Bot*
G04 #@! TF.FilePolarity,Positive*
%FSLAX46Y46*%
G04 Gerber Fmt 4.6, Leading zero omitted, Abs format (unit mm)*
G04 Created by KiCad (PCBNEW 8.0.1) date 2024-03-24 02:00:16*
%MOMM*%
%LPD*%
G01*
G04 APERTURE LIST*
G04 Aperture macros list*
%AMRoundRect*
0 Rectangle with rounded corners*
0 $1 Rounding radius*
0 $2 $3 $4 $5 $6 $7 $8 $9 X,Y pos of 4 corners*
0 Add a 4 corners polygon primitive as box body*
4,1,4,$2,$3,$4,$5,$6,$7,$8,$9,$2,$3,0*
0 Add four circle primitives for the rounded corners*
1,1,$1+$1,$2,$3*
1,1,$1+$1,$4,$5*
1,1,$1+$1,$6,$7*
1,1,$1+$1,$8,$9*
0 Add four rect primitives between the rounded corners*
20,1,$1+$1,$2,$3,$4,$5,0*
20,1,$1+$1,$4,$5,$6,$7,0*
20,1,$1+$1,$6,$7,$8,$9,0*
20,1,$1+$1,$8,$9,$2,$3,0*%
G04 Aperture macros list end*
G04 #@! TA.AperFunction,ComponentPad*
%ADD10C,1.600000*%
G04 #@! TD*
G04 #@! TA.AperFunction,ComponentPad*
%ADD11R,1.600000X1.600000*%
G04 #@! TD*
G04 #@! TA.AperFunction,ComponentPad*
%ADD12O,1.600000X1.600000*%
G04 #@! TD*
G04 #@! TA.AperFunction,ComponentPad*
%ADD13R,1.800000X1.800000*%
G04 #@! TD*
G04 #@! TA.AperFunction,ComponentPad*
%ADD14C,1.800000*%
G04 #@! TD*
G04 #@! TA.AperFunction,ComponentPad*
%ADD15R,1.500000X1.500000*%
G04 #@! TD*
G04 #@! TA.AperFunction,ComponentPad*
%ADD16C,1.500000*%
G04 #@! TD*
G04 #@! TA.AperFunction,ComponentPad*
%ADD17R,1.700000X1.700000*%
G04 #@! TD*
G04 #@! TA.AperFunction,ComponentPad*
%ADD18O,1.700000X1.700000*%
G04 #@! TD*
G04 #@! TA.AperFunction,ComponentPad*
%ADD19R,1.400000X1.400000*%
G04 #@! TD*
G04 #@! TA.AperFunction,ComponentPad*
%ADD20C,1.400000*%
G04 #@! TD*
G04 #@! TA.AperFunction,ComponentPad*
%ADD21C,1.220000*%
G04 #@! TD*
G04 #@! TA.AperFunction,ComponentPad*
%ADD22C,2.400000*%
G04 #@! TD*
G04 #@! TA.AperFunction,ComponentPad*
%ADD23O,2.400000X2.400000*%
G04 #@! TD*
G04 #@! TA.AperFunction,ComponentPad*
%ADD24C,1.440000*%
G04 #@! TD*
G04 #@! TA.AperFunction,ComponentPad*
%ADD25C,2.000000*%
G04 #@! TD*
G04 #@! TA.AperFunction,ComponentPad*
%ADD26R,1.508000X1.508000*%
G04 #@! TD*
G04 #@! TA.AperFunction,ComponentPad*
%ADD27C,1.508000*%
G04 #@! TD*
G04 #@! TA.AperFunction,ComponentPad*
%ADD28R,2.400000X2.400000*%
G04 #@! TD*
G04 #@! TA.AperFunction,ComponentPad*
%ADD29C,4.000000*%
G04 #@! TD*
G04 #@! TA.AperFunction,ComponentPad*
%ADD30C,7.400000*%
G04 #@! TD*
G04 #@! TA.AperFunction,ComponentPad*
%ADD31R,3.500000X3.500000*%
G04 #@! TD*
G04 #@! TA.AperFunction,ComponentPad*
%ADD32RoundRect,0.750000X-0.750000X-1.000000X0.750000X-1.000000X0.750000X1.000000X-0.750000X1.000000X0*%
G04 #@! TD*
G04 #@! TA.AperFunction,ComponentPad*
%ADD33RoundRect,0.875000X-0.875000X-0.875000X0.875000X-0.875000X0.875000X0.875000X-0.875000X0.875000X0*%
G04 #@! TD*
G04 #@! TA.AperFunction,ComponentPad*
%ADD34R,2.550000X2.550000*%
G04 #@! TD*
G04 #@! TA.AperFunction,ComponentPad*
%ADD35C,2.550000*%
G04 #@! TD*
G04 #@! TA.AperFunction,ViaPad*
%ADD36C,0.800000*%
G04 #@! TD*
G04 #@! TA.AperFunction,Conductor*
%ADD37C,2.000000*%
G04 #@! TD*
G04 #@! TA.AperFunction,Conductor*
%ADD38C,1.000000*%
G04 #@! TD*
G04 #@! TA.AperFunction,Conductor*
%ADD39C,0.200000*%
G04 #@! TD*
G04 #@! TA.AperFunction,Conductor*
%ADD40C,0.500000*%
G04 #@! TD*
G04 #@! TA.AperFunction,Profile*
%ADD41C,0.050000*%
G04 #@! TD*
G04 APERTURE END LIST*
D10*
X157514988Y-138395012D03*
X157514988Y-143395012D03*
D11*
X139734988Y-128235012D03*
D10*
X136234988Y-128235012D03*
X88265000Y-152360000D03*
X88265000Y-147360000D03*
X104174988Y-142205012D03*
X104174988Y-147205012D03*
X111760000Y-76200000D03*
X114260000Y-76200000D03*
X120650000Y-59690000D03*
X120650000Y-57190000D03*
X107984988Y-142205012D03*
X107984988Y-144705012D03*
X139734988Y-45685012D03*
X137234988Y-45685012D03*
D11*
X123224988Y-110455012D03*
D12*
X123224988Y-118075012D03*
D11*
X180374988Y-148555012D03*
D12*
X180374988Y-156175012D03*
D11*
X153704988Y-116805012D03*
D12*
X153704988Y-124425012D03*
D11*
X153704988Y-67275012D03*
D12*
X153704988Y-74895012D03*
D11*
X153704988Y-104105012D03*
D12*
X153704988Y-111725012D03*
D11*
X153704988Y-54575012D03*
D12*
X153704988Y-62195012D03*
D11*
X153704988Y-92040012D03*
D12*
X153704988Y-99660012D03*
D11*
X153704988Y-41875012D03*
D12*
X153704988Y-49495012D03*
D11*
X153704988Y-79340012D03*
D12*
X153704988Y-86960012D03*
D11*
X153704988Y-29810012D03*
D12*
X153704988Y-37430012D03*
D13*
X210854988Y-147285012D03*
D14*
X210854988Y-149825012D03*
D15*
X67818000Y-97755012D03*
D16*
X70358000Y-99025012D03*
X67818000Y-100295012D03*
X70358000Y-101565012D03*
X67818000Y-102835012D03*
X70358000Y-104105012D03*
X67818000Y-105375012D03*
X70358000Y-106645012D03*
D17*
X163864988Y-138395012D03*
D18*
X166404988Y-138395012D03*
X168944988Y-138395012D03*
D15*
X67818000Y-118075012D03*
D16*
X70358000Y-119345012D03*
X67818000Y-120615012D03*
X70358000Y-121885012D03*
X67818000Y-123155012D03*
X70358000Y-124425012D03*
X67818000Y-125695012D03*
X70358000Y-126965012D03*
D19*
X186055000Y-156210000D03*
D20*
X193675000Y-156210000D03*
X198755000Y-156210000D03*
X203835000Y-156210000D03*
X203835000Y-148590000D03*
X198755000Y-148590000D03*
X193675000Y-148590000D03*
X186055000Y-148590000D03*
D19*
X186055000Y-144145000D03*
D20*
X193675000Y-144145000D03*
X198755000Y-144145000D03*
X203835000Y-144145000D03*
X203835000Y-136525000D03*
X198755000Y-136525000D03*
X193675000Y-136525000D03*
X186055000Y-136525000D03*
D19*
X158750000Y-111760000D03*
D20*
X166370000Y-111760000D03*
X171450000Y-111760000D03*
X176530000Y-111760000D03*
X176530000Y-104140000D03*
X171450000Y-104140000D03*
X166370000Y-104140000D03*
X158750000Y-104140000D03*
D19*
X158750000Y-99695000D03*
D20*
X166370000Y-99695000D03*
X171450000Y-99695000D03*
X176530000Y-99695000D03*
X176530000Y-92075000D03*
X171450000Y-92075000D03*
X166370000Y-92075000D03*
X158750000Y-92075000D03*
D19*
X158750000Y-86995000D03*
D20*
X166370000Y-86995000D03*
X171450000Y-86995000D03*
X176530000Y-86995000D03*
X176530000Y-79375000D03*
X171450000Y-79375000D03*
X166370000Y-79375000D03*
X158750000Y-79375000D03*
D19*
X158750000Y-74930000D03*
D20*
X166370000Y-74930000D03*
X171450000Y-74930000D03*
X176530000Y-74930000D03*
X176530000Y-67310000D03*
X171450000Y-67310000D03*
X166370000Y-67310000D03*
X158750000Y-67310000D03*
D19*
X158750000Y-49530000D03*
D20*
X166370000Y-49530000D03*
X171450000Y-49530000D03*
X176530000Y-49530000D03*
X176530000Y-41910000D03*
X171450000Y-41910000D03*
X166370000Y-41910000D03*
X158750000Y-41910000D03*
D19*
X158782500Y-37417500D03*
D20*
X166402500Y-37417500D03*
X171482500Y-37417500D03*
X176562500Y-37417500D03*
X176562500Y-29797500D03*
X171482500Y-29797500D03*
X166402500Y-29797500D03*
X158782500Y-29797500D03*
D19*
X127000000Y-118110000D03*
D20*
X134620000Y-118110000D03*
X139700000Y-118110000D03*
X144780000Y-118110000D03*
X144780000Y-110490000D03*
X139700000Y-110490000D03*
X134620000Y-110490000D03*
X127000000Y-110490000D03*
D21*
X114464988Y-154940000D03*
X117004988Y-154940000D03*
X129704988Y-154940000D03*
X132244988Y-154940000D03*
X134784988Y-154940000D03*
X139864988Y-154940000D03*
X139864988Y-139700000D03*
X134784988Y-139700000D03*
X132244988Y-139700000D03*
X129704988Y-139700000D03*
X117004988Y-139700000D03*
X114464988Y-139700000D03*
D22*
X176564988Y-130775012D03*
D23*
X146084988Y-130775012D03*
D10*
X128270000Y-88900000D03*
D12*
X128270000Y-81280000D03*
D22*
X184184988Y-74895012D03*
D23*
X184184988Y-54575012D03*
D22*
X184184988Y-99660012D03*
D23*
X184184988Y-79340012D03*
D22*
X184184988Y-49495012D03*
D23*
X184184988Y-29175012D03*
D24*
X134605000Y-159430000D03*
X132065000Y-161970000D03*
X129525000Y-159430000D03*
D10*
X198154988Y-118075012D03*
D12*
X190534988Y-118075012D03*
D25*
X118035000Y-81570000D03*
X124535000Y-81570000D03*
X118035000Y-86070000D03*
X124535000Y-86070000D03*
D17*
X148624988Y-139665012D03*
D18*
X148624988Y-142205012D03*
X148624988Y-147285012D03*
X148624988Y-149825012D03*
X148624988Y-152365012D03*
D26*
X93980000Y-149860000D03*
D27*
X93980000Y-147320000D03*
X93980000Y-144780000D03*
D11*
X134654988Y-72355012D03*
D12*
X134654988Y-74895012D03*
X134654988Y-77435012D03*
X134654988Y-79975012D03*
X134654988Y-82515012D03*
X134654988Y-85055012D03*
X134654988Y-87595012D03*
X142274988Y-87595012D03*
X142274988Y-85055012D03*
X142274988Y-82515012D03*
X142274988Y-79975012D03*
X142274988Y-77435012D03*
X142274988Y-74895012D03*
X142274988Y-72355012D03*
D11*
X134654988Y-49495012D03*
D12*
X134654988Y-52035012D03*
X134654988Y-54575012D03*
X134654988Y-57115012D03*
X134654988Y-59655012D03*
X134654988Y-62195012D03*
X134654988Y-64735012D03*
X142274988Y-64735012D03*
X142274988Y-62195012D03*
X142274988Y-59655012D03*
X142274988Y-57115012D03*
X142274988Y-54575012D03*
X142274988Y-52035012D03*
X142274988Y-49495012D03*
D10*
X139694988Y-68545012D03*
X137194988Y-68545012D03*
D19*
X158750000Y-124412500D03*
D20*
X166370000Y-124412500D03*
X171450000Y-124412500D03*
X176530000Y-124412500D03*
X176530000Y-116792500D03*
X171450000Y-116792500D03*
X166370000Y-116792500D03*
X158750000Y-116792500D03*
D11*
X168944988Y-156175012D03*
D10*
X168944988Y-153675012D03*
D11*
X168944988Y-147285012D03*
D10*
X168944988Y-144785012D03*
D28*
X78774988Y-152285012D03*
D22*
X78774988Y-147285012D03*
D10*
X162594988Y-147285012D03*
D12*
X152434988Y-147285012D03*
D10*
X162594988Y-152365012D03*
D12*
X152434988Y-152365012D03*
D13*
X210820000Y-93980000D03*
D14*
X210820000Y-96520000D03*
D19*
X158750000Y-62230000D03*
D20*
X166370000Y-62230000D03*
X171450000Y-62230000D03*
X176530000Y-62230000D03*
X176530000Y-54610000D03*
X171450000Y-54610000D03*
X166370000Y-54610000D03*
X158750000Y-54610000D03*
D11*
X180374988Y-136490012D03*
D12*
X180374988Y-144110012D03*
D10*
X190500000Y-96520000D03*
D12*
X198120000Y-96520000D03*
D10*
X73694988Y-40605012D03*
X73694988Y-43105012D03*
X73694988Y-45685012D03*
X73694988Y-48185012D03*
X83854988Y-34890012D03*
X81354988Y-34890012D03*
X73694988Y-50805012D03*
X73694988Y-53305012D03*
D29*
X65416988Y-35265012D03*
X65416988Y-60265012D03*
D11*
X66836988Y-53305012D03*
D10*
X66836988Y-50535012D03*
X66836988Y-47765012D03*
X66836988Y-44995012D03*
X66836988Y-42225012D03*
X63996988Y-51920012D03*
X63996988Y-49150012D03*
X63996988Y-46380012D03*
X63996988Y-43610012D03*
X73694988Y-29175012D03*
D12*
X81314988Y-29175012D03*
D11*
X76234988Y-38065012D03*
D12*
X76234988Y-40605012D03*
X76234988Y-43145012D03*
X76234988Y-45685012D03*
X76234988Y-48225012D03*
X76234988Y-50765012D03*
X76234988Y-53305012D03*
X76234988Y-55845012D03*
X83854988Y-55845012D03*
X83854988Y-53305012D03*
X83854988Y-50765012D03*
X83854988Y-48225012D03*
X83854988Y-45685012D03*
X83854988Y-43145012D03*
X83854988Y-40605012D03*
X83854988Y-38065012D03*
D10*
X66074988Y-29175012D03*
X71074988Y-29175012D03*
X205139988Y-132680012D03*
D12*
X205139988Y-122520012D03*
D10*
X86394988Y-38065012D03*
X86394988Y-40565012D03*
D30*
X205740000Y-166370000D03*
X63500000Y-22860000D03*
X205740000Y-21555012D03*
X88900000Y-166370000D03*
D10*
X124460000Y-59690000D03*
X124460000Y-57190000D03*
X111760000Y-79990000D03*
X114260000Y-79990000D03*
D30*
X124494988Y-130775012D03*
D10*
X119414988Y-115535012D03*
D12*
X111794988Y-115535012D03*
D10*
X107984988Y-115535012D03*
D12*
X100364988Y-115535012D03*
D11*
X111794988Y-111725012D03*
D12*
X114334988Y-111725012D03*
X116874988Y-111725012D03*
X119414988Y-111725012D03*
X119414988Y-104105012D03*
X116874988Y-104105012D03*
X114334988Y-104105012D03*
X111794988Y-104105012D03*
D11*
X100364988Y-111725012D03*
D12*
X102904988Y-111725012D03*
X105444988Y-111725012D03*
X107984988Y-111725012D03*
X107984988Y-104105012D03*
X105444988Y-104105012D03*
X102904988Y-104105012D03*
X100364988Y-104105012D03*
D11*
X77504988Y-111725012D03*
D12*
X80044988Y-111725012D03*
X82584988Y-111725012D03*
X85124988Y-111725012D03*
X85124988Y-104105012D03*
X82584988Y-104105012D03*
X80044988Y-104105012D03*
X77504988Y-104105012D03*
D10*
X96554988Y-115535012D03*
D12*
X88934988Y-115535012D03*
D10*
X85124988Y-115535012D03*
D12*
X77504988Y-115535012D03*
D11*
X88934988Y-111725012D03*
D12*
X91474988Y-111725012D03*
X94014988Y-111725012D03*
X96554988Y-111725012D03*
X96554988Y-104105012D03*
X94014988Y-104105012D03*
X91474988Y-104105012D03*
X88934988Y-104105012D03*
D10*
X83219988Y-159985012D03*
D12*
X73059988Y-159985012D03*
D30*
X88900000Y-88900000D03*
D13*
X210820000Y-46980000D03*
D14*
X210820000Y-49520000D03*
X210820000Y-52060000D03*
D22*
X184150000Y-124460000D03*
D23*
X184150000Y-104140000D03*
D13*
X210854988Y-36820000D03*
D14*
X210854988Y-39360000D03*
X210854988Y-41900000D03*
D10*
X198154988Y-59690000D03*
D12*
X190534988Y-59690000D03*
D17*
X90170000Y-53340000D03*
D18*
X92710000Y-53340000D03*
X95250000Y-53340000D03*
D10*
X198120000Y-49530000D03*
D12*
X190500000Y-49530000D03*
D13*
X170180000Y-160523000D03*
D14*
X170180000Y-163063000D03*
D10*
X157480000Y-161544000D03*
D12*
X147320000Y-161544000D03*
D13*
X163576000Y-160528000D03*
D14*
X163576000Y-163068000D03*
D11*
X109220000Y-39370000D03*
D12*
X109220000Y-41910000D03*
X109220000Y-44450000D03*
X109220000Y-46990000D03*
X109220000Y-49530000D03*
X109220000Y-52070000D03*
X109220000Y-54610000D03*
X109220000Y-57150000D03*
X109220000Y-59690000D03*
X109220000Y-62230000D03*
X109220000Y-64770000D03*
X109220000Y-67310000D03*
X109220000Y-69850000D03*
X109220000Y-72390000D03*
X116840000Y-72390000D03*
X116840000Y-69850000D03*
X116840000Y-67310000D03*
X116840000Y-64770000D03*
X116840000Y-62230000D03*
X116840000Y-59690000D03*
X116840000Y-57150000D03*
X116840000Y-54610000D03*
X116840000Y-52070000D03*
X116840000Y-49530000D03*
X116840000Y-46990000D03*
X116840000Y-44450000D03*
X116840000Y-41910000D03*
X116840000Y-39370000D03*
D13*
X210820000Y-57150000D03*
D14*
X210820000Y-59690000D03*
X210820000Y-62230000D03*
D10*
X134620000Y-90805000D03*
D12*
X134620000Y-98425000D03*
D10*
X120035000Y-88900000D03*
X122535000Y-88900000D03*
X198120000Y-69850000D03*
D12*
X190500000Y-69850000D03*
D10*
X144145000Y-158750000D03*
D12*
X144145000Y-166370000D03*
D31*
X68230000Y-159062500D03*
D32*
X62230000Y-159062500D03*
D33*
X65230000Y-163762500D03*
D17*
X90170000Y-48260000D03*
D18*
X92710000Y-48260000D03*
X95250000Y-48260000D03*
D13*
X210820000Y-104140000D03*
D14*
X210820000Y-106680000D03*
D17*
X124460000Y-77470000D03*
D18*
X124460000Y-74930000D03*
X124460000Y-72390000D03*
X124460000Y-69850000D03*
X124460000Y-67310000D03*
X124460000Y-64770000D03*
D13*
X139192000Y-160523000D03*
D14*
X139192000Y-163063000D03*
D17*
X90170000Y-71120000D03*
D18*
X92710000Y-71120000D03*
D34*
X64516000Y-154940000D03*
D35*
X64516000Y-149860000D03*
X64516000Y-144780000D03*
X64516000Y-139700000D03*
D10*
X198120000Y-106680000D03*
D12*
X190500000Y-106680000D03*
D10*
X157480000Y-164592000D03*
D12*
X147320000Y-164592000D03*
D10*
X151384000Y-158496000D03*
D12*
X159004000Y-158496000D03*
D13*
X210854988Y-67310000D03*
D14*
X210854988Y-69850000D03*
X210854988Y-72390000D03*
D10*
X198154988Y-39370000D03*
D12*
X190534988Y-39370000D03*
D11*
X130302000Y-46990000D03*
D12*
X130302000Y-49530000D03*
X130302000Y-52070000D03*
X130302000Y-54610000D03*
X130302000Y-57150000D03*
X130302000Y-59690000D03*
X130302000Y-62230000D03*
X130302000Y-64770000D03*
X130302000Y-67310000D03*
X130302000Y-69850000D03*
X130302000Y-72390000D03*
D17*
X66605000Y-81280000D03*
D18*
X66605000Y-78740000D03*
X66605000Y-76200000D03*
X66605000Y-73660000D03*
X66605000Y-71120000D03*
X66605000Y-68580000D03*
D11*
X191780000Y-123200000D03*
D12*
X191780000Y-125740000D03*
X191780000Y-128280000D03*
X191780000Y-130820000D03*
X199400000Y-130820000D03*
X199400000Y-128280000D03*
X199400000Y-125740000D03*
X199400000Y-123200000D03*
D30*
X63500000Y-88900000D03*
D10*
X151384000Y-155448000D03*
D12*
X159004000Y-155448000D03*
D36*
X121954988Y-124425012D03*
X121954988Y-106645012D03*
X163864988Y-116805012D03*
X164994987Y-117935011D03*
X99060000Y-69850000D03*
X100330000Y-67310000D03*
X102870000Y-62230000D03*
X101600000Y-64770000D03*
X104140000Y-59690000D03*
X105444988Y-57184988D03*
X142240000Y-156210000D03*
X96520000Y-71120000D03*
X113665000Y-53340000D03*
X112395000Y-50165000D03*
X113005000Y-51435000D03*
D37*
X120684988Y-157445012D02*
X118144988Y-159985012D01*
X120684988Y-148555012D02*
X120684988Y-157445012D01*
X117004988Y-144875012D02*
X120684988Y-148555012D01*
X114464988Y-139665012D02*
X117004988Y-139665012D01*
X118144988Y-159985012D02*
X104174988Y-159985012D01*
X88854988Y-152285012D02*
X88934988Y-152365012D01*
X88934988Y-152365012D02*
X91474988Y-152365012D01*
X78774988Y-152285012D02*
X83299988Y-152285012D01*
X83219988Y-152365012D02*
X83299988Y-152285012D01*
X83219988Y-159985012D02*
X83219988Y-152365012D01*
X117004988Y-139665012D02*
X117004988Y-144875012D01*
X83299988Y-152285012D02*
X88854988Y-152285012D01*
X104174988Y-159985012D02*
X94014988Y-149825012D01*
X149894988Y-138395012D02*
X157514988Y-138395012D01*
X148624988Y-139665012D02*
X149894988Y-138395012D01*
X91474988Y-152365012D02*
X94014988Y-149825012D01*
D38*
X71074988Y-36875012D02*
X71074988Y-31635012D01*
D37*
X78854988Y-147365012D02*
X78774988Y-147285012D01*
D38*
X137194988Y-68545012D02*
X137194988Y-67275012D01*
D37*
X61214000Y-161474024D02*
X61214000Y-160078500D01*
X61214000Y-160078500D02*
X62230000Y-159062500D01*
D38*
X124535000Y-86070000D02*
X118035000Y-86070000D01*
X119414988Y-106645012D02*
X119414988Y-104105012D01*
X111794988Y-104105012D02*
X109254988Y-104105012D01*
D37*
X168944988Y-149825012D02*
X168944988Y-147285012D01*
D38*
X85124988Y-106645012D02*
X82618884Y-106645012D01*
X208949988Y-153766816D02*
X202096792Y-160620012D01*
X100364988Y-104105012D02*
X96554988Y-104105012D01*
D37*
X73660000Y-68580000D02*
X66605000Y-68580000D01*
X157514988Y-143395012D02*
X157514988Y-149825012D01*
D38*
X143544988Y-138327093D02*
X147422907Y-142205012D01*
X139734988Y-118075012D02*
X137194988Y-115535012D01*
D37*
X73660000Y-68580000D02*
X73694988Y-68614988D01*
X93934988Y-147365012D02*
X94014988Y-147285012D01*
D38*
X208949988Y-147285012D02*
X210854988Y-147285012D01*
X143544988Y-121885012D02*
X143544988Y-138327093D01*
X66709988Y-42098012D02*
X66709988Y-41240012D01*
D37*
X73694988Y-53305012D02*
X73694988Y-68545012D01*
D38*
X118035000Y-86070000D02*
X114260000Y-82295000D01*
X66740988Y-42129012D02*
X66836988Y-42225012D01*
X114260000Y-74970000D02*
X116840000Y-72390000D01*
X114260000Y-79990000D02*
X114260000Y-76200000D01*
X64804988Y-55845012D02*
X61774987Y-52815011D01*
D37*
X61214000Y-161474024D02*
X63502476Y-163762500D01*
X73694988Y-93945012D02*
X67344988Y-93945012D01*
X67344988Y-93945012D02*
X64516000Y-96774000D01*
D38*
X71154988Y-31715012D02*
X71074988Y-31635012D01*
X202096792Y-160620012D02*
X202091988Y-160620012D01*
D37*
X73694988Y-147285012D02*
X71120000Y-149860000D01*
D38*
X96554988Y-104105012D02*
X96554988Y-106645012D01*
D39*
X132715000Y-96520000D02*
X132715000Y-89535000D01*
D38*
X137194988Y-67275012D02*
X134654988Y-64735012D01*
X114260000Y-82295000D02*
X114260000Y-79990000D01*
X119414988Y-95215012D02*
X122555000Y-92075000D01*
X85124988Y-104105012D02*
X85124988Y-106645012D01*
D37*
X78774988Y-147285012D02*
X73694988Y-147285012D01*
X73694988Y-93945012D02*
X77606608Y-97856632D01*
D38*
X199649000Y-163063000D02*
X168143000Y-163063000D01*
D37*
X105484988Y-147205012D02*
X107984988Y-144705012D01*
D38*
X165608000Y-160528000D02*
X163576000Y-160528000D01*
D37*
X114464988Y-154905012D02*
X117004988Y-154905012D01*
D38*
X109254988Y-104105012D02*
X107984988Y-104105012D01*
X73694988Y-55845012D02*
X64804988Y-55845012D01*
D39*
X132715000Y-89535000D02*
X134654988Y-87595012D01*
D37*
X73694988Y-68545012D02*
X73660000Y-68580000D01*
D38*
X157514988Y-151164988D02*
X157514988Y-149825012D01*
X100364988Y-106645012D02*
X107984988Y-106645012D01*
X202091988Y-160620012D02*
X199649000Y-163063000D01*
D37*
X64516000Y-127946024D02*
X78774988Y-142205012D01*
D38*
X66709988Y-41240012D02*
X71074988Y-36875012D01*
X122535000Y-88900000D02*
X122535000Y-88070000D01*
X201920000Y-130820000D02*
X199400000Y-130820000D01*
X111794988Y-106645012D02*
X119414988Y-106645012D01*
D37*
X73694988Y-68614988D02*
X73694988Y-88900000D01*
D38*
X138464988Y-107915012D02*
X142274988Y-107915012D01*
X208949988Y-131410012D02*
X208949988Y-153766816D01*
D37*
X94014988Y-147285012D02*
X104094988Y-147285012D01*
D38*
X61774987Y-42909211D02*
X62555186Y-42129012D01*
D37*
X65230000Y-163762500D02*
X67837500Y-166370000D01*
X73694988Y-78774988D02*
X73694988Y-93945012D01*
X113064988Y-153635012D02*
X114334988Y-154905012D01*
D38*
X61774987Y-52815011D02*
X61774987Y-42909211D01*
X114260000Y-76200000D02*
X114260000Y-74970000D01*
X163576000Y-157226000D02*
X157514988Y-151164988D01*
X81314988Y-31715012D02*
X71154988Y-31715012D01*
D37*
X110484988Y-144705012D02*
X113064988Y-147285012D01*
D38*
X88934988Y-104105012D02*
X85124988Y-104105012D01*
D37*
X63502476Y-163762500D02*
X65230000Y-163762500D01*
D38*
X122555000Y-92075000D02*
X122535000Y-92055000D01*
D37*
X114334988Y-154905012D02*
X114464988Y-154905012D01*
X71120000Y-149860000D02*
X61976000Y-149860000D01*
X104174988Y-147205012D02*
X105484988Y-147205012D01*
X73694988Y-88900000D02*
X88900000Y-88900000D01*
D38*
X137194988Y-109185012D02*
X138464988Y-107915012D01*
X82601936Y-106628064D02*
X80028040Y-106628064D01*
X83854988Y-40605012D02*
X86354988Y-40605012D01*
X96554988Y-106645012D02*
X88934988Y-106645012D01*
X137194988Y-115535012D02*
X137194988Y-109185012D01*
D37*
X104094988Y-147285012D02*
X104174988Y-147205012D01*
X156324988Y-142205012D02*
X157514988Y-143395012D01*
D38*
X111794988Y-106645012D02*
X111794988Y-104105012D01*
D37*
X113064988Y-147285012D02*
X113064988Y-153635012D01*
X61976000Y-149860000D02*
X61214000Y-150622000D01*
D38*
X107984988Y-106645012D02*
X107984988Y-104105012D01*
X142274988Y-107915012D02*
X144814988Y-110455012D01*
X208270000Y-130820000D02*
X208314988Y-130775012D01*
X208314988Y-130775012D02*
X208949988Y-131410012D01*
X139734988Y-118075012D02*
X143544988Y-121885012D01*
X81314988Y-29175012D02*
X81314988Y-31715012D01*
X201920000Y-130820000D02*
X208270000Y-130820000D01*
D37*
X88934988Y-147365012D02*
X93934988Y-147365012D01*
D38*
X168143000Y-163063000D02*
X165608000Y-160528000D01*
D37*
X67837500Y-166370000D02*
X88900000Y-166370000D01*
D38*
X119414988Y-104105012D02*
X119414988Y-95215012D01*
X100364988Y-106645012D02*
X100364988Y-104105012D01*
X163576000Y-160528000D02*
X163576000Y-157226000D01*
X122535000Y-92055000D02*
X122535000Y-88900000D01*
X80028040Y-106628064D02*
X77504988Y-104105012D01*
X201930000Y-130810000D02*
X201930000Y-124460000D01*
X147422907Y-142205012D02*
X148624988Y-142205012D01*
X66836988Y-42225012D02*
X66709988Y-42098012D01*
D37*
X64516000Y-96774000D02*
X64516000Y-127946024D01*
D38*
X62555186Y-42129012D02*
X66740988Y-42129012D01*
D37*
X77606608Y-97856632D02*
X77606608Y-104003392D01*
D38*
X201930000Y-124460000D02*
X200670000Y-123200000D01*
X122535000Y-88070000D02*
X124535000Y-86070000D01*
X88934988Y-106645012D02*
X88934988Y-104105012D01*
X201920000Y-130820000D02*
X201930000Y-130810000D01*
D37*
X107984988Y-144705012D02*
X110484988Y-144705012D01*
X168944988Y-149825012D02*
X168944988Y-153675012D01*
X157514988Y-149825012D02*
X168944988Y-149825012D01*
D38*
X82618884Y-106645012D02*
X82601936Y-106628064D01*
D37*
X61214000Y-150622000D02*
X61214000Y-161474024D01*
D39*
X134620000Y-98425000D02*
X132715000Y-96520000D01*
D38*
X86354988Y-40605012D02*
X86394988Y-40565012D01*
X200670000Y-123200000D02*
X199400000Y-123200000D01*
D37*
X78774988Y-142205012D02*
X78774988Y-147285012D01*
D38*
X71074988Y-29175012D02*
X71074988Y-31635012D01*
D37*
X148624988Y-142205012D02*
X156324988Y-142205012D01*
X88934988Y-147365012D02*
X78854988Y-147365012D01*
D38*
X144145000Y-154940000D02*
X144145000Y-158750000D01*
X139734988Y-128235012D02*
X139864988Y-128365012D01*
X134654988Y-111869225D02*
X134654988Y-110455012D01*
X139734988Y-120639010D02*
X134654988Y-115559010D01*
X139864988Y-128365012D02*
X139864988Y-154940000D01*
X134654988Y-115559010D02*
X134654988Y-111869225D01*
X139864988Y-154940000D02*
X144145000Y-154940000D01*
X139734988Y-128235012D02*
X139734988Y-120639010D01*
X134784988Y-154905012D02*
X134784988Y-153670000D01*
X134784988Y-157480000D02*
X134784988Y-156210000D01*
X134784988Y-134455012D02*
X136234988Y-133005012D01*
X136234988Y-119655012D02*
X134654988Y-118075012D01*
X136234988Y-133005012D02*
X136234988Y-128235012D01*
X134654988Y-155035012D02*
X134784988Y-154905012D01*
X134784988Y-156210000D02*
X134784988Y-154940000D01*
X134784988Y-153670000D02*
X134784988Y-134455012D01*
X134784988Y-157480000D02*
X134605000Y-157659988D01*
X134605000Y-157659988D02*
X134605000Y-159430000D01*
X134784988Y-153670000D02*
X134784988Y-154940000D01*
X136234988Y-128235012D02*
X136234988Y-119655012D01*
X112395000Y-69215000D02*
X112395000Y-63003630D01*
X142274988Y-72355012D02*
X142274988Y-71125012D01*
X190534988Y-118075012D02*
X190534988Y-32772210D01*
X86394988Y-38065012D02*
X86394988Y-34959988D01*
D37*
X94014988Y-144745012D02*
X96554988Y-142205012D01*
D38*
X86360000Y-31115000D02*
X86360000Y-34925000D01*
X115708630Y-59690000D02*
X116840000Y-59690000D01*
X90839988Y-26635012D02*
X86360000Y-31115000D01*
X149894988Y-26635012D02*
X90839988Y-26635012D01*
X111760000Y-76200000D02*
X111760000Y-79990000D01*
X86394988Y-34959988D02*
X86360000Y-34925000D01*
D37*
X96554988Y-142205012D02*
X104174988Y-142205012D01*
D38*
X83889976Y-34925000D02*
X83854988Y-34890012D01*
X149894988Y-26635012D02*
X139734988Y-26635012D01*
D37*
X104174988Y-142205012D02*
X107984988Y-142205012D01*
D38*
X109220000Y-72390000D02*
X112395000Y-69215000D01*
X184397790Y-26635012D02*
X149894988Y-26635012D01*
X109220000Y-72390000D02*
X109220000Y-73660000D01*
X112395000Y-63003630D02*
X115708630Y-59690000D01*
X142274988Y-71125012D02*
X139694988Y-68545012D01*
X139734988Y-26635012D02*
X139734988Y-45685012D01*
X86360000Y-34925000D02*
X83889976Y-34925000D01*
X83854988Y-34890012D02*
X83854988Y-38065012D01*
X109220000Y-73660000D02*
X111760000Y-76200000D01*
X190534988Y-32772210D02*
X184397790Y-26635012D01*
X76194988Y-50805012D02*
X76234988Y-50765012D01*
X73694988Y-50805012D02*
X76194988Y-50805012D01*
X76194988Y-43105012D02*
X76234988Y-43145012D01*
X73694988Y-43105012D02*
X76194988Y-43105012D01*
D40*
X88934988Y-115535012D02*
X88934988Y-114265012D01*
X88934988Y-114265012D02*
X91474988Y-111725012D01*
X97764989Y-112935013D02*
X96554988Y-111725012D01*
X91474988Y-112245814D02*
X95974187Y-116745013D01*
X97135789Y-116745013D02*
X97764989Y-116115813D01*
X97764989Y-116115813D02*
X97764989Y-112935013D01*
X95974187Y-116745013D02*
X97135789Y-116745013D01*
X91474988Y-111725012D02*
X91474988Y-112245814D01*
X67021012Y-101565012D02*
X68545012Y-101565012D01*
X69705013Y-102725013D02*
X72918189Y-102725013D01*
X72918189Y-102725013D02*
X79378188Y-109185012D01*
X67818000Y-97755012D02*
X66548000Y-99025012D01*
X79378188Y-109185012D02*
X94014988Y-109185012D01*
X68545012Y-101565012D02*
X69705013Y-102725013D01*
X66548000Y-101092000D02*
X67021012Y-101565012D01*
X94014988Y-109185012D02*
X96554988Y-111725012D01*
X66548000Y-99025012D02*
X66548000Y-101092000D01*
X100364988Y-114265012D02*
X102904988Y-111725012D01*
X96079175Y-108525001D02*
X99154987Y-111600813D01*
X109194989Y-116115813D02*
X109194989Y-112935013D01*
X109194989Y-112935013D02*
X107984988Y-111725012D01*
X67818000Y-100295012D02*
X71904186Y-100295012D01*
X102904988Y-112856382D02*
X106793619Y-116745013D01*
X80134175Y-108525001D02*
X96079175Y-108525001D01*
X99154987Y-111600813D02*
X99154987Y-114325011D01*
X106793619Y-116745013D02*
X108565789Y-116745013D01*
X100364988Y-115535012D02*
X100364988Y-114265012D01*
X71904186Y-100295012D02*
X80134175Y-108525001D01*
X99154987Y-114325011D02*
X100364988Y-115535012D01*
X102904988Y-111725012D02*
X102904988Y-112856382D01*
X108565789Y-116745013D02*
X109194989Y-116115813D01*
X66548000Y-109658024D02*
X74964988Y-118075012D01*
X66548000Y-104105012D02*
X66548000Y-109658024D01*
X111794988Y-115535012D02*
X111794988Y-114265012D01*
X120684988Y-112995012D02*
X120684988Y-116055814D01*
X119414988Y-111725012D02*
X120684988Y-112995012D01*
X111794988Y-114265012D02*
X114334988Y-111725012D01*
X114334988Y-112856382D02*
X114334988Y-111725012D01*
X119995789Y-116745013D02*
X118223619Y-116745013D01*
X74964988Y-118075012D02*
X109254988Y-118075012D01*
X120684988Y-116055814D02*
X119995789Y-116745013D01*
X109254988Y-118075012D02*
X111794988Y-115535012D01*
X67818000Y-102835012D02*
X66548000Y-104105012D01*
X118223619Y-116745013D02*
X114334988Y-112856382D01*
X77504988Y-115535012D02*
X77504988Y-114265012D01*
X77504988Y-114265012D02*
X80044988Y-111725012D01*
X83854988Y-110455012D02*
X85124988Y-111725012D01*
X80044988Y-111725012D02*
X81314988Y-110455012D01*
X81314988Y-110455012D02*
X83854988Y-110455012D01*
X73694988Y-105375012D02*
X80044988Y-111725012D01*
X67818000Y-105375012D02*
X73694988Y-105375012D01*
X121954988Y-106645012D02*
X121954988Y-124425012D01*
X163864988Y-57115012D02*
X166404988Y-54575012D01*
X163864988Y-116805012D02*
X163864988Y-57115012D01*
X165134988Y-63465012D02*
X164994987Y-63605013D01*
X166404988Y-62195012D02*
X165134988Y-63465012D01*
X164994987Y-63605013D02*
X164994987Y-117935011D01*
D39*
X128270000Y-81280000D02*
X127635000Y-81280000D01*
X120015000Y-79590000D02*
X118035000Y-81570000D01*
X119380000Y-64770000D02*
X120015000Y-65405000D01*
X127345000Y-81570000D02*
X124535000Y-81570000D01*
X127635000Y-81280000D02*
X127345000Y-81570000D01*
X120015000Y-65405000D02*
X120015000Y-79590000D01*
X124535000Y-81570000D02*
X118035000Y-81570000D01*
X116840000Y-64770000D02*
X119380000Y-64770000D01*
D40*
X153924000Y-163068000D02*
X153924000Y-157480000D01*
X151892000Y-155448000D02*
X151384000Y-155448000D01*
X157480000Y-164592000D02*
X155448000Y-164592000D01*
X155448000Y-164592000D02*
X153924000Y-163068000D01*
X153924000Y-157480000D02*
X151892000Y-155448000D01*
D38*
X76234988Y-38065012D02*
X73694988Y-40605012D01*
X73694988Y-48185012D02*
X76194988Y-48185012D01*
X76194988Y-48185012D02*
X76234988Y-48225012D01*
X76234988Y-45685012D02*
X73694988Y-45685012D01*
X59724988Y-58385012D02*
X61604988Y-60265012D01*
X65416988Y-35265012D02*
X61254988Y-35265012D01*
X71789988Y-27270012D02*
X73694988Y-29175012D01*
X59724988Y-36795012D02*
X59724988Y-58385012D01*
X61604988Y-60265012D02*
X65416988Y-60265012D01*
X66074988Y-29175012D02*
X66074988Y-34607012D01*
X66074988Y-34607012D02*
X65416988Y-35265012D01*
X66074988Y-29175012D02*
X67979988Y-27270012D01*
X61254988Y-35265012D02*
X59724988Y-36795012D01*
X67979988Y-27270012D02*
X71789988Y-27270012D01*
X78774988Y-40605012D02*
X76234988Y-40605012D01*
X81354988Y-34890012D02*
X81354988Y-38025012D01*
X81354988Y-38025012D02*
X78774988Y-40605012D01*
D39*
X83820000Y-100330000D02*
X80044988Y-104105012D01*
X99060000Y-69850000D02*
X99060000Y-91440000D01*
X90170000Y-100330000D02*
X83820000Y-100330000D01*
X99060000Y-91440000D02*
X90170000Y-100330000D01*
X100330000Y-92710000D02*
X91440000Y-101600000D01*
X91440000Y-101600000D02*
X85090000Y-101600000D01*
X85090000Y-101600000D02*
X82584988Y-104105012D01*
X100330000Y-67310000D02*
X100330000Y-92710000D01*
X102870000Y-95250000D02*
X94014988Y-104105012D01*
X102870000Y-62230000D02*
X102870000Y-95250000D01*
X101600000Y-93980000D02*
X91474988Y-104105012D01*
X101600000Y-64770000D02*
X101600000Y-93980000D01*
X210820000Y-106680000D02*
X198120000Y-106680000D01*
X210844988Y-39370000D02*
X210854988Y-39360000D01*
X198154988Y-39370000D02*
X210844988Y-39370000D01*
D40*
X66836988Y-50535012D02*
X70476987Y-46895013D01*
X70476987Y-46895013D02*
X84435789Y-46895013D01*
X84435789Y-46895013D02*
X85064989Y-46265813D01*
X85064989Y-44355013D02*
X83854988Y-43145012D01*
X85064989Y-46265813D02*
X85064989Y-44355013D01*
D39*
X104140000Y-59690000D02*
X104140000Y-102870000D01*
X104140000Y-102870000D02*
X102904988Y-104105012D01*
D38*
X161959988Y-116805012D02*
X161959988Y-132680012D01*
X153704988Y-54575012D02*
X158784988Y-54575012D01*
X153704988Y-29810012D02*
X158784988Y-29810012D01*
X158784988Y-116805012D02*
X161959988Y-116805012D01*
X161959988Y-32985012D02*
X161959988Y-41875012D01*
X161959988Y-41875012D02*
X161959988Y-54575012D01*
X158784988Y-29810012D02*
X161959988Y-32985012D01*
X158784988Y-79340012D02*
X153704988Y-79340012D01*
X187794989Y-136290013D02*
X186189989Y-136290013D01*
X180374988Y-148555012D02*
X188629988Y-148555012D01*
X161959988Y-54575012D02*
X161959988Y-67275012D01*
X186189989Y-136290013D02*
X185989990Y-136490012D01*
X189264988Y-137760012D02*
X187794989Y-136290013D01*
X161959988Y-116805012D02*
X161959988Y-104105012D01*
X153704988Y-41875012D02*
X158784988Y-41875012D01*
X158784988Y-104105012D02*
X153704988Y-104105012D01*
X158784988Y-54575012D02*
X161959988Y-54575012D01*
X185989990Y-136490012D02*
X180374988Y-136490012D01*
X161959988Y-92040012D02*
X161959988Y-104105012D01*
X166404988Y-138395012D02*
X166404988Y-137125012D01*
X158784988Y-116805012D02*
X153704988Y-116805012D01*
X161959988Y-79340012D02*
X161959988Y-92040012D01*
X189264988Y-147920012D02*
X189264988Y-137760012D01*
X158784988Y-92040012D02*
X161959988Y-92040012D01*
X158784988Y-104105012D02*
X161959988Y-104105012D01*
X127034988Y-110455012D02*
X123224988Y-110455012D01*
X161959988Y-67275012D02*
X161959988Y-79340012D01*
X158784988Y-92040012D02*
X153704988Y-92040012D01*
X158784988Y-67275012D02*
X153704988Y-67275012D01*
X158784988Y-67275012D02*
X161959988Y-67275012D01*
X158784988Y-79340012D02*
X161959988Y-79340012D01*
X166404988Y-137125012D02*
X161959988Y-132680012D01*
X188629988Y-148555012D02*
X189264988Y-147920012D01*
X158784988Y-41875012D02*
X161959988Y-41875012D01*
D40*
X119414988Y-114265012D02*
X116874988Y-111725012D01*
X113064988Y-110455012D02*
X115604988Y-110455012D01*
X115604988Y-110455012D02*
X116874988Y-111725012D01*
X119414988Y-115535012D02*
X119414988Y-114265012D01*
X111794988Y-111725012D02*
X113064988Y-110455012D01*
D38*
X167674988Y-156175012D02*
X168944988Y-156175012D01*
X172559990Y-157990014D02*
X188382987Y-157990014D01*
X197783001Y-148590000D02*
X198755000Y-148590000D01*
X188382987Y-157990014D02*
X197783001Y-148590000D01*
X168944988Y-156175012D02*
X170744988Y-156175012D01*
X162594988Y-152365012D02*
X163864988Y-152365012D01*
X170744988Y-156175012D02*
X172559990Y-157990014D01*
X163864988Y-152365012D02*
X167674988Y-156175012D01*
X165134988Y-144745012D02*
X165174988Y-144785012D01*
X165174988Y-144785012D02*
X168944988Y-144785012D01*
X162594988Y-147285012D02*
X165134988Y-144745012D01*
D40*
X148624988Y-111725012D02*
X142274988Y-105375012D01*
X158924999Y-134725023D02*
X148624988Y-124425012D01*
X162594988Y-142205012D02*
X158924999Y-138535023D01*
X148624988Y-124425012D02*
X148624988Y-111725012D01*
D38*
X180409976Y-156210000D02*
X186109976Y-156210000D01*
D40*
X134654988Y-85055012D02*
X132114988Y-85055012D01*
X130844988Y-86325012D02*
X130844988Y-105375012D01*
X128304988Y-118075012D02*
X127034988Y-118075012D01*
X130844988Y-115535012D02*
X128304988Y-118075012D01*
X130844988Y-105375012D02*
X130844988Y-115535012D01*
X176564988Y-152365012D02*
X176564988Y-144745012D01*
D38*
X180374988Y-156175012D02*
X180409976Y-156210000D01*
D40*
X158924999Y-138535023D02*
X158924999Y-134725023D01*
X174024988Y-142205012D02*
X162594988Y-142205012D01*
X180374988Y-156175012D02*
X176564988Y-152365012D01*
X132114988Y-85055012D02*
X130844988Y-86325012D01*
X130844988Y-105375012D02*
X142274988Y-105375012D01*
D38*
X127034988Y-118075012D02*
X123224988Y-118075012D01*
D40*
X176564988Y-144745012D02*
X174024988Y-142205012D01*
D38*
X198120000Y-93980000D02*
X210820000Y-93980000D01*
X195614988Y-96485012D02*
X198120000Y-93980000D01*
X195614988Y-121885012D02*
X195614988Y-96485012D01*
X195580000Y-121920000D02*
X195614988Y-121885012D01*
X199400000Y-125740000D02*
X198130000Y-125740000D01*
X199400000Y-125740000D02*
X199400000Y-128280000D01*
X195580000Y-123190000D02*
X195580000Y-121920000D01*
X198130000Y-125740000D02*
X195580000Y-123190000D01*
D40*
X162594988Y-140935012D02*
X175294988Y-140935012D01*
X149894988Y-123155012D02*
X160054988Y-133315012D01*
X160054988Y-133315012D02*
X160054988Y-138395012D01*
X160054988Y-138395012D02*
X162594988Y-140935012D01*
X149894988Y-110455012D02*
X149894988Y-123155012D01*
X142274988Y-102835012D02*
X149894988Y-110455012D01*
D38*
X180374988Y-144110012D02*
X185989990Y-144110012D01*
X185989990Y-144110012D02*
X186189989Y-143910013D01*
D40*
X142274988Y-87595012D02*
X142274988Y-102835012D01*
X175294988Y-140935012D02*
X178469988Y-144110012D01*
X178469988Y-144110012D02*
X180374988Y-144110012D01*
X141004988Y-83785012D02*
X138464988Y-81245012D01*
X151164988Y-123155012D02*
X151164988Y-109185012D01*
X151164988Y-109185012D02*
X146084988Y-104105012D01*
X138464988Y-76165012D02*
X137194988Y-74895012D01*
X146084988Y-85055012D02*
X144814988Y-83785012D01*
X144814988Y-83785012D02*
X141004988Y-83785012D01*
X137194988Y-74895012D02*
X134654988Y-74895012D01*
X152434988Y-124425012D02*
X151164988Y-123155012D01*
D38*
X158784988Y-124425012D02*
X153704988Y-124425012D01*
D40*
X138464988Y-81245012D02*
X138464988Y-76165012D01*
X146084988Y-104105012D02*
X146084988Y-85055012D01*
X153704988Y-124425012D02*
X152434988Y-124425012D01*
X148624988Y-71085012D02*
X148624988Y-64735012D01*
X152434988Y-74895012D02*
X148624988Y-71085012D01*
X144754989Y-60865013D02*
X138404989Y-60865013D01*
X153704988Y-74895012D02*
X152434988Y-74895012D01*
X138404989Y-60865013D02*
X134654988Y-57115012D01*
D38*
X158784988Y-74895012D02*
X153704988Y-74895012D01*
D40*
X148624988Y-64735012D02*
X144754989Y-60865013D01*
X146084988Y-82515012D02*
X142274988Y-82515012D01*
X153704988Y-111725012D02*
X153704988Y-110455012D01*
X153704988Y-110455012D02*
X148624988Y-105375012D01*
X148624988Y-105375012D02*
X148624988Y-85055012D01*
X148624988Y-85055012D02*
X146084988Y-82515012D01*
D38*
X158784988Y-111725012D02*
X153704988Y-111725012D01*
D40*
X149894988Y-62195012D02*
X153704988Y-62195012D01*
X142274988Y-59655012D02*
X147354988Y-59655012D01*
X147354988Y-59655012D02*
X149894988Y-62195012D01*
D38*
X158784988Y-62195012D02*
X153704988Y-62195012D01*
D40*
X149894988Y-79975012D02*
X149894988Y-95850012D01*
X142274988Y-77435012D02*
X147354988Y-77435012D01*
X149894988Y-95850012D02*
X153704988Y-99660012D01*
D38*
X158784988Y-99660012D02*
X153704988Y-99660012D01*
D40*
X147354988Y-77435012D02*
X149894988Y-79975012D01*
X143544988Y-54575012D02*
X148624988Y-49495012D01*
X148624988Y-49495012D02*
X153704988Y-49495012D01*
D38*
X158784988Y-49495012D02*
X153704988Y-49495012D01*
D40*
X142274988Y-54575012D02*
X143544988Y-54575012D01*
X151164988Y-86325012D02*
X151164988Y-78224210D01*
D38*
X158784988Y-86960012D02*
X153704988Y-86960012D01*
D40*
X151164988Y-78224210D02*
X135135790Y-62195012D01*
X153704988Y-86960012D02*
X151799988Y-86960012D01*
X135135790Y-62195012D02*
X134654988Y-62195012D01*
X151799988Y-86960012D02*
X151164988Y-86325012D01*
X135786358Y-52035012D02*
X150391358Y-37430012D01*
X134654988Y-52035012D02*
X135786358Y-52035012D01*
D38*
X153704988Y-37430012D02*
X158784988Y-37430012D01*
D40*
X150391358Y-37430012D02*
X153704988Y-37430012D01*
D38*
X193675000Y-156083000D02*
X196122988Y-153635012D01*
X196122988Y-153635012D02*
X205139988Y-153635012D01*
X205139988Y-153635012D02*
X206409988Y-152365012D01*
X206409988Y-152365012D02*
X206409988Y-138730012D01*
X193675000Y-156210000D02*
X193675000Y-156083000D01*
X206409988Y-138730012D02*
X203969989Y-136290013D01*
X175564989Y-103105013D02*
X176564988Y-104105012D01*
X173954998Y-134515022D02*
X173954998Y-126151002D01*
X174029988Y-134590012D02*
X173954998Y-134515022D01*
X174864987Y-105805013D02*
X176564988Y-104105012D01*
X174864987Y-56275013D02*
X174864987Y-77640011D01*
X174864987Y-102405011D02*
X175564989Y-103105013D01*
X192109988Y-134590012D02*
X174029988Y-134590012D01*
X176564988Y-79340012D02*
X174864987Y-81040013D01*
X175564989Y-53575013D02*
X176564988Y-54575012D01*
X174864987Y-77640011D02*
X175564989Y-78340013D01*
X193809989Y-136290013D02*
X192109988Y-134590012D01*
X176564988Y-29810012D02*
X174864987Y-31510013D01*
X176564988Y-54575012D02*
X174864987Y-56275013D01*
X174864987Y-125241013D02*
X174864987Y-105805013D01*
X173954998Y-126151002D02*
X174864987Y-125241013D01*
X174864987Y-31510013D02*
X174864987Y-52875011D01*
X175564989Y-78340013D02*
X176564988Y-79340012D01*
X174864987Y-52875011D02*
X176564988Y-54575012D01*
X174864987Y-81040013D02*
X174864987Y-102405011D01*
D39*
X105444988Y-57184988D02*
X105410000Y-57150000D01*
X105444988Y-104105012D02*
X105444988Y-57184988D01*
X118110000Y-104775000D02*
X118110000Y-92710000D01*
X107315000Y-56515000D02*
X109220000Y-54610000D01*
X118110000Y-92710000D02*
X107315000Y-81915000D01*
X107315000Y-81915000D02*
X107315000Y-56515000D01*
X115639976Y-105410000D02*
X117475000Y-105410000D01*
X114334988Y-104105012D02*
X115639976Y-105410000D01*
X117475000Y-105410000D02*
X118110000Y-104775000D01*
X116874988Y-92744988D02*
X106680000Y-82550000D01*
X106680000Y-82550000D02*
X106680000Y-54610000D01*
X116874988Y-104105012D02*
X116874988Y-92744988D01*
X106680000Y-54610000D02*
X109220000Y-52070000D01*
D40*
X78774988Y-45685012D02*
X77564987Y-44475011D01*
X83854988Y-45685012D02*
X78774988Y-45685012D01*
X70126989Y-44475011D02*
X66836988Y-47765012D01*
X77564987Y-44475011D02*
X70126989Y-44475011D01*
D38*
X172484987Y-123425013D02*
X171484988Y-124425012D01*
X173184989Y-113425013D02*
X173184989Y-122725011D01*
X171484988Y-111725012D02*
X173184989Y-113425013D01*
X173184989Y-122725011D02*
X172484987Y-123425013D01*
X170484989Y-115805013D02*
X171484988Y-116805012D01*
X169784987Y-115105011D02*
X170484989Y-115805013D01*
X169784987Y-105805013D02*
X169784987Y-115105011D01*
X171484988Y-104105012D02*
X169784987Y-105805013D01*
X181009988Y-92040012D02*
X184184988Y-88865012D01*
X176564988Y-92040012D02*
X181009988Y-92040012D01*
X184184988Y-88865012D02*
X184184988Y-79340012D01*
X176564988Y-99660012D02*
X184184988Y-99660012D01*
D40*
X107984988Y-114265012D02*
X105444988Y-111725012D01*
X107984988Y-115535012D02*
X107984988Y-114265012D01*
X104174988Y-110455012D02*
X105444988Y-111725012D01*
X100364988Y-111725012D02*
X101634988Y-110455012D01*
X101634988Y-110455012D02*
X104174988Y-110455012D01*
D38*
X176564988Y-74895012D02*
X184184988Y-74895012D01*
D39*
X210820000Y-96520000D02*
X198120000Y-96520000D01*
D37*
X73059988Y-159985012D02*
X71085012Y-159985012D01*
X70162500Y-159062500D02*
X68230000Y-159062500D01*
X71085012Y-156175012D02*
X69850000Y-154940000D01*
X71085012Y-159985012D02*
X71085012Y-156175012D01*
X71085012Y-159985012D02*
X70162500Y-159062500D01*
X69850000Y-154940000D02*
X66040000Y-154940000D01*
D40*
X145796000Y-163068000D02*
X147320000Y-164592000D01*
X145796000Y-162560000D02*
X145796000Y-163068000D01*
X142240000Y-156210000D02*
X142240000Y-159004000D01*
X142240000Y-159004000D02*
X145796000Y-162560000D01*
D39*
X116840000Y-41910000D02*
X113030000Y-45720000D01*
X92710000Y-48260000D02*
X95250000Y-45720000D01*
X95250000Y-45720000D02*
X113030000Y-45720000D01*
D38*
X181009988Y-67275012D02*
X184184988Y-64100012D01*
X184184988Y-64100012D02*
X184184988Y-54575012D01*
X176564988Y-67275012D02*
X181009988Y-67275012D01*
D40*
X96554988Y-114265012D02*
X94014988Y-111725012D01*
X96554988Y-115535012D02*
X96554988Y-114265012D01*
X88934988Y-111725012D02*
X90204988Y-110455012D01*
X92744988Y-110455012D02*
X94014988Y-111725012D01*
X90204988Y-110455012D02*
X92744988Y-110455012D01*
D39*
X92710000Y-71120000D02*
X96520000Y-71120000D01*
X116840000Y-62230000D02*
X119380000Y-62230000D01*
X119380000Y-62230000D02*
X120650000Y-63500000D01*
X121920000Y-74930000D02*
X124460000Y-74930000D01*
X120650000Y-63500000D02*
X120650000Y-73660000D01*
X120650000Y-73660000D02*
X121920000Y-74930000D01*
X95284988Y-50765012D02*
X92710000Y-53340000D01*
X116840000Y-44450000D02*
X110524988Y-50765012D01*
X110524988Y-50765012D02*
X95284988Y-50765012D01*
D38*
X176564988Y-49495012D02*
X184184988Y-49495012D01*
X176564988Y-41875012D02*
X181644988Y-41875012D01*
X181644988Y-41875012D02*
X184184988Y-39335012D01*
X184184988Y-39335012D02*
X184184988Y-29175012D01*
X171484988Y-37430012D02*
X169579988Y-39335012D01*
X169579988Y-47590012D02*
X171484988Y-49495012D01*
X169579988Y-47590012D02*
X169579988Y-39335012D01*
D40*
X85124988Y-114265012D02*
X82584988Y-111725012D01*
X85124988Y-115535012D02*
X85124988Y-114265012D01*
X77504988Y-111725012D02*
X76234988Y-112995012D01*
X83244999Y-117415001D02*
X85124988Y-115535012D01*
X76844977Y-117415001D02*
X83244999Y-117415001D01*
X76234988Y-116805012D02*
X76844977Y-117415001D01*
X76234988Y-112995012D02*
X76234988Y-116805012D01*
D38*
X144814988Y-118075012D02*
X144814988Y-120615012D01*
X139734988Y-110455012D02*
X139734988Y-112995012D01*
X139734988Y-112995012D02*
X144814988Y-118075012D01*
X144814988Y-120615012D02*
X146084988Y-121885012D01*
X146084988Y-121885012D02*
X146084988Y-130775012D01*
X176564988Y-124425012D02*
X184184988Y-124425012D01*
X176564988Y-116805012D02*
X181009988Y-116805012D01*
X181009988Y-116805012D02*
X184184988Y-113630012D01*
X184184988Y-113630012D02*
X184184988Y-104105012D01*
X172484987Y-98660013D02*
X171484988Y-99660012D01*
X173184989Y-97960011D02*
X172484987Y-98660013D01*
X173184989Y-88660013D02*
X173184989Y-97960011D01*
X171484988Y-86960012D02*
X173184989Y-88660013D01*
X170484989Y-91040013D02*
X171484988Y-92040012D01*
X169784987Y-90340011D02*
X170484989Y-91040013D01*
X169784987Y-81040013D02*
X169784987Y-90340011D01*
X171484988Y-79340012D02*
X169784987Y-81040013D01*
X172119988Y-54575012D02*
X173184989Y-55640013D01*
X173184989Y-65575011D02*
X172484987Y-66275013D01*
X172484987Y-66275013D02*
X171484988Y-67275012D01*
X173184989Y-55640013D02*
X173184989Y-65575011D01*
X171484988Y-54575012D02*
X172119988Y-54575012D01*
X169784987Y-73195011D02*
X170484989Y-73895013D01*
X171484988Y-62195012D02*
X169784987Y-63895013D01*
X170484989Y-73895013D02*
X171484988Y-74895012D01*
X169784987Y-63895013D02*
X169784987Y-73195011D01*
X202499990Y-132680012D02*
X205139988Y-132680012D01*
X198889989Y-136290013D02*
X202499990Y-132680012D01*
X195844989Y-146420011D02*
X195844989Y-128005011D01*
X195844989Y-125994989D02*
X193050000Y-123200000D01*
X191780000Y-128280000D02*
X195570000Y-128280000D01*
X193050000Y-123200000D02*
X191780000Y-123200000D01*
X193675000Y-148590000D02*
X195844989Y-146420011D01*
X195570000Y-128280000D02*
X195844989Y-128005011D01*
X195844989Y-128005011D02*
X195844989Y-125994989D01*
X128950000Y-161970000D02*
X132065000Y-161970000D01*
X129704988Y-154940000D02*
X127635000Y-157009988D01*
X127635000Y-160655000D02*
X128950000Y-161970000D01*
X127635000Y-157009988D02*
X127635000Y-160655000D01*
X129704988Y-154940000D02*
X129704988Y-139665012D01*
X171484988Y-29810012D02*
X173664976Y-31990000D01*
X173664976Y-31990000D02*
X173664976Y-39695024D01*
X173664976Y-39695024D02*
X172484987Y-40875013D01*
X172484987Y-40875013D02*
X171484988Y-41875012D01*
X132244988Y-159220012D02*
X131864756Y-159600244D01*
X131864756Y-159600244D02*
X130330244Y-159600244D01*
X132244988Y-139665012D02*
X132244988Y-159220012D01*
X148624988Y-152365012D02*
X152434988Y-152365012D01*
X148624988Y-147285012D02*
X152434988Y-147285012D01*
X190490000Y-125740000D02*
X189230000Y-127000000D01*
X189230000Y-129540000D02*
X190510000Y-130820000D01*
X189230000Y-127000000D02*
X189230000Y-129540000D01*
X191780000Y-125740000D02*
X190490000Y-125740000D01*
X190510000Y-130820000D02*
X191780000Y-130820000D01*
D39*
X133594988Y-73415012D02*
X133839976Y-73660000D01*
X116859067Y-55670000D02*
X119819067Y-58630000D01*
X138039988Y-73660000D02*
X140335000Y-75955012D01*
X119819067Y-58630000D02*
X121622000Y-58630000D01*
X115995000Y-55670000D02*
X116859067Y-55670000D01*
X133594988Y-70602988D02*
X133594988Y-73415012D01*
X133839976Y-73660000D02*
X138039988Y-73660000D01*
X130302000Y-67310000D02*
X133594988Y-70602988D01*
X140335000Y-78035024D02*
X142274988Y-79975012D01*
X121622000Y-58630000D02*
X130302000Y-67310000D01*
X113665000Y-53340000D02*
X115995000Y-55670000D01*
X140335000Y-75955012D02*
X140335000Y-78035024D01*
X136525000Y-84385024D02*
X136525000Y-88900000D01*
X134654988Y-82515012D02*
X136525000Y-84385024D01*
X130302000Y-72390000D02*
X130302000Y-79293394D01*
X116205000Y-81915000D02*
X116205000Y-78105000D01*
X133523618Y-82515012D02*
X132218630Y-83820000D01*
X116205000Y-78105000D02*
X119380000Y-74930000D01*
X118110000Y-83820000D02*
X116205000Y-81915000D01*
X119380000Y-74930000D02*
X119380000Y-72390000D01*
X132218630Y-83820000D02*
X118110000Y-83820000D01*
X136525000Y-88900000D02*
X134620000Y-90805000D01*
X119380000Y-72390000D02*
X116840000Y-69850000D01*
X130302000Y-79293394D02*
X133523618Y-82515012D01*
X133523618Y-82515012D02*
X134654988Y-82515012D01*
X116840000Y-49530000D02*
X124460000Y-49530000D01*
X124460000Y-49530000D02*
X129505012Y-54575012D01*
X129505012Y-54575012D02*
X134654988Y-54575012D01*
X142274988Y-85055012D02*
X138694055Y-85055012D01*
X138694055Y-85055012D02*
X134919043Y-81280000D01*
X122429778Y-61170000D02*
X115995000Y-61170000D01*
X133350000Y-81280000D02*
X132080000Y-80010000D01*
X114935000Y-62230000D02*
X114935000Y-65405000D01*
X130302000Y-69042222D02*
X122429778Y-61170000D01*
X114935000Y-65405000D02*
X116840000Y-67310000D01*
X132080000Y-80010000D02*
X132080000Y-71628000D01*
X132080000Y-71628000D02*
X130302000Y-69850000D01*
X115995000Y-61170000D02*
X114935000Y-62230000D01*
X134919043Y-81280000D02*
X133350000Y-81280000D01*
X132080000Y-64008000D02*
X130302000Y-62230000D01*
X127000000Y-57785000D02*
X121285000Y-52070000D01*
X132080000Y-65831394D02*
X132080000Y-64008000D01*
X141143618Y-74895012D02*
X132080000Y-65831394D01*
X121285000Y-52070000D02*
X116840000Y-52070000D01*
X127000000Y-58928000D02*
X130302000Y-62230000D01*
X142274988Y-74895012D02*
X141143618Y-74895012D01*
X127000000Y-57785000D02*
X127000000Y-58928000D01*
X134654988Y-69884988D02*
X130302000Y-65532000D01*
X124689067Y-58420000D02*
X127000000Y-60730933D01*
X123190000Y-58420000D02*
X124689067Y-58420000D01*
X123190000Y-58230933D02*
X123190000Y-58420000D01*
X119569067Y-54610000D02*
X123190000Y-58230933D01*
X116840000Y-54610000D02*
X119569067Y-54610000D01*
X134654988Y-72355012D02*
X134654988Y-69884988D01*
X127000000Y-60730933D02*
X127000000Y-61468000D01*
X127000000Y-61468000D02*
X130302000Y-64770000D01*
X130302000Y-65532000D02*
X130302000Y-64770000D01*
X142274988Y-52035012D02*
X141214988Y-53095012D01*
X130302000Y-52070000D02*
X128270000Y-52070000D01*
X131327012Y-53095012D02*
X130302000Y-52070000D01*
X128270000Y-52070000D02*
X123190000Y-46990000D01*
X123190000Y-46990000D02*
X116840000Y-46990000D01*
X141214988Y-53095012D02*
X131327012Y-53095012D01*
X122980000Y-50590000D02*
X114725000Y-50590000D01*
X132324988Y-55635012D02*
X130810000Y-57150000D01*
X130810000Y-57150000D02*
X130302000Y-57150000D01*
X142274988Y-57115012D02*
X140794988Y-55635012D01*
X114725000Y-50590000D02*
X114300000Y-50165000D01*
X114300000Y-50165000D02*
X112395000Y-50165000D01*
X129540000Y-57150000D02*
X122980000Y-50590000D01*
X140794988Y-55635012D02*
X132324988Y-55635012D01*
X130302000Y-57150000D02*
X129540000Y-57150000D01*
X116610933Y-43180000D02*
X123190000Y-43180000D01*
X123190000Y-43180000D02*
X129540000Y-49530000D01*
X110260933Y-49530000D02*
X116610933Y-43180000D01*
X109220000Y-49530000D02*
X110260933Y-49530000D01*
X129540000Y-49530000D02*
X130302000Y-49530000D01*
X113430000Y-51010000D02*
X121495000Y-51010000D01*
X130336988Y-59655012D02*
X134654988Y-59655012D01*
X121495000Y-51010000D02*
X130175000Y-59690000D01*
X130302000Y-59690000D02*
X130336988Y-59655012D01*
X130175000Y-59690000D02*
X130302000Y-59690000D01*
X113005000Y-51435000D02*
X113430000Y-51010000D01*
X83889976Y-48260000D02*
X83854988Y-48225012D01*
X90170000Y-48260000D02*
X83889976Y-48260000D01*
X90170000Y-53340000D02*
X88900000Y-53340000D01*
X88900000Y-53340000D02*
X86325012Y-50765012D01*
X86325012Y-50765012D02*
X83854988Y-50765012D01*
D41*
X214664988Y-173701012D02*
X55914988Y-173701012D01*
X214664988Y-13935012D02*
X214664988Y-173701012D01*
X55914988Y-13935012D02*
X214664988Y-13935012D01*
X55914988Y-173701012D02*
X55914988Y-13935012D01*
M02*
