G04 #@! TF.GenerationSoftware,KiCad,Pcbnew,(6.0.5-0)*
G04 #@! TF.CreationDate,2022-08-06T12:04:30-07:00*
G04 #@! TF.ProjectId,1d_coinctrl_r2,31645f63-6f69-46e6-9374-726c5f72322e,rev?*
G04 #@! TF.SameCoordinates,Original*
G04 #@! TF.FileFunction,Copper,L2,Bot*
G04 #@! TF.FilePolarity,Positive*
%FSLAX46Y46*%
G04 Gerber Fmt 4.6, Leading zero omitted, Abs format (unit mm)*
G04 Created by KiCad (PCBNEW (6.0.5-0)) date 2022-08-06 12:04:30*
%MOMM*%
%LPD*%
G01*
G04 APERTURE LIST*
%ADD10C,0.300000*%
G04 #@! TA.AperFunction,NonConductor*
%ADD11C,0.300000*%
G04 #@! TD*
G04 #@! TA.AperFunction,ComponentPad*
%ADD12C,1.600000*%
G04 #@! TD*
G04 #@! TA.AperFunction,ComponentPad*
%ADD13R,1.600000X1.600000*%
G04 #@! TD*
G04 #@! TA.AperFunction,ComponentPad*
%ADD14O,1.600000X1.600000*%
G04 #@! TD*
G04 #@! TA.AperFunction,ComponentPad*
%ADD15R,1.800000X1.800000*%
G04 #@! TD*
G04 #@! TA.AperFunction,ComponentPad*
%ADD16C,1.800000*%
G04 #@! TD*
G04 #@! TA.AperFunction,ComponentPad*
%ADD17R,2.000000X4.500000*%
G04 #@! TD*
G04 #@! TA.AperFunction,ComponentPad*
%ADD18R,4.500000X2.000000*%
G04 #@! TD*
G04 #@! TA.AperFunction,ComponentPad*
%ADD19R,1.500000X1.500000*%
G04 #@! TD*
G04 #@! TA.AperFunction,ComponentPad*
%ADD20C,1.500000*%
G04 #@! TD*
G04 #@! TA.AperFunction,ComponentPad*
%ADD21R,1.700000X1.700000*%
G04 #@! TD*
G04 #@! TA.AperFunction,ComponentPad*
%ADD22O,1.700000X1.700000*%
G04 #@! TD*
G04 #@! TA.AperFunction,ComponentPad*
%ADD23R,1.727200X1.727200*%
G04 #@! TD*
G04 #@! TA.AperFunction,ComponentPad*
%ADD24O,1.727200X1.727200*%
G04 #@! TD*
G04 #@! TA.AperFunction,ComponentPad*
%ADD25C,1.700000*%
G04 #@! TD*
G04 #@! TA.AperFunction,ComponentPad*
%ADD26C,3.500000*%
G04 #@! TD*
G04 #@! TA.AperFunction,ComponentPad*
%ADD27R,2.000000X2.000000*%
G04 #@! TD*
G04 #@! TA.AperFunction,ComponentPad*
%ADD28C,2.000000*%
G04 #@! TD*
G04 #@! TA.AperFunction,ComponentPad*
%ADD29C,1.220000*%
G04 #@! TD*
G04 #@! TA.AperFunction,ComponentPad*
%ADD30C,2.400000*%
G04 #@! TD*
G04 #@! TA.AperFunction,ComponentPad*
%ADD31O,2.400000X2.400000*%
G04 #@! TD*
G04 #@! TA.AperFunction,ComponentPad*
%ADD32C,1.440000*%
G04 #@! TD*
G04 #@! TA.AperFunction,ComponentPad*
%ADD33R,2.400000X2.400000*%
G04 #@! TD*
G04 #@! TA.AperFunction,ComponentPad*
%ADD34C,4.000000*%
G04 #@! TD*
G04 #@! TA.AperFunction,ComponentPad*
%ADD35C,7.400000*%
G04 #@! TD*
G04 #@! TA.AperFunction,ViaPad*
%ADD36C,0.800000*%
G04 #@! TD*
G04 #@! TA.AperFunction,Conductor*
%ADD37C,2.000000*%
G04 #@! TD*
G04 #@! TA.AperFunction,Conductor*
%ADD38C,1.000000*%
G04 #@! TD*
G04 #@! TA.AperFunction,Conductor*
%ADD39C,2.500000*%
G04 #@! TD*
G04 #@! TA.AperFunction,Conductor*
%ADD40C,0.500000*%
G04 #@! TD*
G04 #@! TA.AperFunction,Conductor*
%ADD41C,0.200000*%
G04 #@! TD*
G04 #@! TA.AperFunction,Conductor*
%ADD42C,0.300000*%
G04 #@! TD*
G04 APERTURE END LIST*
D10*
D11*
X180357857Y-24506071D02*
X180357857Y-25506071D01*
X180715000Y-23934642D02*
X181072142Y-25006071D01*
X180143571Y-25006071D01*
X179572142Y-24934642D02*
X178429285Y-24934642D01*
X177000714Y-25506071D02*
X177715000Y-25506071D01*
X177715000Y-24006071D01*
X176500714Y-25506071D02*
X176500714Y-24506071D01*
X176500714Y-24006071D02*
X176572142Y-24077500D01*
X176500714Y-24148928D01*
X176429285Y-24077500D01*
X176500714Y-24006071D01*
X176500714Y-24148928D01*
X175786428Y-24506071D02*
X175786428Y-25506071D01*
X175786428Y-24648928D02*
X175715000Y-24577500D01*
X175572142Y-24506071D01*
X175357857Y-24506071D01*
X175215000Y-24577500D01*
X175143571Y-24720357D01*
X175143571Y-25506071D01*
X173857857Y-25434642D02*
X174000714Y-25506071D01*
X174286428Y-25506071D01*
X174429285Y-25434642D01*
X174500714Y-25291785D01*
X174500714Y-24720357D01*
X174429285Y-24577500D01*
X174286428Y-24506071D01*
X174000714Y-24506071D01*
X173857857Y-24577500D01*
X173786428Y-24720357D01*
X173786428Y-24863214D01*
X174500714Y-25006071D01*
X171143571Y-25363214D02*
X171215000Y-25434642D01*
X171429285Y-25506071D01*
X171572142Y-25506071D01*
X171786428Y-25434642D01*
X171929285Y-25291785D01*
X172000714Y-25148928D01*
X172072142Y-24863214D01*
X172072142Y-24648928D01*
X172000714Y-24363214D01*
X171929285Y-24220357D01*
X171786428Y-24077500D01*
X171572142Y-24006071D01*
X171429285Y-24006071D01*
X171215000Y-24077500D01*
X171143571Y-24148928D01*
X170286428Y-25506071D02*
X170429285Y-25434642D01*
X170500714Y-25363214D01*
X170572142Y-25220357D01*
X170572142Y-24791785D01*
X170500714Y-24648928D01*
X170429285Y-24577500D01*
X170286428Y-24506071D01*
X170072142Y-24506071D01*
X169929285Y-24577500D01*
X169857857Y-24648928D01*
X169786428Y-24791785D01*
X169786428Y-25220357D01*
X169857857Y-25363214D01*
X169929285Y-25434642D01*
X170072142Y-25506071D01*
X170286428Y-25506071D01*
X169143571Y-25506071D02*
X169143571Y-24506071D01*
X169143571Y-24006071D02*
X169215000Y-24077500D01*
X169143571Y-24148928D01*
X169072142Y-24077500D01*
X169143571Y-24006071D01*
X169143571Y-24148928D01*
X168429285Y-24506071D02*
X168429285Y-25506071D01*
X168429285Y-24648928D02*
X168357857Y-24577500D01*
X168215000Y-24506071D01*
X168000714Y-24506071D01*
X167857857Y-24577500D01*
X167786428Y-24720357D01*
X167786428Y-25506071D01*
X165072142Y-25363214D02*
X165143571Y-25434642D01*
X165357857Y-25506071D01*
X165500714Y-25506071D01*
X165715000Y-25434642D01*
X165857857Y-25291785D01*
X165929285Y-25148928D01*
X166000714Y-24863214D01*
X166000714Y-24648928D01*
X165929285Y-24363214D01*
X165857857Y-24220357D01*
X165715000Y-24077500D01*
X165500714Y-24006071D01*
X165357857Y-24006071D01*
X165143571Y-24077500D01*
X165072142Y-24148928D01*
X164215000Y-25506071D02*
X164357857Y-25434642D01*
X164429285Y-25363214D01*
X164500714Y-25220357D01*
X164500714Y-24791785D01*
X164429285Y-24648928D01*
X164357857Y-24577500D01*
X164215000Y-24506071D01*
X164000714Y-24506071D01*
X163857857Y-24577500D01*
X163786428Y-24648928D01*
X163715000Y-24791785D01*
X163715000Y-25220357D01*
X163786428Y-25363214D01*
X163857857Y-25434642D01*
X164000714Y-25506071D01*
X164215000Y-25506071D01*
X163072142Y-24506071D02*
X163072142Y-25506071D01*
X163072142Y-24648928D02*
X163000714Y-24577500D01*
X162857857Y-24506071D01*
X162643571Y-24506071D01*
X162500714Y-24577500D01*
X162429285Y-24720357D01*
X162429285Y-25506071D01*
X161929285Y-24506071D02*
X161357857Y-24506071D01*
X161715000Y-24006071D02*
X161715000Y-25291785D01*
X161643571Y-25434642D01*
X161500714Y-25506071D01*
X161357857Y-25506071D01*
X160857857Y-25506071D02*
X160857857Y-24506071D01*
X160857857Y-24791785D02*
X160786428Y-24648928D01*
X160715000Y-24577500D01*
X160572142Y-24506071D01*
X160429285Y-24506071D01*
X159715000Y-25506071D02*
X159857857Y-25434642D01*
X159929285Y-25363214D01*
X160000714Y-25220357D01*
X160000714Y-24791785D01*
X159929285Y-24648928D01*
X159857857Y-24577500D01*
X159715000Y-24506071D01*
X159500714Y-24506071D01*
X159357857Y-24577500D01*
X159286428Y-24648928D01*
X159215000Y-24791785D01*
X159215000Y-25220357D01*
X159286428Y-25363214D01*
X159357857Y-25434642D01*
X159500714Y-25506071D01*
X159715000Y-25506071D01*
X158357857Y-25506071D02*
X158500714Y-25434642D01*
X158572142Y-25291785D01*
X158572142Y-24006071D01*
X157572142Y-25506071D02*
X157715000Y-25434642D01*
X157786428Y-25291785D01*
X157786428Y-24006071D01*
X156429285Y-25434642D02*
X156572142Y-25506071D01*
X156857857Y-25506071D01*
X157000714Y-25434642D01*
X157072142Y-25291785D01*
X157072142Y-24720357D01*
X157000714Y-24577500D01*
X156857857Y-24506071D01*
X156572142Y-24506071D01*
X156429285Y-24577500D01*
X156357857Y-24720357D01*
X156357857Y-24863214D01*
X157072142Y-25006071D01*
X155715000Y-25506071D02*
X155715000Y-24506071D01*
X155715000Y-24791785D02*
X155643571Y-24648928D01*
X155572142Y-24577500D01*
X155429285Y-24506071D01*
X155286428Y-24506071D01*
X153643571Y-25506071D02*
X153643571Y-24006071D01*
X153000714Y-25434642D02*
X152857857Y-25506071D01*
X152572142Y-25506071D01*
X152429285Y-25434642D01*
X152357857Y-25291785D01*
X152357857Y-25220357D01*
X152429285Y-25077500D01*
X152572142Y-25006071D01*
X152786428Y-25006071D01*
X152929285Y-24934642D01*
X153000714Y-24791785D01*
X153000714Y-24720357D01*
X152929285Y-24577500D01*
X152786428Y-24506071D01*
X152572142Y-24506071D01*
X152429285Y-24577500D01*
X151786428Y-25434642D02*
X151643571Y-25506071D01*
X151357857Y-25506071D01*
X151215000Y-25434642D01*
X151143571Y-25291785D01*
X151143571Y-25220357D01*
X151215000Y-25077500D01*
X151357857Y-25006071D01*
X151572142Y-25006071D01*
X151715000Y-24934642D01*
X151786428Y-24791785D01*
X151786428Y-24720357D01*
X151715000Y-24577500D01*
X151572142Y-24506071D01*
X151357857Y-24506071D01*
X151215000Y-24577500D01*
X149429285Y-24148928D02*
X149357857Y-24077500D01*
X149215000Y-24006071D01*
X148857857Y-24006071D01*
X148715000Y-24077500D01*
X148643571Y-24148928D01*
X148572142Y-24291785D01*
X148572142Y-24434642D01*
X148643571Y-24648928D01*
X149500714Y-25506071D01*
X148572142Y-25506071D01*
X147929285Y-25363214D02*
X147857857Y-25434642D01*
X147929285Y-25506071D01*
X148000714Y-25434642D01*
X147929285Y-25363214D01*
X147929285Y-25506071D01*
X183893571Y-28492500D02*
X183965000Y-28421071D01*
X184107857Y-28206785D01*
X184179285Y-28063928D01*
X184250714Y-27849642D01*
X184322142Y-27492500D01*
X184322142Y-27206785D01*
X184250714Y-26849642D01*
X184179285Y-26635357D01*
X184107857Y-26492500D01*
X183965000Y-26278214D01*
X183893571Y-26206785D01*
X182679285Y-27849642D02*
X182822142Y-27921071D01*
X183107857Y-27921071D01*
X183250714Y-27849642D01*
X183322142Y-27778214D01*
X183393571Y-27635357D01*
X183393571Y-27206785D01*
X183322142Y-27063928D01*
X183250714Y-26992500D01*
X183107857Y-26921071D01*
X182822142Y-26921071D01*
X182679285Y-26992500D01*
X182179285Y-28492500D02*
X182107857Y-28421071D01*
X181965000Y-28206785D01*
X181893571Y-28063928D01*
X181822142Y-27849642D01*
X181750714Y-27492500D01*
X181750714Y-27206785D01*
X181822142Y-26849642D01*
X181893571Y-26635357D01*
X181965000Y-26492500D01*
X182107857Y-26278214D01*
X182179285Y-26206785D01*
X179965000Y-26563928D02*
X179893571Y-26492500D01*
X179750714Y-26421071D01*
X179393571Y-26421071D01*
X179250714Y-26492500D01*
X179179285Y-26563928D01*
X179107857Y-26706785D01*
X179107857Y-26849642D01*
X179179285Y-27063928D01*
X180036428Y-27921071D01*
X179107857Y-27921071D01*
X178179285Y-26421071D02*
X178036428Y-26421071D01*
X177893571Y-26492500D01*
X177822142Y-26563928D01*
X177750714Y-26706785D01*
X177679285Y-26992500D01*
X177679285Y-27349642D01*
X177750714Y-27635357D01*
X177822142Y-27778214D01*
X177893571Y-27849642D01*
X178036428Y-27921071D01*
X178179285Y-27921071D01*
X178322142Y-27849642D01*
X178393571Y-27778214D01*
X178465000Y-27635357D01*
X178536428Y-27349642D01*
X178536428Y-26992500D01*
X178465000Y-26706785D01*
X178393571Y-26563928D01*
X178322142Y-26492500D01*
X178179285Y-26421071D01*
X177107857Y-26563928D02*
X177036428Y-26492500D01*
X176893571Y-26421071D01*
X176536428Y-26421071D01*
X176393571Y-26492500D01*
X176322142Y-26563928D01*
X176250714Y-26706785D01*
X176250714Y-26849642D01*
X176322142Y-27063928D01*
X177179285Y-27921071D01*
X176250714Y-27921071D01*
X175322142Y-26421071D02*
X175179285Y-26421071D01*
X175036428Y-26492500D01*
X174965000Y-26563928D01*
X174893571Y-26706785D01*
X174822142Y-26992500D01*
X174822142Y-27349642D01*
X174893571Y-27635357D01*
X174965000Y-27778214D01*
X175036428Y-27849642D01*
X175179285Y-27921071D01*
X175322142Y-27921071D01*
X175465000Y-27849642D01*
X175536428Y-27778214D01*
X175607857Y-27635357D01*
X175679285Y-27349642D01*
X175679285Y-26992500D01*
X175607857Y-26706785D01*
X175536428Y-26563928D01*
X175465000Y-26492500D01*
X175322142Y-26421071D01*
X173036428Y-27921071D02*
X173036428Y-26421071D01*
X173036428Y-27135357D02*
X172179285Y-27135357D01*
X172179285Y-27921071D02*
X172179285Y-26421071D01*
X171250714Y-27921071D02*
X171393571Y-27849642D01*
X171465000Y-27778214D01*
X171536428Y-27635357D01*
X171536428Y-27206785D01*
X171465000Y-27063928D01*
X171393571Y-26992500D01*
X171250714Y-26921071D01*
X171036428Y-26921071D01*
X170893571Y-26992500D01*
X170822142Y-27063928D01*
X170750714Y-27206785D01*
X170750714Y-27635357D01*
X170822142Y-27778214D01*
X170893571Y-27849642D01*
X171036428Y-27921071D01*
X171250714Y-27921071D01*
X170250714Y-26921071D02*
X169965000Y-27921071D01*
X169679285Y-27206785D01*
X169393571Y-27921071D01*
X169107857Y-26921071D01*
X167893571Y-27921071D02*
X167893571Y-27135357D01*
X167965000Y-26992500D01*
X168107857Y-26921071D01*
X168393571Y-26921071D01*
X168536428Y-26992500D01*
X167893571Y-27849642D02*
X168036428Y-27921071D01*
X168393571Y-27921071D01*
X168536428Y-27849642D01*
X168607857Y-27706785D01*
X168607857Y-27563928D01*
X168536428Y-27421071D01*
X168393571Y-27349642D01*
X168036428Y-27349642D01*
X167893571Y-27278214D01*
X167179285Y-27921071D02*
X167179285Y-26921071D01*
X167179285Y-27206785D02*
X167107857Y-27063928D01*
X167036428Y-26992500D01*
X166893571Y-26921071D01*
X166750714Y-26921071D01*
X165607857Y-27921071D02*
X165607857Y-26421071D01*
X165607857Y-27849642D02*
X165750714Y-27921071D01*
X166036428Y-27921071D01*
X166179285Y-27849642D01*
X166250714Y-27778214D01*
X166322142Y-27635357D01*
X166322142Y-27206785D01*
X166250714Y-27063928D01*
X166179285Y-26992500D01*
X166036428Y-26921071D01*
X165750714Y-26921071D01*
X165607857Y-26992500D01*
X163750714Y-27921071D02*
X163750714Y-26421071D01*
X163250714Y-27492500D01*
X162750714Y-26421071D01*
X162750714Y-27921071D01*
X162036428Y-27778214D02*
X161965000Y-27849642D01*
X162036428Y-27921071D01*
X162107857Y-27849642D01*
X162036428Y-27778214D01*
X162036428Y-27921071D01*
X160179285Y-27921071D02*
X160179285Y-26421071D01*
X160179285Y-27135357D02*
X159322142Y-27135357D01*
X159322142Y-27921071D02*
X159322142Y-26421071D01*
X157965000Y-27921071D02*
X157965000Y-27135357D01*
X158036428Y-26992500D01*
X158179285Y-26921071D01*
X158465000Y-26921071D01*
X158607857Y-26992500D01*
X157965000Y-27849642D02*
X158107857Y-27921071D01*
X158465000Y-27921071D01*
X158607857Y-27849642D01*
X158679285Y-27706785D01*
X158679285Y-27563928D01*
X158607857Y-27421071D01*
X158465000Y-27349642D01*
X158107857Y-27349642D01*
X157965000Y-27278214D01*
X157250714Y-27921071D02*
X157250714Y-26921071D01*
X157250714Y-27206785D02*
X157179285Y-27063928D01*
X157107857Y-26992500D01*
X156965000Y-26921071D01*
X156822142Y-26921071D01*
X156536428Y-26921071D02*
X155965000Y-26921071D01*
X156322142Y-26421071D02*
X156322142Y-27706785D01*
X156250714Y-27849642D01*
X156107857Y-27921071D01*
X155965000Y-27921071D01*
X154893571Y-27849642D02*
X155036428Y-27921071D01*
X155322142Y-27921071D01*
X155465000Y-27849642D01*
X155536428Y-27706785D01*
X155536428Y-27135357D01*
X155465000Y-26992500D01*
X155322142Y-26921071D01*
X155036428Y-26921071D01*
X154893571Y-26992500D01*
X154822142Y-27135357D01*
X154822142Y-27278214D01*
X155536428Y-27421071D01*
X153036428Y-27349642D02*
X151893571Y-27349642D01*
X150179285Y-26421071D02*
X149822142Y-27921071D01*
X149536428Y-26849642D01*
X149250714Y-27921071D01*
X148893571Y-26421071D01*
X148465000Y-26421071D02*
X147465000Y-26421071D01*
X148465000Y-27921071D01*
X147465000Y-27921071D01*
X146965000Y-26563928D02*
X146893571Y-26492500D01*
X146750714Y-26421071D01*
X146393571Y-26421071D01*
X146250714Y-26492500D01*
X146179285Y-26563928D01*
X146107857Y-26706785D01*
X146107857Y-26849642D01*
X146179285Y-27063928D01*
X147036428Y-27921071D01*
X146107857Y-27921071D01*
X144465000Y-28063928D02*
X144607857Y-27992500D01*
X144750714Y-27849642D01*
X144965000Y-27635357D01*
X145107857Y-27563928D01*
X145250714Y-27563928D01*
X145179285Y-27921071D02*
X145322142Y-27849642D01*
X145465000Y-27706785D01*
X145536428Y-27421071D01*
X145536428Y-26921071D01*
X145465000Y-26635357D01*
X145322142Y-26492500D01*
X145179285Y-26421071D01*
X144893571Y-26421071D01*
X144750714Y-26492500D01*
X144607857Y-26635357D01*
X144536428Y-26921071D01*
X144536428Y-27421071D01*
X144607857Y-27706785D01*
X144750714Y-27849642D01*
X144893571Y-27921071D01*
X145179285Y-27921071D01*
D10*
D11*
X210530580Y-170858571D02*
X210343080Y-169358571D01*
X209985937Y-169358571D01*
X209780580Y-169430000D01*
X209655580Y-169572857D01*
X209602008Y-169715714D01*
X209566294Y-170001428D01*
X209593080Y-170215714D01*
X209700223Y-170501428D01*
X209789508Y-170644285D01*
X209950223Y-170787142D01*
X210173437Y-170858571D01*
X210530580Y-170858571D01*
X209048437Y-170430000D02*
X208334151Y-170430000D01*
X209244866Y-170858571D02*
X208557366Y-169358571D01*
X208244866Y-170858571D01*
X207744866Y-170858571D02*
X207557366Y-169358571D01*
X206887723Y-170858571D01*
X206700223Y-169358571D01*
X205209151Y-169430000D02*
X205343080Y-169358571D01*
X205557366Y-169358571D01*
X205780580Y-169430000D01*
X205941294Y-169572857D01*
X206030580Y-169715714D01*
X206137723Y-170001428D01*
X206164508Y-170215714D01*
X206128794Y-170501428D01*
X206075223Y-170644285D01*
X205950223Y-170787142D01*
X205744866Y-170858571D01*
X205602008Y-170858571D01*
X205378794Y-170787142D01*
X205298437Y-170715714D01*
X205235937Y-170215714D01*
X205521651Y-170215714D01*
X204575223Y-170072857D02*
X204075223Y-170072857D01*
X203959151Y-170858571D02*
X204673437Y-170858571D01*
X204485937Y-169358571D01*
X203771651Y-169358571D01*
X202459151Y-170858571D02*
X202869866Y-170144285D01*
X203316294Y-170858571D02*
X203128794Y-169358571D01*
X202557366Y-169358571D01*
X202423437Y-169430000D01*
X202360937Y-169501428D01*
X202307366Y-169644285D01*
X202334151Y-169858571D01*
X202423437Y-170001428D01*
X202503794Y-170072857D01*
X202655580Y-170144285D01*
X203227008Y-170144285D01*
X200602008Y-170287142D02*
X199459151Y-170287142D01*
X197673437Y-170858571D02*
X197485937Y-169358571D01*
X197575223Y-170072857D02*
X196718080Y-170072857D01*
X196816294Y-170858571D02*
X196628794Y-169358571D01*
X196102008Y-170858571D02*
X195914508Y-169358571D01*
X194423437Y-169430000D02*
X194557366Y-169358571D01*
X194771651Y-169358571D01*
X194994866Y-169430000D01*
X195155580Y-169572857D01*
X195244866Y-169715714D01*
X195352008Y-170001428D01*
X195378794Y-170215714D01*
X195343080Y-170501428D01*
X195289508Y-170644285D01*
X195164508Y-170787142D01*
X194959151Y-170858571D01*
X194816294Y-170858571D01*
X194593080Y-170787142D01*
X194512723Y-170715714D01*
X194450223Y-170215714D01*
X194735937Y-170215714D01*
X193887723Y-170858571D02*
X193700223Y-169358571D01*
X193789508Y-170072857D02*
X192932366Y-170072857D01*
X193030580Y-170858571D02*
X192843080Y-169358571D01*
X191200223Y-169358571D02*
X190887723Y-170858571D01*
X190200223Y-169358571D01*
X189414508Y-169358571D02*
X189128794Y-169358571D01*
X188994866Y-169430000D01*
X188869866Y-169572857D01*
X188834151Y-169858571D01*
X188896651Y-170358571D01*
X189003794Y-170644285D01*
X189164508Y-170787142D01*
X189316294Y-170858571D01*
X189602008Y-170858571D01*
X189735937Y-170787142D01*
X189860937Y-170644285D01*
X189896651Y-170358571D01*
X189834151Y-169858571D01*
X189727008Y-169572857D01*
X189566294Y-169430000D01*
X189414508Y-169358571D01*
X187602008Y-170858571D02*
X188316294Y-170858571D01*
X188128794Y-169358571D01*
X187128794Y-169358571D02*
X186271651Y-169358571D01*
X186887723Y-170858571D02*
X186700223Y-169358571D01*
X185977008Y-170430000D02*
X185262723Y-170430000D01*
X186173437Y-170858571D02*
X185485937Y-169358571D01*
X185173437Y-170858571D01*
X183709151Y-169430000D02*
X183843080Y-169358571D01*
X184057366Y-169358571D01*
X184280580Y-169430000D01*
X184441294Y-169572857D01*
X184530580Y-169715714D01*
X184637723Y-170001428D01*
X184664508Y-170215714D01*
X184628794Y-170501428D01*
X184575223Y-170644285D01*
X184450223Y-170787142D01*
X184244866Y-170858571D01*
X184102008Y-170858571D01*
X183878794Y-170787142D01*
X183798437Y-170715714D01*
X183735937Y-170215714D01*
X184021651Y-170215714D01*
X183075223Y-170072857D02*
X182575223Y-170072857D01*
X182459151Y-170858571D02*
X183173437Y-170858571D01*
X182985937Y-169358571D01*
X182271651Y-169358571D01*
X180602008Y-170287142D02*
X179459151Y-170287142D01*
X180102008Y-170858571D02*
X179959151Y-169715714D01*
X177548437Y-169287142D02*
X179075223Y-171215714D01*
X177173437Y-170287142D02*
X176030580Y-170287142D01*
X173459151Y-170858571D02*
X174316294Y-170858571D01*
X173887723Y-170858571D02*
X173700223Y-169358571D01*
X173869866Y-169572857D01*
X174030580Y-169715714D01*
X174182366Y-169787142D01*
X172771651Y-169358571D02*
X171843080Y-169358571D01*
X172414508Y-169930000D01*
X172200223Y-169930000D01*
X172066294Y-170001428D01*
X172003794Y-170072857D01*
X171950223Y-170215714D01*
X171994866Y-170572857D01*
X172084151Y-170715714D01*
X172164508Y-170787142D01*
X172316294Y-170858571D01*
X172744866Y-170858571D01*
X172878794Y-170787142D01*
X172941294Y-170715714D01*
X170914508Y-169358571D02*
X170771651Y-169358571D01*
X170637723Y-169430000D01*
X170575223Y-169501428D01*
X170521651Y-169644285D01*
X170485937Y-169930000D01*
X170530580Y-170287142D01*
X170637723Y-170572857D01*
X170727008Y-170715714D01*
X170807366Y-170787142D01*
X170959151Y-170858571D01*
X171102008Y-170858571D01*
X171235937Y-170787142D01*
X171298437Y-170715714D01*
X171352008Y-170572857D01*
X171387723Y-170287142D01*
X171343080Y-169930000D01*
X171235937Y-169644285D01*
X171146651Y-169501428D01*
X171066294Y-169430000D01*
X170914508Y-169358571D01*
X169985937Y-169358571D02*
X169673437Y-170858571D01*
X168985937Y-169358571D01*
X168673437Y-170858571D02*
X168485937Y-169358571D01*
X168128794Y-169358571D01*
X167923437Y-169430000D01*
X167798437Y-169572857D01*
X167744866Y-169715714D01*
X167709151Y-170001428D01*
X167735937Y-170215714D01*
X167843080Y-170501428D01*
X167932366Y-170644285D01*
X168093080Y-170787142D01*
X168316294Y-170858571D01*
X168673437Y-170858571D01*
X166298437Y-170715714D02*
X166378794Y-170787142D01*
X166602008Y-170858571D01*
X166744866Y-170858571D01*
X166950223Y-170787142D01*
X167075223Y-170644285D01*
X167128794Y-170501428D01*
X167164508Y-170215714D01*
X167137723Y-170001428D01*
X167030580Y-169715714D01*
X166941294Y-169572857D01*
X166780580Y-169430000D01*
X166557366Y-169358571D01*
X166414508Y-169358571D01*
X166209151Y-169430000D01*
X166146651Y-169501428D01*
X165655580Y-170715714D02*
X165593080Y-170787142D01*
X165673437Y-170858571D01*
X165735937Y-170787142D01*
X165655580Y-170715714D01*
X165673437Y-170858571D01*
X165602008Y-170287142D02*
X165566294Y-169430000D01*
X165485937Y-169358571D01*
X165423437Y-169430000D01*
X165602008Y-170287142D01*
X165485937Y-169358571D01*
D12*
X185420000Y-144780000D03*
X185420000Y-149780000D03*
D13*
X167640000Y-134620000D03*
D12*
X164140000Y-134620000D03*
X116840000Y-158750000D03*
X116840000Y-153750000D03*
X132080000Y-148590000D03*
X132080000Y-153590000D03*
X152400000Y-66040000D03*
X152400000Y-68540000D03*
X132080000Y-71120000D03*
X132080000Y-73620000D03*
X134620000Y-36830000D03*
X137120000Y-36830000D03*
X132080000Y-91400000D03*
X132080000Y-88900000D03*
X135890000Y-148590000D03*
X135890000Y-151090000D03*
X167640000Y-52070000D03*
X165140000Y-52070000D03*
D13*
X151130000Y-116840000D03*
D14*
X151130000Y-124460000D03*
D13*
X208280000Y-154940000D03*
D14*
X208280000Y-162560000D03*
D13*
X181610000Y-123190000D03*
D14*
X181610000Y-130810000D03*
D13*
X181610000Y-73660000D03*
D14*
X181610000Y-81280000D03*
D13*
X181610000Y-110490000D03*
D14*
X181610000Y-118110000D03*
D13*
X181610000Y-60960000D03*
D14*
X181610000Y-68580000D03*
D13*
X181610000Y-98425000D03*
D14*
X181610000Y-106045000D03*
D13*
X181610000Y-48260000D03*
D14*
X181610000Y-55880000D03*
D13*
X181610000Y-85725000D03*
D14*
X181610000Y-93345000D03*
D13*
X181610000Y-36195000D03*
D14*
X181610000Y-43815000D03*
D15*
X238760000Y-152908000D03*
D16*
X238760000Y-155448000D03*
D17*
X96980000Y-157480000D03*
X90980000Y-157480000D03*
D18*
X93980000Y-162180000D03*
D19*
X96520000Y-104140000D03*
D20*
X99060000Y-105410000D03*
X96520000Y-106680000D03*
X99060000Y-107950000D03*
X96520000Y-109220000D03*
X99060000Y-110490000D03*
X96520000Y-111760000D03*
X99060000Y-113030000D03*
D21*
X191770000Y-144780000D03*
D22*
X194310000Y-144780000D03*
X196850000Y-144780000D03*
D19*
X96520000Y-124460000D03*
D20*
X99060000Y-125730000D03*
X96520000Y-127000000D03*
X99060000Y-128270000D03*
X96520000Y-129540000D03*
X99060000Y-130810000D03*
X96520000Y-132080000D03*
X99060000Y-133350000D03*
D23*
X119380000Y-45720000D03*
D24*
X121920000Y-45720000D03*
X119380000Y-48260000D03*
X121920000Y-48260000D03*
X119380000Y-50800000D03*
X121920000Y-50800000D03*
X119380000Y-53340000D03*
X121920000Y-53340000D03*
X119380000Y-55880000D03*
X121920000Y-55880000D03*
X119380000Y-58420000D03*
X121920000Y-58420000D03*
X119380000Y-60960000D03*
X121920000Y-60960000D03*
X119380000Y-63500000D03*
X121920000Y-63500000D03*
X119380000Y-66040000D03*
X121920000Y-66040000D03*
X119380000Y-68580000D03*
X121920000Y-68580000D03*
D21*
X97028000Y-83820000D03*
D25*
X97028000Y-81320000D03*
X95028000Y-81320000D03*
X95028000Y-83820000D03*
D26*
X92318000Y-76550000D03*
X92318000Y-88590000D03*
D27*
X214095001Y-162675001D03*
D28*
X221715001Y-162675001D03*
X226795001Y-162675001D03*
X231875001Y-162675001D03*
X231875001Y-155055001D03*
X226795001Y-155055001D03*
X221715001Y-155055001D03*
X214095001Y-155055001D03*
D27*
X214095001Y-150295001D03*
D28*
X221715001Y-150295001D03*
X226795001Y-150295001D03*
X231875001Y-150295001D03*
X231875001Y-142675001D03*
X226795001Y-142675001D03*
X221715001Y-142675001D03*
X214095001Y-142675001D03*
D27*
X186690000Y-118110000D03*
D28*
X194310000Y-118110000D03*
X199390000Y-118110000D03*
X204470000Y-118110000D03*
X204470000Y-110490000D03*
X199390000Y-110490000D03*
X194310000Y-110490000D03*
X186690000Y-110490000D03*
D27*
X186690000Y-106045000D03*
D28*
X194310000Y-106045000D03*
X199390000Y-106045000D03*
X204470000Y-106045000D03*
X204470000Y-98425000D03*
X199390000Y-98425000D03*
X194310000Y-98425000D03*
X186690000Y-98425000D03*
D27*
X186690000Y-93345000D03*
D28*
X194310000Y-93345000D03*
X199390000Y-93345000D03*
X204470000Y-93345000D03*
X204470000Y-85725000D03*
X199390000Y-85725000D03*
X194310000Y-85725000D03*
X186690000Y-85725000D03*
D27*
X186690000Y-81280000D03*
D28*
X194310000Y-81280000D03*
X199390000Y-81280000D03*
X204470000Y-81280000D03*
X204470000Y-73660000D03*
X199390000Y-73660000D03*
X194310000Y-73660000D03*
X186690000Y-73660000D03*
D27*
X186690000Y-55880000D03*
D28*
X194310000Y-55880000D03*
X199390000Y-55880000D03*
X204470000Y-55880000D03*
X204470000Y-48260000D03*
X199390000Y-48260000D03*
X194310000Y-48260000D03*
X186690000Y-48260000D03*
D27*
X186690000Y-43815000D03*
D28*
X194310000Y-43815000D03*
X199390000Y-43815000D03*
X204470000Y-43815000D03*
X204470000Y-36195000D03*
X199390000Y-36195000D03*
X194310000Y-36195000D03*
X186690000Y-36195000D03*
D27*
X154940000Y-124460000D03*
D28*
X162560000Y-124460000D03*
X167640000Y-124460000D03*
X172720000Y-124460000D03*
X172720000Y-116840000D03*
X167640000Y-116840000D03*
X162560000Y-116840000D03*
X154940000Y-116840000D03*
D29*
X142370000Y-161290000D03*
X144910000Y-161290000D03*
X157610000Y-161290000D03*
X160150000Y-161290000D03*
X162690000Y-161290000D03*
X167770000Y-161290000D03*
X167770000Y-146050000D03*
X162690000Y-146050000D03*
X160150000Y-146050000D03*
X157610000Y-146050000D03*
X144910000Y-146050000D03*
X142370000Y-146050000D03*
D30*
X204470000Y-137160000D03*
D31*
X173990000Y-137160000D03*
D12*
X137160000Y-33020000D03*
D14*
X129540000Y-33020000D03*
D30*
X212090000Y-130810000D03*
D31*
X212090000Y-110490000D03*
D30*
X212090000Y-81280000D03*
D31*
X212090000Y-60960000D03*
D30*
X212090000Y-106045000D03*
D31*
X212090000Y-85725000D03*
D30*
X212090000Y-55880000D03*
D31*
X212090000Y-35560000D03*
D32*
X162560000Y-167640000D03*
X160020000Y-170180000D03*
X157480000Y-167640000D03*
D12*
X226060000Y-124460000D03*
D14*
X218440000Y-124460000D03*
D28*
X147320000Y-31750000D03*
X140820000Y-31750000D03*
X140820000Y-36250000D03*
X147320000Y-36250000D03*
D21*
X176530000Y-146050000D03*
D22*
X176530000Y-148590000D03*
X176530000Y-153670000D03*
X176530000Y-156210000D03*
X176530000Y-158750000D03*
D27*
X121920000Y-156210000D03*
D28*
X121920000Y-153670000D03*
X121920000Y-151130000D03*
D13*
X134620000Y-45720000D03*
D14*
X134620000Y-48260000D03*
X134620000Y-50800000D03*
X134620000Y-53340000D03*
X134620000Y-55880000D03*
X134620000Y-58420000D03*
X134620000Y-60960000D03*
X134620000Y-63500000D03*
X134620000Y-66040000D03*
X134620000Y-68580000D03*
X134620000Y-71120000D03*
X134620000Y-73660000D03*
X134620000Y-76200000D03*
X134620000Y-78740000D03*
X134620000Y-81280000D03*
X134620000Y-83820000D03*
X134620000Y-86360000D03*
X134620000Y-88900000D03*
X134620000Y-91440000D03*
X134620000Y-93980000D03*
X149860000Y-93980000D03*
X149860000Y-91440000D03*
X149860000Y-88900000D03*
X149860000Y-86360000D03*
X149860000Y-83820000D03*
X149860000Y-81280000D03*
X149860000Y-78740000D03*
X149860000Y-76200000D03*
X149860000Y-73660000D03*
X149860000Y-71120000D03*
X149860000Y-68580000D03*
X149860000Y-66040000D03*
X149860000Y-63500000D03*
X149860000Y-60960000D03*
X149860000Y-58420000D03*
X149860000Y-55880000D03*
X149860000Y-53340000D03*
X149860000Y-50800000D03*
X149860000Y-48260000D03*
X149860000Y-45720000D03*
D13*
X162560000Y-78740000D03*
D14*
X162560000Y-81280000D03*
X162560000Y-83820000D03*
X162560000Y-86360000D03*
X162560000Y-88900000D03*
X162560000Y-91440000D03*
X162560000Y-93980000D03*
X170180000Y-93980000D03*
X170180000Y-91440000D03*
X170180000Y-88900000D03*
X170180000Y-86360000D03*
X170180000Y-83820000D03*
X170180000Y-81280000D03*
X170180000Y-78740000D03*
D13*
X162560000Y-55880000D03*
D14*
X162560000Y-58420000D03*
X162560000Y-60960000D03*
X162560000Y-63500000D03*
X162560000Y-66040000D03*
X162560000Y-68580000D03*
X162560000Y-71120000D03*
X170180000Y-71120000D03*
X170180000Y-68580000D03*
X170180000Y-66040000D03*
X170180000Y-63500000D03*
X170180000Y-60960000D03*
X170180000Y-58420000D03*
X170180000Y-55880000D03*
D13*
X222250000Y-132080000D03*
D14*
X222250000Y-134620000D03*
X222250000Y-137160000D03*
X229870000Y-137160000D03*
X229870000Y-134620000D03*
X229870000Y-132080000D03*
D12*
X167600000Y-74930000D03*
X165100000Y-74930000D03*
D27*
X186690000Y-130810000D03*
D28*
X194310000Y-130810000D03*
X199390000Y-130810000D03*
X204470000Y-130810000D03*
X204470000Y-123190000D03*
X199390000Y-123190000D03*
X194310000Y-123190000D03*
X186690000Y-123190000D03*
D13*
X196850000Y-162560000D03*
D12*
X196850000Y-160060000D03*
D13*
X196850000Y-153670000D03*
D12*
X196850000Y-151170000D03*
D33*
X106680000Y-158670000D03*
D30*
X106680000Y-153670000D03*
D12*
X190500000Y-153670000D03*
D14*
X180340000Y-153670000D03*
D12*
X190500000Y-158750000D03*
D14*
X180340000Y-158750000D03*
D15*
X238760000Y-102616000D03*
D16*
X238760000Y-105156000D03*
D27*
X186690000Y-68580000D03*
D28*
X194310000Y-68580000D03*
X199390000Y-68580000D03*
X204470000Y-68580000D03*
X204470000Y-60960000D03*
X199390000Y-60960000D03*
X194310000Y-60960000D03*
X186690000Y-60960000D03*
D13*
X208280000Y-142875000D03*
D14*
X208280000Y-150495000D03*
D12*
X218440000Y-105206800D03*
D14*
X226060000Y-105206800D03*
D12*
X101600000Y-46990000D03*
X101600000Y-49490000D03*
X101600000Y-52070000D03*
X101600000Y-54570000D03*
X111760000Y-41275000D03*
X109260000Y-41275000D03*
X101600000Y-57190000D03*
X101600000Y-59690000D03*
D34*
X93322000Y-66650000D03*
X93322000Y-41650000D03*
D13*
X94742000Y-59690000D03*
D12*
X94742000Y-56920000D03*
X94742000Y-54150000D03*
X94742000Y-51380000D03*
X94742000Y-48610000D03*
X91902000Y-58305000D03*
X91902000Y-55535000D03*
X91902000Y-52765000D03*
X91902000Y-49995000D03*
X101600000Y-35560000D03*
D14*
X109220000Y-35560000D03*
D13*
X104140000Y-44450000D03*
D14*
X104140000Y-46990000D03*
X104140000Y-49530000D03*
X104140000Y-52070000D03*
X104140000Y-54610000D03*
X104140000Y-57150000D03*
X104140000Y-59690000D03*
X104140000Y-62230000D03*
X111760000Y-62230000D03*
X111760000Y-59690000D03*
X111760000Y-57150000D03*
X111760000Y-54610000D03*
X111760000Y-52070000D03*
X111760000Y-49530000D03*
X111760000Y-46990000D03*
X111760000Y-44450000D03*
D21*
X134620000Y-40640000D03*
D22*
X137160000Y-40640000D03*
X139700000Y-40640000D03*
X142240000Y-40640000D03*
X144780000Y-40640000D03*
X147320000Y-40640000D03*
D12*
X93980000Y-35560000D03*
X98980000Y-35560000D03*
X233045000Y-139065000D03*
D14*
X233045000Y-128905000D03*
D12*
X88900000Y-96520000D03*
X93900000Y-96520000D03*
X88900000Y-92770000D03*
D14*
X96520000Y-92770000D03*
D12*
X114300000Y-44450000D03*
X114300000Y-46950000D03*
D21*
X215900000Y-168910000D03*
D22*
X218440000Y-168910000D03*
D21*
X106680000Y-81280000D03*
D22*
X109220000Y-81280000D03*
D35*
X91440000Y-170180000D03*
X236220000Y-170180000D03*
X91440000Y-27940000D03*
X236220000Y-27940000D03*
X91440000Y-144780000D03*
D12*
X129540000Y-71120000D03*
X129540000Y-73620000D03*
X154940000Y-66040000D03*
X154940000Y-68540000D03*
D35*
X152400000Y-137160000D03*
D12*
X147320000Y-121920000D03*
D14*
X139700000Y-121920000D03*
D12*
X135890000Y-121920000D03*
D14*
X128270000Y-121920000D03*
D13*
X116840000Y-105410000D03*
D14*
X119380000Y-105410000D03*
X121920000Y-105410000D03*
X124460000Y-105410000D03*
X127000000Y-105410000D03*
X129540000Y-105410000D03*
X132080000Y-105410000D03*
X134620000Y-105410000D03*
X137160000Y-105410000D03*
X137160000Y-97790000D03*
X134620000Y-97790000D03*
X132080000Y-97790000D03*
X129540000Y-97790000D03*
X127000000Y-97790000D03*
X124460000Y-97790000D03*
X121920000Y-97790000D03*
X119380000Y-97790000D03*
X116840000Y-97790000D03*
D13*
X139700000Y-118110000D03*
D14*
X142240000Y-118110000D03*
X144780000Y-118110000D03*
X147320000Y-118110000D03*
X147320000Y-110490000D03*
X144780000Y-110490000D03*
X142240000Y-110490000D03*
X139700000Y-110490000D03*
D13*
X128270000Y-118110000D03*
D14*
X130810000Y-118110000D03*
X133350000Y-118110000D03*
X135890000Y-118110000D03*
X135890000Y-110490000D03*
X133350000Y-110490000D03*
X130810000Y-110490000D03*
X128270000Y-110490000D03*
D13*
X105410000Y-118110000D03*
D14*
X107950000Y-118110000D03*
X110490000Y-118110000D03*
X113030000Y-118110000D03*
X113030000Y-110490000D03*
X110490000Y-110490000D03*
X107950000Y-110490000D03*
X105410000Y-110490000D03*
D12*
X124460000Y-121920000D03*
D14*
X116840000Y-121920000D03*
D12*
X113030000Y-121920000D03*
D14*
X105410000Y-121920000D03*
D13*
X116840000Y-118110000D03*
D14*
X119380000Y-118110000D03*
X121920000Y-118110000D03*
X124460000Y-118110000D03*
X124460000Y-110490000D03*
X121920000Y-110490000D03*
X119380000Y-110490000D03*
X116840000Y-110490000D03*
D12*
X111125000Y-166370000D03*
D14*
X100965000Y-166370000D03*
D12*
X111760000Y-100330000D03*
X111760000Y-102830000D03*
D36*
X149860000Y-130810000D03*
X149860000Y-113030000D03*
X191770000Y-123190000D03*
X192899999Y-124319999D03*
X148590000Y-101600000D03*
X147320000Y-100330000D03*
X146050000Y-98859979D03*
D37*
X148590000Y-163830000D02*
X146050000Y-166370000D01*
X148590000Y-154940000D02*
X148590000Y-163830000D01*
X144910000Y-151260000D02*
X148590000Y-154940000D01*
X142370000Y-146050000D02*
X144910000Y-146050000D01*
X146050000Y-166370000D02*
X132080000Y-166370000D01*
X116760000Y-158670000D02*
X116840000Y-158750000D01*
X116840000Y-158750000D02*
X119380000Y-158750000D01*
X106680000Y-158670000D02*
X111205000Y-158670000D01*
X111125000Y-158750000D02*
X111205000Y-158670000D01*
X111125000Y-166370000D02*
X111125000Y-158750000D01*
X144910000Y-146050000D02*
X144910000Y-151260000D01*
X111205000Y-158670000D02*
X116760000Y-158670000D01*
X132080000Y-166370000D02*
X121920000Y-156210000D01*
X177800000Y-144780000D02*
X185420000Y-144780000D01*
X176530000Y-146050000D02*
X177800000Y-144780000D01*
X119380000Y-158750000D02*
X121920000Y-156210000D01*
D38*
X96520000Y-87884000D02*
X96520000Y-92770000D01*
D37*
X106760000Y-153750000D02*
X106680000Y-153670000D01*
D38*
X165100000Y-74930000D02*
X165100000Y-73660000D01*
D37*
X90170000Y-72390000D02*
X86360000Y-76200000D01*
D39*
X124420000Y-91400000D02*
X116840000Y-83820000D01*
D38*
X137160000Y-105410000D02*
X137160000Y-110490000D01*
D39*
X132080000Y-91400000D02*
X124420000Y-91400000D01*
D38*
X147320000Y-113030000D02*
X147320000Y-110490000D01*
D39*
X106680000Y-153670000D02*
X91440000Y-153670000D01*
D38*
X139700000Y-110490000D02*
X137160000Y-110490000D01*
D37*
X196850000Y-156210000D02*
X196850000Y-153670000D01*
D38*
X113030000Y-113030000D02*
X110523896Y-113030000D01*
X128270000Y-110490000D02*
X124460000Y-110490000D01*
D37*
X185420000Y-149780000D02*
X185420000Y-156210000D01*
D38*
X185420000Y-162560000D02*
X189865000Y-167005000D01*
D37*
X93900000Y-99140000D02*
X93900000Y-135810000D01*
D38*
X171450000Y-144712081D02*
X175327919Y-148590000D01*
D39*
X116840000Y-68580000D02*
X96520000Y-68580000D01*
D38*
X167640000Y-124460000D02*
X165100000Y-121920000D01*
D37*
X121840000Y-153750000D02*
X121920000Y-153670000D01*
D38*
X96520000Y-41750000D02*
X98980000Y-39290000D01*
X95028000Y-83820000D02*
X95028000Y-86392000D01*
X132080000Y-73620000D02*
X126960000Y-73620000D01*
X171450000Y-128270000D02*
X171450000Y-144712081D01*
X126960000Y-73620000D02*
X121920000Y-68580000D01*
X134580000Y-73620000D02*
X134620000Y-73660000D01*
D39*
X90980000Y-157480000D02*
X90980000Y-159180000D01*
D37*
X86360000Y-97790000D02*
X87630000Y-99060000D01*
D38*
X92710000Y-62230000D02*
X96520000Y-62230000D01*
X95028000Y-86392000D02*
X96520000Y-87884000D01*
X99060000Y-38100000D02*
X98980000Y-38020000D01*
X99060000Y-62230000D02*
X96520000Y-62230000D01*
D39*
X91440000Y-144780000D02*
X91440000Y-153670000D01*
D38*
X124460000Y-110490000D02*
X124460000Y-113030000D01*
D37*
X86360000Y-76200000D02*
X86360000Y-97790000D01*
D38*
X165100000Y-73660000D02*
X162560000Y-71120000D01*
X189865000Y-167005000D02*
X230001804Y-167005000D01*
X105410000Y-110490000D02*
X105410000Y-102870000D01*
X113030000Y-110490000D02*
X113030000Y-113030000D01*
D37*
X133390000Y-153590000D02*
X135890000Y-151090000D01*
X142370000Y-161290000D02*
X144910000Y-161290000D01*
D38*
X137160000Y-110490000D02*
X135890000Y-110490000D01*
X92710000Y-62230000D02*
X89679999Y-59199999D01*
X128270000Y-113030000D02*
X135890000Y-113030000D01*
D39*
X91440000Y-157020000D02*
X90980000Y-157480000D01*
D37*
X106680000Y-148590000D02*
X106680000Y-153670000D01*
D38*
X139700000Y-113030000D02*
X147320000Y-113030000D01*
X166370000Y-114300000D02*
X170180000Y-114300000D01*
D37*
X96520000Y-62230000D02*
X96520000Y-68580000D01*
X121920000Y-153670000D02*
X132000000Y-153670000D01*
D38*
X98980000Y-39290000D02*
X98980000Y-38020000D01*
X236855000Y-152400000D02*
X236855000Y-137795000D01*
X139700000Y-40640000D02*
X140820000Y-39520000D01*
D37*
X140970000Y-160020000D02*
X142240000Y-161290000D01*
D38*
X238760000Y-152400000D02*
X236855000Y-152400000D01*
X140820000Y-39520000D02*
X140820000Y-36250000D01*
D37*
X93900000Y-96520000D02*
X93900000Y-99140000D01*
D38*
X109220000Y-38100000D02*
X99060000Y-38100000D01*
D37*
X138390000Y-151090000D02*
X140970000Y-153670000D01*
D38*
X105410000Y-102870000D02*
X101600000Y-99060000D01*
X116840000Y-110490000D02*
X113030000Y-110490000D01*
X89679999Y-49294199D02*
X91164197Y-47810001D01*
D37*
X142240000Y-161290000D02*
X142370000Y-161290000D01*
D38*
X111720000Y-102870000D02*
X111760000Y-102830000D01*
X132080000Y-73620000D02*
X134580000Y-73620000D01*
D37*
X132080000Y-153590000D02*
X133390000Y-153590000D01*
D38*
X124460000Y-110490000D02*
X124460000Y-105410000D01*
X94742000Y-47848000D02*
X94779999Y-47810001D01*
X93980000Y-99060000D02*
X93900000Y-99140000D01*
X165100000Y-115570000D02*
X166370000Y-114300000D01*
X96520000Y-46070000D02*
X96520000Y-41750000D01*
X110506948Y-113013052D02*
X107933052Y-113013052D01*
X111760000Y-46990000D02*
X114260000Y-46990000D01*
X124460000Y-113030000D02*
X116840000Y-113030000D01*
D39*
X91440000Y-153670000D02*
X91440000Y-157020000D01*
D38*
X165100000Y-121920000D02*
X165100000Y-115570000D01*
D37*
X132000000Y-153670000D02*
X132080000Y-153590000D01*
X184230000Y-148590000D02*
X185420000Y-149780000D01*
X96520000Y-68580000D02*
X92710000Y-72390000D01*
D38*
X89679999Y-59199999D02*
X89679999Y-49294199D01*
X105410000Y-102870000D02*
X111720000Y-102870000D01*
X139700000Y-113030000D02*
X139700000Y-110490000D01*
X236855000Y-137795000D02*
X236220000Y-137160000D01*
D37*
X140970000Y-153670000D02*
X140970000Y-160020000D01*
X92710000Y-72390000D02*
X90170000Y-72390000D01*
D38*
X119380000Y-68580000D02*
X96520000Y-68580000D01*
X94779999Y-47810001D02*
X96520000Y-46070000D01*
X135890000Y-113030000D02*
X135890000Y-110490000D01*
X170180000Y-114300000D02*
X172720000Y-116840000D01*
X127000000Y-105410000D02*
X124460000Y-105410000D01*
X167640000Y-124460000D02*
X171450000Y-128270000D01*
X109220000Y-35560000D02*
X109220000Y-38100000D01*
X236855000Y-160151804D02*
X236855000Y-152400000D01*
X94742000Y-48610000D02*
X94742000Y-47848000D01*
X157440000Y-68540000D02*
X160020000Y-71120000D01*
D37*
X116840000Y-153750000D02*
X121840000Y-153750000D01*
D38*
X91164197Y-47810001D02*
X94779999Y-47810001D01*
X185420000Y-156210000D02*
X185420000Y-162560000D01*
X128270000Y-113030000D02*
X128270000Y-110490000D01*
X160020000Y-71120000D02*
X162560000Y-71120000D01*
X107933052Y-113013052D02*
X105410000Y-110490000D01*
D39*
X90980000Y-159180000D02*
X93980000Y-162180000D01*
D37*
X93900000Y-135810000D02*
X106680000Y-148590000D01*
D38*
X175327919Y-148590000D02*
X176530000Y-148590000D01*
D39*
X116840000Y-83820000D02*
X116840000Y-68580000D01*
D38*
X140820000Y-36250000D02*
X147320000Y-36250000D01*
X101600000Y-99060000D02*
X93980000Y-99060000D01*
X230001804Y-167005000D02*
X236855000Y-160151804D01*
X116840000Y-113030000D02*
X116840000Y-110490000D01*
D37*
X135890000Y-151090000D02*
X138390000Y-151090000D01*
X93900000Y-95390000D02*
X96520000Y-92770000D01*
X196850000Y-156210000D02*
X196850000Y-160060000D01*
X185420000Y-156210000D02*
X196850000Y-156210000D01*
D38*
X110523896Y-113030000D02*
X110506948Y-113013052D01*
X101600000Y-59690000D02*
X99060000Y-62230000D01*
X114260000Y-46990000D02*
X114300000Y-46950000D01*
X229870000Y-137160000D02*
X236220000Y-137160000D01*
D37*
X93900000Y-96520000D02*
X93900000Y-95390000D01*
D38*
X98980000Y-35560000D02*
X98980000Y-38020000D01*
D37*
X176530000Y-148590000D02*
X184230000Y-148590000D01*
X87630000Y-99060000D02*
X93980000Y-99060000D01*
X116840000Y-153750000D02*
X106760000Y-153750000D01*
D38*
X157440000Y-68540000D02*
X154940000Y-68540000D01*
X167770000Y-134750000D02*
X167640000Y-134620000D01*
X162560000Y-118254213D02*
X162560000Y-116840000D01*
X167640000Y-127023998D02*
X162560000Y-121943998D01*
X167770000Y-161290000D02*
X167770000Y-146050000D01*
X162560000Y-121943998D02*
X162560000Y-118254213D01*
X167640000Y-134620000D02*
X167640000Y-127023998D01*
X167770000Y-146050000D02*
X167770000Y-134750000D01*
X162690000Y-140840000D02*
X164140000Y-139390000D01*
X162690000Y-146050000D02*
X162690000Y-140840000D01*
X162560000Y-161420000D02*
X162690000Y-161290000D01*
X164140000Y-126040000D02*
X162560000Y-124460000D01*
X162690000Y-161290000D02*
X162690000Y-146050000D01*
X164140000Y-139390000D02*
X164140000Y-134620000D01*
X162560000Y-167640000D02*
X162560000Y-161420000D01*
X164140000Y-134620000D02*
X164140000Y-126040000D01*
X170180000Y-78740000D02*
X170180000Y-77510000D01*
X218440000Y-124460000D02*
X218440000Y-39157198D01*
X111760000Y-44450000D02*
X114300000Y-44450000D01*
X114300000Y-44450000D02*
X118110000Y-44450000D01*
D37*
X121920000Y-151130000D02*
X124460000Y-148590000D01*
D38*
X121920000Y-45720000D02*
X119380000Y-45720000D01*
X138580001Y-35710001D02*
X138580001Y-39219999D01*
X137160000Y-34290000D02*
X138580001Y-35710001D01*
X132080000Y-71120000D02*
X134620000Y-71120000D01*
X111760000Y-97790000D02*
X109220000Y-95250000D01*
X137160000Y-33020000D02*
X137160000Y-34290000D01*
X118110000Y-44450000D02*
X119380000Y-45720000D01*
X167640000Y-43180000D02*
X167640000Y-52070000D01*
X116840000Y-97790000D02*
X111760000Y-97790000D01*
X129540000Y-71120000D02*
X132080000Y-71120000D01*
X177800000Y-33020000D02*
X167640000Y-43180000D01*
D37*
X124460000Y-148590000D02*
X132080000Y-148590000D01*
X132080000Y-148590000D02*
X135890000Y-148590000D01*
D38*
X212302802Y-33020000D02*
X177800000Y-33020000D01*
X109220000Y-95250000D02*
X109220000Y-81280000D01*
X170180000Y-77510000D02*
X167600000Y-74930000D01*
X111760000Y-100330000D02*
X111760000Y-97790000D01*
X138580001Y-39219999D02*
X137160000Y-40640000D01*
X111760000Y-41275000D02*
X111760000Y-44450000D01*
X218440000Y-39157198D02*
X212302802Y-33020000D01*
X139820001Y-30750001D02*
X131809999Y-30750001D01*
X147320000Y-31750000D02*
X140820000Y-31750000D01*
X129540000Y-33020000D02*
X129540000Y-34290000D01*
X140820000Y-31750000D02*
X139820001Y-30750001D01*
X134620000Y-36830000D02*
X134620000Y-45720000D01*
X129540000Y-34290000D02*
X132080000Y-36830000D01*
X132080000Y-36830000D02*
X134620000Y-36830000D01*
X131809999Y-30750001D02*
X129540000Y-33020000D01*
X132080000Y-88900000D02*
X134620000Y-88900000D01*
X238760000Y-105156000D02*
X226110800Y-105156000D01*
X226110800Y-105156000D02*
X226060000Y-105206800D01*
X240030000Y-154940000D02*
X238760000Y-154940000D01*
X241300000Y-153670000D02*
X240030000Y-154940000D01*
X241300000Y-127000000D02*
X241300000Y-153670000D01*
X226060000Y-124460000D02*
X238760000Y-124460000D01*
X238760000Y-124460000D02*
X241300000Y-127000000D01*
D40*
X116840000Y-121920000D02*
X116840000Y-120650000D01*
X116840000Y-120650000D02*
X119380000Y-118110000D01*
X125670001Y-119320001D02*
X124460000Y-118110000D01*
X119380000Y-118630802D02*
X123879199Y-123130001D01*
X125040801Y-123130001D02*
X125670001Y-122500801D01*
X125670001Y-122500801D02*
X125670001Y-119320001D01*
X123879199Y-123130001D02*
X125040801Y-123130001D01*
X119380000Y-118110000D02*
X119380000Y-118630802D01*
X97343198Y-107950000D02*
X98503199Y-109110001D01*
X95310011Y-107186813D02*
X96073198Y-107950000D01*
X95310011Y-105349989D02*
X95310011Y-107186813D01*
X121920000Y-115570000D02*
X124460000Y-118110000D01*
X107283200Y-115570000D02*
X121920000Y-115570000D01*
X100823201Y-109110001D02*
X107283200Y-115570000D01*
X96520000Y-104140000D02*
X95310011Y-105349989D01*
X96073198Y-107950000D02*
X97343198Y-107950000D01*
X98503199Y-109110001D02*
X100823201Y-109110001D01*
X128270000Y-120650000D02*
X130810000Y-118110000D01*
X127059999Y-117985801D02*
X127059999Y-120709999D01*
X137100001Y-122500801D02*
X137100001Y-119320001D01*
X108039187Y-114909989D02*
X123984187Y-114909989D01*
X137100001Y-119320001D02*
X135890000Y-118110000D01*
X130810000Y-119241370D02*
X134698631Y-123130001D01*
X127059999Y-120709999D02*
X128270000Y-121920000D01*
X96520000Y-106680000D02*
X99809198Y-106680000D01*
X134698631Y-123130001D02*
X136470801Y-123130001D01*
X128270000Y-121920000D02*
X128270000Y-120650000D01*
X99809198Y-106680000D02*
X108039187Y-114909989D01*
X130810000Y-118110000D02*
X130810000Y-119241370D01*
X123984187Y-114909989D02*
X127059999Y-117985801D01*
X136470801Y-123130001D02*
X137100001Y-122500801D01*
X102870000Y-124460000D02*
X137160000Y-124460000D01*
X139700000Y-121920000D02*
X139700000Y-120650000D01*
X148590000Y-119380000D02*
X148590000Y-122440802D01*
X147320000Y-118110000D02*
X148590000Y-119380000D01*
X95310011Y-116900011D02*
X102870000Y-124460000D01*
X139700000Y-120650000D02*
X142240000Y-118110000D01*
X142240000Y-119241370D02*
X142240000Y-118110000D01*
X147900801Y-123130001D02*
X146128631Y-123130001D01*
X148590000Y-122440802D02*
X147900801Y-123130001D01*
X95310011Y-110429989D02*
X95310011Y-116900011D01*
X137160000Y-124460000D02*
X139700000Y-121920000D01*
X146128631Y-123130001D02*
X142240000Y-119241370D01*
X96520000Y-109220000D02*
X95310011Y-110429989D01*
X105410000Y-121920000D02*
X105410000Y-120650000D01*
X105410000Y-120650000D02*
X107950000Y-118110000D01*
X111760000Y-116840000D02*
X113030000Y-118110000D01*
X107950000Y-118110000D02*
X109220000Y-116840000D01*
X109220000Y-116840000D02*
X111760000Y-116840000D01*
X101600000Y-111760000D02*
X107950000Y-118110000D01*
X96520000Y-111760000D02*
X101600000Y-111760000D01*
X149860000Y-113030000D02*
X149860000Y-130810000D01*
X191770000Y-63500000D02*
X194310000Y-60960000D01*
X191770000Y-123190000D02*
X191770000Y-63500000D01*
X193040000Y-69850000D02*
X192899999Y-69990001D01*
X194310000Y-68580000D02*
X193040000Y-69850000D01*
X192899999Y-69990001D02*
X192899999Y-124319999D01*
D41*
X120503601Y-49383601D02*
X133496399Y-49383601D01*
X133496399Y-49383601D02*
X134620000Y-48260000D01*
X119380000Y-48260000D02*
X120503601Y-49383601D01*
D42*
X119943329Y-49626399D02*
X118816671Y-49626399D01*
X118816671Y-49626399D02*
X111760000Y-56683070D01*
X111760000Y-56683070D02*
X111760000Y-57150000D01*
X121116930Y-50800000D02*
X119943329Y-49626399D01*
X121920000Y-50800000D02*
X121116930Y-50800000D01*
D41*
X120503601Y-51923601D02*
X133496399Y-51923601D01*
X119380000Y-50800000D02*
X120503601Y-51923601D01*
X133496399Y-51923601D02*
X134620000Y-50800000D01*
D42*
X112891370Y-54610000D02*
X118206399Y-49294971D01*
X118206399Y-47696671D02*
X118816671Y-47086399D01*
X118206399Y-49294971D02*
X118206399Y-47696671D01*
X121920000Y-48260000D02*
X120746399Y-47086399D01*
X111760000Y-54610000D02*
X112891370Y-54610000D01*
X120746399Y-47086399D02*
X118816671Y-47086399D01*
X129540000Y-53340000D02*
X128270000Y-54610000D01*
X120650000Y-54610000D02*
X119380000Y-53340000D01*
X134620000Y-53340000D02*
X129540000Y-53340000D01*
X128270000Y-54610000D02*
X120650000Y-54610000D01*
X120553601Y-57053601D02*
X133253601Y-57053601D01*
X133253601Y-57053601D02*
X134620000Y-58420000D01*
X119380000Y-55880000D02*
X120553601Y-57053601D01*
D40*
X132080000Y-60960000D02*
X129540000Y-58420000D01*
X129540000Y-58420000D02*
X121920000Y-58420000D01*
X134620000Y-60960000D02*
X132080000Y-60960000D01*
X151130000Y-43180000D02*
X147320000Y-43180000D01*
X152400000Y-44450000D02*
X151130000Y-43180000D01*
X147320000Y-43180000D02*
X144780000Y-40640000D01*
X152400000Y-45720000D02*
X152400000Y-44450000D01*
X149860000Y-48260000D02*
X152400000Y-45720000D01*
X149860000Y-45720000D02*
X147320000Y-45720000D01*
X147320000Y-45720000D02*
X142240000Y-40640000D01*
D38*
X97028000Y-83820000D02*
X104140000Y-83820000D01*
X106680000Y-81280000D02*
X104394000Y-83566000D01*
X104140000Y-83820000D02*
X104394000Y-83566000D01*
X221715001Y-155055001D02*
X223750001Y-153020001D01*
X223750001Y-136120001D02*
X223049999Y-135419999D01*
X223049999Y-135419999D02*
X222250000Y-134620000D01*
X223750001Y-153020001D02*
X223750001Y-136120001D01*
X230405002Y-139065000D02*
X233045000Y-139065000D01*
X226795001Y-142675001D02*
X230405002Y-139065000D01*
X200389999Y-129810001D02*
X199390000Y-130810000D01*
X201090001Y-119810001D02*
X201090001Y-129109999D01*
X199390000Y-118110000D02*
X201090001Y-119810001D01*
X201090001Y-129109999D02*
X200389999Y-129810001D01*
X204470000Y-130810000D02*
X212090000Y-130810000D01*
D40*
X147320000Y-120650000D02*
X144780000Y-118110000D01*
X140970000Y-116840000D02*
X143510000Y-116840000D01*
X143510000Y-116840000D02*
X144780000Y-118110000D01*
X147320000Y-121920000D02*
X147320000Y-120650000D01*
X139700000Y-118110000D02*
X140970000Y-116840000D01*
D38*
X198390001Y-122190001D02*
X199390000Y-123190000D01*
X197689999Y-121489999D02*
X198390001Y-122190001D01*
X197689999Y-112190001D02*
X197689999Y-121489999D01*
X199390000Y-110490000D02*
X197689999Y-112190001D01*
X204470000Y-123190000D02*
X208915000Y-123190000D01*
X208915000Y-123190000D02*
X212090000Y-120015000D01*
X212090000Y-120015000D02*
X212090000Y-110490000D01*
X208915000Y-98425000D02*
X212090000Y-95250000D01*
X204470000Y-98425000D02*
X208915000Y-98425000D01*
X212090000Y-95250000D02*
X212090000Y-85725000D01*
X198390001Y-97425001D02*
X199390000Y-98425000D01*
X197689999Y-96724999D02*
X198390001Y-97425001D01*
X197689999Y-87425001D02*
X197689999Y-96724999D01*
X199390000Y-85725000D02*
X197689999Y-87425001D01*
D40*
X135890000Y-120650000D02*
X133350000Y-118110000D01*
X135890000Y-121920000D02*
X135890000Y-120650000D01*
X132080000Y-116840000D02*
X133350000Y-118110000D01*
X128270000Y-118110000D02*
X129540000Y-116840000D01*
X129540000Y-116840000D02*
X132080000Y-116840000D01*
D38*
X204470000Y-106045000D02*
X212090000Y-106045000D01*
X200389999Y-105045001D02*
X199390000Y-106045000D01*
X201090001Y-104344999D02*
X200389999Y-105045001D01*
X201090001Y-95045001D02*
X201090001Y-104344999D01*
X199390000Y-93345000D02*
X201090001Y-95045001D01*
X197689999Y-79579999D02*
X198390001Y-80280001D01*
X199390000Y-68580000D02*
X197689999Y-70280001D01*
X198390001Y-80280001D02*
X199390000Y-81280000D01*
X197689999Y-70280001D02*
X197689999Y-79579999D01*
X204470000Y-81280000D02*
X212090000Y-81280000D01*
D40*
X124460000Y-120650000D02*
X121920000Y-118110000D01*
X124460000Y-121920000D02*
X124460000Y-120650000D01*
X116840000Y-118110000D02*
X118110000Y-116840000D01*
X120650000Y-116840000D02*
X121920000Y-118110000D01*
X118110000Y-116840000D02*
X120650000Y-116840000D01*
D38*
X200025000Y-60960000D02*
X201090001Y-62025001D01*
X201090001Y-71959999D02*
X200389999Y-72660001D01*
X200389999Y-72660001D02*
X199390000Y-73660000D01*
X201090001Y-62025001D02*
X201090001Y-71959999D01*
X199390000Y-60960000D02*
X200025000Y-60960000D01*
X208915000Y-73660000D02*
X212090000Y-70485000D01*
X212090000Y-70485000D02*
X212090000Y-60960000D01*
X204470000Y-73660000D02*
X208915000Y-73660000D01*
X199390000Y-43815000D02*
X197485000Y-45720000D01*
X197485000Y-53975000D02*
X199390000Y-55880000D01*
X197485000Y-53975000D02*
X197485000Y-45720000D01*
X204470000Y-55880000D02*
X212090000Y-55880000D01*
D40*
X113030000Y-120650000D02*
X110490000Y-118110000D01*
X113030000Y-121920000D02*
X113030000Y-120650000D01*
X105410000Y-118110000D02*
X104140000Y-119380000D01*
X111150011Y-123799989D02*
X113030000Y-121920000D01*
X104749989Y-123799989D02*
X111150011Y-123799989D01*
X104140000Y-123190000D02*
X104749989Y-123799989D01*
X104140000Y-119380000D02*
X104140000Y-123190000D01*
D38*
X199390000Y-36195000D02*
X201569988Y-38374988D01*
X201569988Y-38374988D02*
X201569988Y-46080012D01*
X201569988Y-46080012D02*
X200389999Y-47260001D01*
X200389999Y-47260001D02*
X199390000Y-48260000D01*
X204470000Y-48260000D02*
X209550000Y-48260000D01*
X209550000Y-48260000D02*
X212090000Y-45720000D01*
X212090000Y-45720000D02*
X212090000Y-35560000D01*
X172720000Y-124460000D02*
X172720000Y-127000000D01*
X167640000Y-116840000D02*
X167640000Y-119380000D01*
X167640000Y-119380000D02*
X172720000Y-124460000D01*
X172720000Y-127000000D02*
X173990000Y-128270000D01*
X173990000Y-128270000D02*
X173990000Y-137160000D01*
X154940000Y-168910000D02*
X154940000Y-166370000D01*
X157480000Y-165100000D02*
X157610000Y-164970000D01*
X156210000Y-170180000D02*
X154940000Y-168910000D01*
X157610000Y-164970000D02*
X157610000Y-161290000D01*
X157610000Y-161290000D02*
X157610000Y-146050000D01*
X154940000Y-166370000D02*
X156210000Y-165100000D01*
X156210000Y-165100000D02*
X157480000Y-165100000D01*
X160020000Y-170180000D02*
X156210000Y-170180000D01*
X158750000Y-167640000D02*
X160150000Y-166240000D01*
X160150000Y-146050000D02*
X160150000Y-161290000D01*
X157480000Y-167640000D02*
X158750000Y-167640000D01*
X160150000Y-166240000D02*
X160150000Y-161290000D01*
D40*
X162560000Y-88900000D02*
X160020000Y-88900000D01*
X154940000Y-93980000D02*
X149860000Y-93980000D01*
X160020000Y-88900000D02*
X154940000Y-93980000D01*
X149860000Y-76200000D02*
X165100000Y-76200000D01*
X165100000Y-76200000D02*
X170180000Y-81280000D01*
D38*
X176530000Y-158750000D02*
X180340000Y-158750000D01*
X176530000Y-153670000D02*
X180340000Y-153670000D01*
X189865000Y-123190000D02*
X189865000Y-139065000D01*
X181610000Y-60960000D02*
X186690000Y-60960000D01*
X181610000Y-36195000D02*
X186690000Y-36195000D01*
X186690000Y-123190000D02*
X189865000Y-123190000D01*
X189865000Y-39370000D02*
X189865000Y-48260000D01*
X189865000Y-48260000D02*
X189865000Y-60960000D01*
X186690000Y-36195000D02*
X189865000Y-39370000D01*
X186690000Y-85725000D02*
X181610000Y-85725000D01*
X189865000Y-60960000D02*
X189865000Y-73660000D01*
X189865000Y-123190000D02*
X189865000Y-110490000D01*
X181610000Y-48260000D02*
X186690000Y-48260000D01*
X186690000Y-110490000D02*
X181610000Y-110490000D01*
X186690000Y-60960000D02*
X189865000Y-60960000D01*
X217170000Y-144145000D02*
X215700001Y-142675001D01*
X215700001Y-142675001D02*
X214095001Y-142675001D01*
X214095001Y-155055001D02*
X216419999Y-155055001D01*
X189865000Y-98425000D02*
X189865000Y-110490000D01*
X216419999Y-155055001D02*
X217170000Y-154305000D01*
X208280000Y-154940000D02*
X213980000Y-154940000D01*
X194310000Y-144780000D02*
X194310000Y-143510000D01*
X217170000Y-154305000D02*
X217170000Y-144145000D01*
X186690000Y-123190000D02*
X181610000Y-123190000D01*
X189865000Y-85725000D02*
X189865000Y-98425000D01*
X208280000Y-142875000D02*
X213895002Y-142875000D01*
X186690000Y-98425000D02*
X189865000Y-98425000D01*
X186690000Y-110490000D02*
X189865000Y-110490000D01*
X154940000Y-116840000D02*
X151130000Y-116840000D01*
X189865000Y-73660000D02*
X189865000Y-85725000D01*
X213980000Y-154940000D02*
X214095001Y-155055001D01*
X186690000Y-98425000D02*
X181610000Y-98425000D01*
X186690000Y-73660000D02*
X181610000Y-73660000D01*
X186690000Y-73660000D02*
X189865000Y-73660000D01*
X186690000Y-85725000D02*
X189865000Y-85725000D01*
X194310000Y-143510000D02*
X189865000Y-139065000D01*
X213895002Y-142875000D02*
X214095001Y-142675001D01*
X186690000Y-48260000D02*
X189865000Y-48260000D01*
X104100000Y-49490000D02*
X104140000Y-49530000D01*
X101600000Y-49490000D02*
X104100000Y-49490000D01*
X104140000Y-44450000D02*
X101600000Y-46990000D01*
X101600000Y-54570000D02*
X104100000Y-54570000D01*
X104100000Y-54570000D02*
X104140000Y-54610000D01*
X104140000Y-52070000D02*
X101600000Y-52070000D01*
X106680000Y-46990000D02*
X104140000Y-46990000D01*
X109260000Y-41275000D02*
X109260000Y-44410000D01*
X109260000Y-44410000D02*
X106680000Y-46990000D01*
X104100000Y-57190000D02*
X104140000Y-57150000D01*
X101600000Y-57190000D02*
X104100000Y-57190000D01*
X87630000Y-64770000D02*
X89510000Y-66650000D01*
X93322000Y-41650000D02*
X89160000Y-41650000D01*
X99695000Y-33655000D02*
X101600000Y-35560000D01*
X87630000Y-43180000D02*
X87630000Y-64770000D01*
X89510000Y-66650000D02*
X93322000Y-66650000D01*
X93980000Y-35560000D02*
X93980000Y-40992000D01*
X93980000Y-40992000D02*
X93322000Y-41650000D01*
X93980000Y-35560000D02*
X95885000Y-33655000D01*
X89160000Y-41650000D02*
X87630000Y-43180000D01*
X95885000Y-33655000D02*
X99695000Y-33655000D01*
D40*
X106680000Y-52070000D02*
X105469999Y-50859999D01*
X111760000Y-52070000D02*
X106680000Y-52070000D01*
X98032001Y-50859999D02*
X94742000Y-54150000D01*
X105469999Y-50859999D02*
X98032001Y-50859999D01*
X94742000Y-56920000D02*
X98381999Y-53280001D01*
X98381999Y-53280001D02*
X112340801Y-53280001D01*
X112340801Y-53280001D02*
X112970001Y-52650801D01*
X112970001Y-50740001D02*
X111760000Y-49530000D01*
X112970001Y-52650801D02*
X112970001Y-50740001D01*
D38*
X195580000Y-162560000D02*
X196850000Y-162560000D01*
X198650000Y-162560000D02*
X200465002Y-164375002D01*
X196850000Y-162560000D02*
X198650000Y-162560000D01*
X217475000Y-164375002D02*
X226795001Y-155055001D01*
X190500000Y-158750000D02*
X191770000Y-158750000D01*
X200465002Y-164375002D02*
X217475000Y-164375002D01*
X191770000Y-158750000D02*
X195580000Y-162560000D01*
X193040000Y-151130000D02*
X193080000Y-151170000D01*
X193080000Y-151170000D02*
X196850000Y-151170000D01*
X190500000Y-153670000D02*
X193040000Y-151130000D01*
D40*
X176530000Y-118110000D02*
X170180000Y-111760000D01*
X186830011Y-141110011D02*
X176530000Y-130810000D01*
X190500000Y-148590000D02*
X186830011Y-144920011D01*
X176530000Y-130810000D02*
X176530000Y-118110000D01*
D38*
X208280000Y-162560000D02*
X213980000Y-162560000D01*
D40*
X162560000Y-91440000D02*
X160020000Y-91440000D01*
X158750000Y-92710000D02*
X158750000Y-111760000D01*
X156210000Y-124460000D02*
X154940000Y-124460000D01*
X158750000Y-121920000D02*
X156210000Y-124460000D01*
X158750000Y-111760000D02*
X158750000Y-121920000D01*
D38*
X213980000Y-162560000D02*
X214095001Y-162675001D01*
D40*
X204470000Y-158750000D02*
X204470000Y-151130000D01*
X186830011Y-144920011D02*
X186830011Y-141110011D01*
X201930000Y-148590000D02*
X190500000Y-148590000D01*
X208280000Y-162560000D02*
X204470000Y-158750000D01*
X160020000Y-91440000D02*
X158750000Y-92710000D01*
X158750000Y-111760000D02*
X170180000Y-111760000D01*
D38*
X154940000Y-124460000D02*
X151130000Y-124460000D01*
D40*
X204470000Y-151130000D02*
X201930000Y-148590000D01*
D38*
X223520000Y-104140000D02*
X225044000Y-102616000D01*
D40*
X134620000Y-81280000D02*
X135890000Y-81280000D01*
X213360000Y-30480000D02*
X220980000Y-38100000D01*
X175260000Y-30480000D02*
X213360000Y-30480000D01*
D38*
X225044000Y-102616000D02*
X238760000Y-102616000D01*
X229870000Y-134620000D02*
X223520000Y-128270000D01*
X223520000Y-128270000D02*
X223520000Y-104140000D01*
D40*
X140970000Y-53340000D02*
X144839999Y-49470001D01*
X144839999Y-49470001D02*
X156269999Y-49470001D01*
X220980000Y-38100000D02*
X220980000Y-98552000D01*
X140970000Y-76200000D02*
X140970000Y-53340000D01*
X156269999Y-49470001D02*
X175260000Y-30480000D01*
X220980000Y-98552000D02*
X225044000Y-102616000D01*
X135890000Y-81280000D02*
X140970000Y-76200000D01*
X190500000Y-147320000D02*
X203200000Y-147320000D01*
X177800000Y-129540000D02*
X187960000Y-139700000D01*
X187960000Y-139700000D02*
X187960000Y-144780000D01*
X187960000Y-144780000D02*
X190500000Y-147320000D01*
X177800000Y-116840000D02*
X177800000Y-129540000D01*
X170180000Y-109220000D02*
X177800000Y-116840000D01*
D38*
X208280000Y-150495000D02*
X213895002Y-150495000D01*
X213895002Y-150495000D02*
X214095001Y-150295001D01*
D40*
X170180000Y-93980000D02*
X170180000Y-109220000D01*
X203200000Y-147320000D02*
X206375000Y-150495000D01*
X206375000Y-150495000D02*
X208280000Y-150495000D01*
X168910000Y-90170000D02*
X166370000Y-87630000D01*
X179070000Y-129540000D02*
X179070000Y-115570000D01*
X179070000Y-115570000D02*
X173990000Y-110490000D01*
X166370000Y-82550000D02*
X165100000Y-81280000D01*
X173990000Y-91440000D02*
X172720000Y-90170000D01*
X172720000Y-90170000D02*
X168910000Y-90170000D01*
X165100000Y-81280000D02*
X162560000Y-81280000D01*
X180340000Y-130810000D02*
X179070000Y-129540000D01*
D38*
X186690000Y-130810000D02*
X181610000Y-130810000D01*
D40*
X166370000Y-87630000D02*
X166370000Y-82550000D01*
X173990000Y-110490000D02*
X173990000Y-91440000D01*
X181610000Y-130810000D02*
X180340000Y-130810000D01*
X176530000Y-77470000D02*
X176530000Y-71120000D01*
X180340000Y-81280000D02*
X176530000Y-77470000D01*
X172660001Y-67250001D02*
X166310001Y-67250001D01*
X181610000Y-81280000D02*
X180340000Y-81280000D01*
X166310001Y-67250001D02*
X162560000Y-63500000D01*
D38*
X186690000Y-81280000D02*
X181610000Y-81280000D01*
D40*
X176530000Y-71120000D02*
X172660001Y-67250001D01*
X173990000Y-88900000D02*
X170180000Y-88900000D01*
X181610000Y-118110000D02*
X181610000Y-116840000D01*
X181610000Y-116840000D02*
X176530000Y-111760000D01*
X176530000Y-111760000D02*
X176530000Y-91440000D01*
X176530000Y-91440000D02*
X173990000Y-88900000D01*
D38*
X186690000Y-118110000D02*
X181610000Y-118110000D01*
D40*
X177800000Y-68580000D02*
X181610000Y-68580000D01*
X170180000Y-66040000D02*
X175260000Y-66040000D01*
X175260000Y-66040000D02*
X177800000Y-68580000D01*
D38*
X186690000Y-68580000D02*
X181610000Y-68580000D01*
D40*
X177800000Y-86360000D02*
X177800000Y-102235000D01*
X170180000Y-83820000D02*
X175260000Y-83820000D01*
X177800000Y-102235000D02*
X181610000Y-106045000D01*
D38*
X186690000Y-106045000D02*
X181610000Y-106045000D01*
D40*
X175260000Y-83820000D02*
X177800000Y-86360000D01*
X171450000Y-60960000D02*
X176530000Y-55880000D01*
X176530000Y-55880000D02*
X181610000Y-55880000D01*
D38*
X186690000Y-55880000D02*
X181610000Y-55880000D01*
D40*
X170180000Y-60960000D02*
X171450000Y-60960000D01*
X179070000Y-92710000D02*
X179070000Y-84609198D01*
D38*
X186690000Y-93345000D02*
X181610000Y-93345000D01*
D40*
X179070000Y-84609198D02*
X163040802Y-68580000D01*
X181610000Y-93345000D02*
X179705000Y-93345000D01*
X163040802Y-68580000D02*
X162560000Y-68580000D01*
X179705000Y-93345000D02*
X179070000Y-92710000D01*
X163691370Y-58420000D02*
X178296370Y-43815000D01*
X162560000Y-58420000D02*
X163691370Y-58420000D01*
D38*
X181610000Y-43815000D02*
X186690000Y-43815000D01*
D40*
X178296370Y-43815000D02*
X181610000Y-43815000D01*
D38*
X224370002Y-160020000D02*
X233045000Y-160020000D01*
X234315000Y-158750000D02*
X234315000Y-145115000D01*
X221715001Y-162675001D02*
X224370002Y-160020000D01*
X234315000Y-145115000D02*
X231875001Y-142675001D01*
X233045000Y-160020000D02*
X234315000Y-158750000D01*
X203470001Y-109490001D02*
X204470000Y-110490000D01*
X201860010Y-140900010D02*
X201860010Y-132535990D01*
X201935000Y-140975000D02*
X201860010Y-140900010D01*
X202769999Y-112190001D02*
X204470000Y-110490000D01*
X202769999Y-62660001D02*
X202769999Y-84024999D01*
X202769999Y-108789999D02*
X203470001Y-109490001D01*
X220015000Y-140975000D02*
X201935000Y-140975000D01*
X204470000Y-85725000D02*
X202769999Y-87425001D01*
X203470001Y-59960001D02*
X204470000Y-60960000D01*
X202769999Y-84024999D02*
X203470001Y-84725001D01*
X221715001Y-142675001D02*
X220015000Y-140975000D01*
X204470000Y-36195000D02*
X202769999Y-37895001D01*
X204470000Y-60960000D02*
X202769999Y-62660001D01*
X202769999Y-131626001D02*
X202769999Y-112190001D01*
X201860010Y-132535990D02*
X202769999Y-131626001D01*
X202769999Y-37895001D02*
X202769999Y-59259999D01*
X203470001Y-84725001D02*
X204470000Y-85725000D01*
X202769999Y-59259999D02*
X204470000Y-60960000D01*
X202769999Y-87425001D02*
X202769999Y-108789999D01*
D40*
X134620000Y-55880000D02*
X121920000Y-55880000D01*
D38*
X88900000Y-92770000D02*
X88900000Y-92008000D01*
X88900000Y-92770000D02*
X88900000Y-96520000D01*
X92318000Y-88590000D02*
X92318000Y-76550000D01*
X88900000Y-92008000D02*
X92318000Y-88590000D01*
D40*
X165100000Y-77470000D02*
X167640000Y-80010000D01*
X149860000Y-78740000D02*
X152400000Y-78740000D01*
X153670000Y-77470000D02*
X165100000Y-77470000D01*
X167640000Y-83820000D02*
X170180000Y-86360000D01*
X167640000Y-80010000D02*
X167640000Y-83820000D01*
X152400000Y-78740000D02*
X153670000Y-77470000D01*
X120650000Y-80010000D02*
X120650000Y-71120000D01*
X134620000Y-86360000D02*
X127000000Y-86360000D01*
D42*
X119380000Y-66843070D02*
X119380000Y-66040000D01*
D40*
X120650000Y-80010000D02*
X127000000Y-86360000D01*
D42*
X120650000Y-71120000D02*
X120650000Y-68113070D01*
X120650000Y-68113070D02*
X119380000Y-66843070D01*
D40*
X162560000Y-53340000D02*
X162560000Y-55880000D01*
X149860000Y-50800000D02*
X160020000Y-50800000D01*
X160020000Y-50800000D02*
X162560000Y-53340000D01*
X149319199Y-67329999D02*
X161270001Y-67329999D01*
X148640022Y-69900022D02*
X148640022Y-68009176D01*
X161270001Y-67329999D02*
X162560000Y-66040000D01*
X148640022Y-68009176D02*
X149319199Y-67329999D01*
X149860000Y-71120000D02*
X148640022Y-69900022D01*
X129540000Y-68580000D02*
X124460000Y-63500000D01*
X124460000Y-63500000D02*
X121920000Y-63500000D01*
X134620000Y-68580000D02*
X129540000Y-68580000D01*
X134620000Y-66040000D02*
X130810000Y-66040000D01*
X130810000Y-66040000D02*
X125730000Y-60960000D01*
X125730000Y-60960000D02*
X121920000Y-60960000D01*
D42*
X128270000Y-59690000D02*
X121453070Y-59690000D01*
D40*
X132080000Y-63500000D02*
X128270000Y-59690000D01*
D42*
X120183070Y-58420000D02*
X119380000Y-58420000D01*
D40*
X134620000Y-63500000D02*
X132080000Y-63500000D01*
D42*
X121453070Y-59690000D02*
X120183070Y-58420000D01*
D40*
X161979199Y-62289999D02*
X159499198Y-64770000D01*
X168969999Y-62289999D02*
X161979199Y-62289999D01*
X159499198Y-64770000D02*
X148590000Y-64770000D01*
X170180000Y-63500000D02*
X168969999Y-62289999D01*
X147980011Y-71780011D02*
X149860000Y-73660000D01*
X147980011Y-65379989D02*
X147980011Y-71780011D01*
X148590000Y-64770000D02*
X147980011Y-65379989D01*
X107950000Y-110490000D02*
X109160001Y-109279999D01*
X109160001Y-108009999D02*
X119380000Y-97790000D01*
X109160001Y-109279999D02*
X109160001Y-108009999D01*
X121920000Y-97928630D02*
X121920000Y-97790000D01*
X110490000Y-109358630D02*
X121920000Y-97928630D01*
X110490000Y-110490000D02*
X110490000Y-109358630D01*
X120709999Y-106620001D02*
X120709999Y-101540001D01*
X119380000Y-107950000D02*
X120709999Y-106620001D01*
X119380000Y-110490000D02*
X119380000Y-107950000D01*
X120709999Y-101540001D02*
X124460000Y-97790000D01*
X121920000Y-110490000D02*
X123130001Y-109279999D01*
X123130001Y-109279999D02*
X123130001Y-101659999D01*
X123130001Y-101659999D02*
X127000000Y-97790000D01*
X130810000Y-99060000D02*
X129540000Y-97790000D01*
X130810000Y-110490000D02*
X130810000Y-99060000D01*
X132080000Y-103619198D02*
X132080000Y-97790000D01*
X133350000Y-104889198D02*
X132080000Y-103619198D01*
X133350000Y-110490000D02*
X133350000Y-104889198D01*
X142240000Y-110490000D02*
X142240000Y-105410000D01*
X142240000Y-105410000D02*
X134620000Y-97790000D01*
X144780000Y-110490000D02*
X144780000Y-105410000D01*
X144780000Y-105410000D02*
X137160000Y-97790000D01*
X134620000Y-99580802D02*
X133350000Y-98310802D01*
X134099198Y-96520000D02*
X139700000Y-96520000D01*
X139700000Y-96520000D02*
X142240000Y-93980000D01*
X149860000Y-58420000D02*
X144780000Y-58420000D01*
X134620000Y-105410000D02*
X134620000Y-99580802D01*
X133350000Y-98310802D02*
X133350000Y-97269198D01*
X142240000Y-60960000D02*
X144780000Y-58420000D01*
X133350000Y-97269198D02*
X134099198Y-96520000D01*
X142240000Y-60960000D02*
X142240000Y-93980000D01*
X148590000Y-101600000D02*
X148590000Y-92710000D01*
X148590000Y-92710000D02*
X149860000Y-91440000D01*
X149860000Y-63500000D02*
X148590000Y-63500000D01*
X147320000Y-100330000D02*
X147320000Y-64770000D01*
X148590000Y-63500000D02*
X147320000Y-64770000D01*
X146050000Y-63500000D02*
X146050000Y-98859979D01*
X146050000Y-63500000D02*
X148590000Y-60960000D01*
X148590000Y-60960000D02*
X149860000Y-60960000D01*
X155689198Y-53340000D02*
X149860000Y-53340000D01*
X170180000Y-58420000D02*
X168910000Y-59690000D01*
X168910000Y-59690000D02*
X162039198Y-59690000D01*
X162039198Y-59690000D02*
X155689198Y-53340000D01*
X160020000Y-60960000D02*
X154940000Y-55880000D01*
X162560000Y-60960000D02*
X160020000Y-60960000D01*
X154940000Y-55880000D02*
X149860000Y-55880000D01*
D37*
X99695000Y-157480000D02*
X100965000Y-158750000D01*
X96980000Y-157480000D02*
X99695000Y-157480000D01*
X100965000Y-158750000D02*
X100965000Y-166370000D01*
M02*
