M48
; DRILL file {KiCad (6.0.6)} date Sun Aug  7 11:28:26 2022
; FORMAT={-:-/ absolute / inch / decimal}
; #@! TF.CreationDate,2022-08-07T11:28:26-07:00
; #@! TF.GenerationSoftware,Kicad,Pcbnew,(6.0.6)
; #@! TF.FileFunction,Plated,1,2,PTH
FMAT,2
INCH
; #@! TA.AperFunction,Plated,PTH,ViaDrill
T1C0.0157
; #@! TA.AperFunction,Plated,PTH,ComponentDrill
T2C0.0299
; #@! TA.AperFunction,Plated,PTH,ComponentDrill
T3C0.0315
; #@! TA.AperFunction,Plated,PTH,ComponentDrill
T4C0.0319
; #@! TA.AperFunction,Plated,PTH,ComponentDrill
T5C0.0354
; #@! TA.AperFunction,Plated,PTH,ComponentDrill
T6C0.0394
; #@! TA.AperFunction,Plated,PTH,ComponentDrill
T7C0.0400
; #@! TA.AperFunction,Plated,PTH,ComponentDrill
T8C0.0433
; #@! TA.AperFunction,Plated,PTH,ComponentDrill
T9C0.0472
; #@! TA.AperFunction,Plated,PTH,ComponentDrill
T10C0.0669
; #@! TA.AperFunction,Plated,PTH,ComponentDrill
T11C0.1260
; #@! TA.AperFunction,Plated,PTH,ComponentDrill
T12C0.1457
%
G90
G05
T1
X4.6764Y-2.2986
X4.6764Y-3.0236
X4.7014Y-3.0986
X4.7014Y-3.1986
X4.7264Y-2.2746
X4.7264Y-3.0486
X4.8014Y-4.1986
X4.8014Y-4.8986
X5.025Y-1.075
X5.0273Y-1.7986
X5.075Y-1.125
X5.0766Y-1.0768
X5.1514Y-1.6736
X5.325Y-0.775
X5.325Y-0.874
X5.375Y-0.799
X6.4514Y-4.5986
X6.4959Y-4.6431
T2
X2.7014Y-3.8486
X2.7014Y-3.9486
X2.7014Y-4.0486
X2.7014Y-4.1486
X2.7014Y-4.6486
X2.7014Y-4.7486
X2.7014Y-4.8486
X2.7014Y-4.9486
X2.8014Y-3.8986
X2.8014Y-3.9986
X2.8014Y-4.0986
X2.8014Y-4.1986
X2.8014Y-4.6986
X2.8014Y-4.7986
X2.8014Y-4.8986
X2.8014Y-4.9986
T3
X2.6014Y-1.1486
X2.7982Y-1.1486
X2.8764Y-6.2986
X2.9014Y-1.1486
X2.9014Y-1.5986
X2.9014Y-1.697
X2.9014Y-1.7986
X2.9014Y-1.897
X2.9014Y-2.0002
X2.9014Y-2.0986
X3.0014Y-1.4986
X3.0014Y-1.5986
X3.0014Y-1.6986
X3.0014Y-1.7986
X3.0014Y-1.8986
X3.0014Y-1.9986
X3.0014Y-2.0986
X3.0014Y-2.1986
X3.0514Y-4.0986
X3.0514Y-4.3986
X3.0514Y-4.5486
X3.1514Y-4.0986
X3.1514Y-4.3986
X3.2014Y-1.1486
X3.203Y-1.3736
X3.2514Y-4.0986
X3.2514Y-4.3986
X3.2764Y-6.2986
X3.3014Y-1.3736
X3.3014Y-1.4986
X3.3014Y-1.5986
X3.3014Y-1.6986
X3.3014Y-1.7986
X3.3014Y-1.8986
X3.3014Y-1.9986
X3.3014Y-2.0986
X3.3014Y-2.1986
X3.3514Y-4.0986
X3.3514Y-4.3986
X3.3514Y-4.5486
X3.4014Y-1.4986
X3.4014Y-1.597
X3.5014Y-4.0986
X3.5014Y-4.3986
X3.5014Y-4.5486
X3.5014Y-5.8018
X3.5014Y-5.9986
X3.6014Y-4.0986
X3.6014Y-4.3986
X3.7014Y-4.0986
X3.7014Y-4.3986
X3.8014Y-4.0986
X3.8014Y-4.3986
X3.8014Y-4.5486
X3.9514Y-4.0986
X3.9514Y-4.3986
X3.9514Y-4.5486
X4.0014Y-1.0486
X4.0014Y-2.5486
X4.0014Y-2.647
X4.0514Y-4.0986
X4.0514Y-4.3986
X4.1014Y-2.5486
X4.1014Y-2.647
X4.1014Y-5.5986
X4.1014Y-5.7955
X4.1514Y-4.0986
X4.1514Y-4.3986
X4.2014Y-1.1986
X4.2014Y-1.5486
X4.2014Y-1.6486
X4.2014Y-1.7486
X4.2014Y-1.8486
X4.2014Y-1.9486
X4.2014Y-2.0486
X4.2014Y-2.1486
X4.2014Y-2.2486
X4.2014Y-2.3486
X4.2014Y-2.4486
X4.2014Y-2.5486
X4.2014Y-2.6486
X4.2014Y-2.7486
X4.2014Y-2.8486
X4.2014Y-2.9486
X4.2014Y-3.0486
X4.2014Y-3.1486
X4.2014Y-3.2486
X4.2014Y-3.3486
X4.2014Y-3.4486
X4.2514Y-4.0986
X4.2514Y-4.3986
X4.2514Y-4.5486
X4.2514Y-5.5986
X4.2514Y-5.697
X4.2998Y-1.1986
X4.3014Y-1.0486
X4.4014Y-4.0986
X4.4014Y-4.3986
X4.4014Y-4.5486
X4.5014Y-4.0986
X4.5014Y-4.3986
X4.6014Y-4.0986
X4.6014Y-4.3986
X4.7014Y-4.0986
X4.7014Y-4.3986
X4.7014Y-4.5486
X4.8014Y-1.5486
X4.8014Y-1.6486
X4.8014Y-1.7486
X4.8014Y-1.8486
X4.8014Y-1.9486
X4.8014Y-2.0486
X4.8014Y-2.1486
X4.8014Y-2.2486
X4.8014Y-2.3486
X4.8014Y-2.4486
X4.8014Y-2.5486
X4.8014Y-2.6486
X4.8014Y-2.7486
X4.8014Y-2.8486
X4.8014Y-2.9486
X4.8014Y-3.0486
X4.8014Y-3.1486
X4.8014Y-3.2486
X4.8014Y-3.3486
X4.8014Y-3.4486
X4.8514Y-4.3486
X4.8514Y-4.6486
X4.9014Y-2.3486
X4.9014Y-2.447
X5.0014Y-2.3486
X5.0014Y-2.447
X5.1014Y-6.3486
X5.2014Y-6.4486
X5.3014Y-1.9486
X5.3014Y-2.0486
X5.3014Y-2.1486
X5.3014Y-2.2486
X5.3014Y-2.3486
X5.3014Y-2.4486
X5.3014Y-2.5486
X5.3014Y-2.8486
X5.3014Y-2.9486
X5.3014Y-3.0486
X5.3014Y-3.1486
X5.3014Y-3.2486
X5.3014Y-3.3486
X5.3014Y-3.4486
X5.3014Y-6.3486
X5.3636Y-5.0486
X5.4014Y-2.6986
X5.403Y-1.7986
X5.4998Y-2.6986
X5.5014Y-1.7986
X5.5014Y-5.0486
X5.6014Y-1.9486
X5.6014Y-2.0486
X5.6014Y-2.1486
X5.6014Y-2.2486
X5.6014Y-2.3486
X5.6014Y-2.4486
X5.6014Y-2.5486
X5.6014Y-2.8486
X5.6014Y-2.9486
X5.6014Y-3.0486
X5.6014Y-3.1486
X5.6014Y-3.2486
X5.6014Y-3.3486
X5.6014Y-3.4486
X5.7Y-6.2
X5.7Y-6.4
X6.0014Y-5.7986
X6.0014Y-5.9986
X6.0514Y-1.1736
X6.0514Y-1.4736
X6.0514Y-1.6486
X6.0514Y-1.9486
X6.0514Y-2.1486
X6.0514Y-2.4486
X6.0514Y-2.6486
X6.0514Y-2.9486
X6.0514Y-3.1236
X6.0514Y-3.4236
X6.0514Y-3.6236
X6.0514Y-3.9236
X6.0514Y-4.0986
X6.0514Y-4.3986
X6.0514Y-4.5986
X6.0514Y-4.8986
X6.2Y-6.2
X6.2Y-6.4
X6.2014Y-5.4486
X6.2014Y-5.6455
X6.4014Y-5.7986
X6.4014Y-5.9986
X6.6514Y-5.7002
X6.6514Y-5.7986
X6.6514Y-6.0502
X6.6514Y-6.1486
X7.1014Y-5.3736
X7.1014Y-5.6736
X7.1014Y-5.8486
X7.1014Y-6.1486
X7.5Y-3.05
X7.5Y-4.1
X7.5014Y-1.55
X7.5014Y-2.0486
X7.5014Y-2.55
X7.5014Y-4.6486
X7.5504Y-4.8504
X7.5504Y-4.9504
X7.5504Y-5.0504
X7.5504Y-5.1504
X7.8Y-3.05
X7.8Y-4.1
X7.8014Y-1.55
X7.8014Y-2.0486
X7.8014Y-2.55
X7.8014Y-4.6486
X7.8504Y-4.8504
X7.8504Y-4.9504
X7.8504Y-5.0504
X7.8504Y-5.1504
X8.0764Y-4.8236
X8.0764Y-5.2236
T4
X4.5065Y-5.4986
X4.5065Y-6.0986
X4.6065Y-5.4986
X4.6065Y-6.0986
X5.1065Y-5.4986
X5.1065Y-6.0986
X5.2065Y-5.4986
X5.2065Y-6.0986
X5.3065Y-5.4986
X5.3065Y-6.0986
X5.5065Y-5.4986
X5.5065Y-6.0986
T5
X8.3Y-2.4496
X8.3Y-2.5496
X8.3Y-2.6496
X8.3Y-4.0
X8.3Y-4.1
X8.3014Y-1.4496
X8.3014Y-1.5496
X8.3014Y-1.6496
X8.3014Y-1.9486
X8.3014Y-2.0486
X8.3014Y-2.1486
X8.3014Y-2.9496
X8.3014Y-3.0496
X8.3014Y-3.1496
X8.3014Y-5.7986
X8.3014Y-5.8986
T6
X2.5196Y-1.7169
X2.5196Y-1.826
X2.5196Y-1.935
X2.5196Y-2.0441
X2.6314Y-1.6624
X2.6314Y-1.7715
X2.6314Y-1.8805
X2.6314Y-1.9896
X2.6314Y-2.0986
X2.7Y-2.7
X2.7Y-2.8
X2.7Y-2.9
X2.7Y-3.0
X2.7Y-3.1
X2.7Y-3.2
X3.7014Y-5.6986
X3.7014Y-5.7986
X3.7014Y-5.8986
X4.2014Y-1.3486
X4.3014Y-1.3486
X4.4014Y-1.3486
X4.5014Y-1.3486
X4.6014Y-1.3486
X4.7014Y-1.3486
X5.0014Y-4.3486
X5.0014Y-4.6486
X5.3014Y-4.3486
X5.3014Y-4.6486
X5.5014Y-4.3486
X5.5014Y-4.6486
X5.7014Y-4.3486
X5.7014Y-4.6486
X5.8514Y-5.4986
X5.8514Y-5.5986
X5.8514Y-5.7986
X5.8514Y-5.8986
X5.8514Y-5.9986
X6.2514Y-1.1736
X6.2514Y-1.4736
X6.2514Y-1.6486
X6.2514Y-1.9486
X6.2514Y-2.1486
X6.2514Y-2.4486
X6.2514Y-2.6486
X6.2514Y-2.9486
X6.2514Y-3.1236
X6.2514Y-3.4236
X6.2514Y-3.6236
X6.2514Y-3.9236
X6.2514Y-4.0986
X6.2514Y-4.3986
X6.2514Y-4.5986
X6.2514Y-4.8986
X6.4514Y-5.4486
X6.5514Y-1.1736
X6.5514Y-1.4736
X6.5514Y-1.6486
X6.5514Y-1.9486
X6.5514Y-2.1486
X6.5514Y-2.4486
X6.5514Y-2.6486
X6.5514Y-2.9486
X6.5514Y-3.1236
X6.5514Y-3.4236
X6.5514Y-3.6236
X6.5514Y-3.9236
X6.5514Y-4.0986
X6.5514Y-4.3986
X6.5514Y-4.5986
X6.5514Y-4.8986
X6.5514Y-5.4486
X6.6514Y-5.4486
X6.7514Y-1.1736
X6.7514Y-1.4736
X6.7514Y-1.6486
X6.7514Y-1.9486
X6.7514Y-2.1486
X6.7514Y-2.4486
X6.7514Y-2.6486
X6.7514Y-2.9486
X6.7514Y-3.1236
X6.7514Y-3.4236
X6.7514Y-3.6236
X6.7514Y-3.9236
X6.7514Y-4.0986
X6.7514Y-4.3986
X6.7514Y-4.5986
X6.7514Y-4.8986
X6.9514Y-1.1736
X6.9514Y-1.4736
X6.9514Y-1.6486
X6.9514Y-1.9486
X6.9514Y-2.1486
X6.9514Y-2.4486
X6.9514Y-2.6486
X6.9514Y-2.9486
X6.9514Y-3.1236
X6.9514Y-3.4236
X6.9514Y-3.6236
X6.9514Y-3.9236
X6.9514Y-4.0986
X6.9514Y-4.3986
X6.9514Y-4.5986
X6.9514Y-4.8986
X7.3303Y-5.3657
X7.3303Y-5.6657
X7.3303Y-5.8532
X7.3303Y-6.1532
X7.6303Y-5.3657
X7.6303Y-5.6657
X7.6303Y-5.8532
X7.6303Y-6.1532
X7.8303Y-5.3657
X7.8303Y-5.6657
X7.8303Y-5.8532
X7.8303Y-6.1532
X8.0303Y-5.3657
X8.0303Y-5.6657
X8.0303Y-5.8532
X8.0303Y-6.1532
T7
X3.6014Y-1.5486
X3.6014Y-1.6486
X3.6014Y-1.7486
X3.6014Y-1.8486
X3.6014Y-1.9486
X3.6014Y-2.0486
X3.6014Y-2.1486
X3.6014Y-2.2486
X3.6014Y-2.3486
X3.6014Y-2.4486
X3.7014Y-1.5486
X3.7014Y-1.6486
X3.7014Y-1.7486
X3.7014Y-1.8486
X3.7014Y-1.9486
X3.7014Y-2.0486
X3.7014Y-2.1486
X3.7014Y-2.2486
X3.7014Y-2.3486
X3.7014Y-2.4486
T8
X4.4455Y-0.9986
X4.4455Y-1.1758
X4.7014Y-0.9986
X4.7014Y-1.1758
T9
X3.1014Y-5.7986
X3.1014Y-5.9955
X5.7514Y-5.1486
X6.9514Y-5.1486
X7.2514Y-1.1486
X7.2514Y-1.9486
X7.2514Y-2.1486
X7.2514Y-2.9486
X7.2514Y-3.1236
X7.2514Y-3.9236
X7.2514Y-4.0986
X7.2514Y-4.8986
T10
X2.6Y-5.5
X2.6Y-5.7
X2.6Y-5.9
X2.6Y-6.1
T11
X2.5755Y-1.3884
X2.5755Y-2.3726
T12
X2.4Y-3.5
X2.5014Y-0.8486
X2.5014Y-6.4486
X4.9014Y-5.1486
X8.2014Y-0.8486
X8.2014Y-6.4486
T0
M30
