M48
; DRILL file {KiCad (5.1.6)-1} date 06/24/20 19:29:35
; FORMAT={-:-/ absolute / inch / decimal}
; #@! TF.CreationDate,2020-06-24T19:29:35-07:00
; #@! TF.GenerationSoftware,Kicad,Pcbnew,(5.1.6)-1
; #@! TF.FileFunction,Plated,1,2,PTH
FMAT,2
INCH
T1C0.0157
T2C0.0299
T3C0.0315
T4C0.0319
T5C0.0354
T6C0.0362
T7C0.0394
T8C0.0400
T9C0.0433
T10C0.0472
T11C0.0917
T12C0.1260
T13C0.1457
%
G90
G05
T1
X5.75Y-3.8921
X5.8Y-3.95
X5.85Y-4.0
X5.9Y-4.45
X5.9Y-5.15
X7.55Y-4.85
X7.5945Y-4.8945
T2
X3.8Y-4.1
X3.8Y-4.2
X3.8Y-4.3
X3.8Y-4.4
X3.9Y-4.15
X3.9Y-4.25
X3.9Y-4.35
X3.9Y-4.45
X3.8Y-4.9
X3.8Y-5.0
X3.8Y-5.1
X3.8Y-5.2
X3.9Y-4.95
X3.9Y-5.05
X3.9Y-5.15
X3.9Y-5.25
T3
X4.15Y-4.8
X4.45Y-4.8
X5.2Y-2.8
X5.2Y-2.8984
X7.75Y-6.3016
X7.75Y-6.4
X8.6Y-4.142
X8.9Y-4.142
X6.4622Y-5.3
X6.6Y-5.3
X7.3Y-5.7
X7.3Y-5.8969
X3.7Y-1.4
X3.8969Y-1.4
X5.35Y-5.85
X5.35Y-5.9484
X5.5Y-4.8
X5.8Y-4.8
X4.6Y-3.85
X4.6Y-4.15
X4.7Y-3.85
X4.7Y-4.15
X4.8Y-3.85
X4.8Y-4.15
X4.9Y-3.85
X4.9Y-4.15
X5.0Y-3.85
X5.0Y-4.15
X5.1Y-3.85
X5.1Y-4.15
X5.2Y-3.85
X5.2Y-4.15
X5.3Y-3.85
X5.3Y-4.15
X5.4Y-3.85
X5.4Y-4.15
X5.1Y-1.3
X5.4Y-1.3
X6.1Y-2.6
X6.1Y-2.6984
X4.3016Y-1.625
X4.4Y-1.625
X6.5Y-2.95
X6.5984Y-2.95
X4.6Y-4.8
X4.9Y-4.8
X5.5Y-4.35
X5.5Y-4.65
X5.6Y-4.35
X5.6Y-4.65
X5.7Y-4.35
X5.7Y-4.65
X5.8Y-4.35
X5.8Y-4.65
X7.1Y-6.25
X7.5Y-6.25
X8.6Y-4.9
X8.9Y-4.9
X6.4Y-3.1
X6.4Y-3.2
X6.4Y-3.3
X6.4Y-3.4
X6.4Y-3.5
X6.4Y-3.6
X6.4Y-3.7
X6.7Y-3.1
X6.7Y-3.2
X6.7Y-3.3
X6.7Y-3.4
X6.7Y-3.5
X6.7Y-3.6
X6.7Y-3.7
X5.1Y-2.8
X5.1Y-2.8984
X7.15Y-3.375
X7.15Y-3.675
X5.2Y-5.85
X5.2Y-6.0469
X4.0Y-1.4
X4.3Y-1.4
X5.3Y-1.45
X5.3984Y-1.45
X5.05Y-4.8
X5.35Y-4.8
X4.0Y-1.85
X4.0Y-1.9484
X7.15Y-2.4
X7.15Y-2.7
X7.75Y-5.9516
X7.75Y-6.05
X8.75Y-5.2
X8.75Y-5.3
X8.75Y-5.4
X9.05Y-5.2
X9.05Y-5.3
X9.05Y-5.4
X7.15Y-1.425
X7.15Y-1.725
X4.15Y-4.35
X4.15Y-4.65
X4.25Y-4.35
X4.25Y-4.65
X4.35Y-4.35
X4.35Y-4.65
X4.45Y-4.35
X4.45Y-4.65
X3.5Y-3.6524
X3.8Y-3.6524
X3.5Y-3.8
X3.6969Y-3.8
X5.2Y-3.5
X5.2Y-3.5984
X8.2Y-5.625
X8.2Y-5.925
X4.6Y-4.35
X4.6Y-4.65
X4.7Y-4.35
X4.7Y-4.65
X4.8Y-4.35
X4.8Y-4.65
X4.9Y-4.35
X4.9Y-4.65
X7.1Y-6.05
X7.5Y-6.05
X7.15Y-3.875
X7.15Y-4.175
X5.05Y-4.35
X5.05Y-4.65
X5.15Y-4.35
X5.15Y-4.65
X5.25Y-4.35
X5.25Y-4.65
X5.35Y-4.35
X5.35Y-4.65
X7.15Y-1.9
X7.15Y-2.2
X4.4Y-3.95
X4.4Y-4.0484
X5.3Y-1.8
X5.3Y-1.9
X5.3Y-2.0
X5.3Y-2.1
X5.3Y-2.2
X5.3Y-2.3
X5.3Y-2.4
X5.3Y-2.5
X5.3Y-2.6
X5.3Y-2.7
X5.3Y-2.8
X5.3Y-2.9
X5.3Y-3.0
X5.3Y-3.1
X5.3Y-3.2
X5.3Y-3.3
X5.3Y-3.4
X5.3Y-3.5
X5.3Y-3.6
X5.3Y-3.7
X5.9Y-1.8
X5.9Y-1.9
X5.9Y-2.0
X5.9Y-2.1
X5.9Y-2.2
X5.9Y-2.3
X5.9Y-2.4
X5.9Y-2.5
X5.9Y-2.6
X5.9Y-2.7
X5.9Y-2.8
X5.9Y-2.9
X5.9Y-3.0
X5.9Y-3.1
X5.9Y-3.2
X5.9Y-3.3
X5.9Y-3.4
X5.9Y-3.5
X5.9Y-3.6
X5.9Y-3.7
X4.0Y-2.2516
X4.0Y-2.35
X8.2Y-6.1
X8.2Y-6.4
X6.5016Y-2.05
X6.6Y-2.05
X4.5Y-1.75
X4.5Y-1.8484
X7.15Y-4.35
X7.15Y-4.65
X6.4Y-2.2
X6.4Y-2.3
X6.4Y-2.4
X6.4Y-2.5
X6.4Y-2.6
X6.4Y-2.7
X6.4Y-2.8
X6.7Y-2.2
X6.7Y-2.3
X6.7Y-2.4
X6.7Y-2.5
X6.7Y-2.6
X6.7Y-2.7
X6.7Y-2.8
X4.6Y-6.0531
X4.6Y-6.25
X3.975Y-6.55
X4.375Y-6.55
X4.0Y-2.05
X4.0Y-2.1484
X9.175Y-5.075
X9.175Y-5.475
X7.15Y-4.85
X7.15Y-5.15
X6.0Y-2.6
X6.0Y-2.6984
X7.15Y-2.9
X7.15Y-3.2
X6.2Y-6.6
X6.3Y-6.7
X6.4Y-6.6
X4.1Y-1.75
X4.1Y-1.85
X4.1Y-1.95
X4.1Y-2.05
X4.1Y-2.15
X4.1Y-2.25
X4.1Y-2.35
X4.1Y-2.45
X4.4Y-1.75
X4.4Y-1.85
X4.4Y-1.95
X4.4Y-2.05
X4.4Y-2.15
X4.4Y-2.25
X4.4Y-2.35
X4.4Y-2.45
X5.95Y-4.6
X5.95Y-4.9
T4
X5.6051Y-5.75
X5.6051Y-6.35
X5.7051Y-5.75
X5.7051Y-6.35
X6.2051Y-5.75
X6.2051Y-6.35
X6.3051Y-5.75
X6.3051Y-6.35
X6.4051Y-5.75
X6.4051Y-6.35
X6.6051Y-5.75
X6.6051Y-6.35
T5
X9.4Y-6.02
X9.4Y-6.12
X9.4Y-4.04
X9.4Y-4.14
T6
X3.7413Y-3.2016
X3.7413Y-3.3
X3.82Y-3.2016
X3.82Y-3.3
T7
X6.1Y-4.6
X6.1Y-4.9
X6.4Y-4.6
X6.4Y-4.9
X6.6Y-4.6
X6.6Y-4.9
X6.8Y-4.6
X6.8Y-4.9
X8.4289Y-5.6171
X8.4289Y-5.9171
X8.7289Y-5.6171
X8.7289Y-5.9171
X8.9289Y-5.6171
X8.9289Y-5.9171
X9.1289Y-5.6171
X9.1289Y-5.9171
X7.35Y-1.425
X7.35Y-1.725
X7.65Y-1.425
X7.65Y-1.725
X7.85Y-1.425
X7.85Y-1.725
X8.05Y-1.425
X8.05Y-1.725
X7.35Y-4.85
X7.35Y-5.15
X7.65Y-4.85
X7.65Y-5.15
X7.85Y-4.85
X7.85Y-5.15
X8.05Y-4.85
X8.05Y-5.15
X7.55Y-5.7
X7.65Y-5.7
X7.75Y-5.7
X7.35Y-1.9
X7.35Y-2.2
X7.65Y-1.9
X7.65Y-2.2
X7.85Y-1.9
X7.85Y-2.2
X8.05Y-1.9
X8.05Y-2.2
X7.35Y-2.9
X7.35Y-3.2
X7.65Y-2.9
X7.65Y-3.2
X7.85Y-2.9
X7.85Y-3.2
X8.05Y-2.9
X8.05Y-3.2
X6.95Y-5.75
X6.95Y-5.85
X6.95Y-6.05
X6.95Y-6.15
X6.95Y-6.25
X7.35Y-3.375
X7.35Y-3.675
X7.65Y-3.375
X7.65Y-3.675
X7.85Y-3.375
X7.85Y-3.675
X8.05Y-3.375
X8.05Y-3.675
X4.8Y-5.95
X4.8Y-6.05
X4.8Y-6.15
X3.6182Y-1.9683
X3.6182Y-2.0774
X3.6182Y-2.1864
X3.6182Y-2.2955
X3.73Y-1.9138
X3.73Y-2.0228
X3.73Y-2.1319
X3.73Y-2.2409
X3.73Y-2.35
X5.3Y-1.6
X5.4Y-1.6
X5.5Y-1.6
X5.6Y-1.6
X5.7Y-1.6
X5.8Y-1.6
X8.5Y-6.65
X8.6Y-6.65
X7.35Y-3.875
X7.35Y-4.175
X7.65Y-3.875
X7.65Y-4.175
X7.85Y-3.875
X7.85Y-4.175
X8.05Y-3.875
X8.05Y-4.175
X7.35Y-2.4
X7.35Y-2.7
X7.65Y-2.4
X7.65Y-2.7
X7.85Y-2.4
X7.85Y-2.7
X8.05Y-2.4
X8.05Y-2.7
X7.35Y-4.35
X7.35Y-4.65
X7.65Y-4.35
X7.65Y-4.65
X7.85Y-4.35
X7.85Y-4.65
X8.05Y-4.35
X8.05Y-4.65
X8.4289Y-6.1045
X8.4289Y-6.4045
X8.7289Y-6.1045
X8.7289Y-6.4045
X8.9289Y-6.1045
X8.9289Y-6.4045
X9.1289Y-6.1045
X9.1289Y-6.4045
X4.2Y-3.2
X4.3Y-3.2
T8
X4.7Y-1.8
X4.7Y-1.9
X4.7Y-2.0
X4.7Y-2.1
X4.7Y-2.2
X4.7Y-2.3
X4.7Y-2.4
X4.7Y-2.5
X4.7Y-2.6
X4.7Y-2.7
X4.8Y-1.8
X4.8Y-1.9
X4.8Y-2.0
X4.8Y-2.1
X4.8Y-2.2
X4.8Y-2.3
X4.8Y-2.4
X4.8Y-2.5
X4.8Y-2.6
X4.8Y-2.7
T9
X5.5441Y-1.25
X5.5441Y-1.4272
X5.8Y-1.25
X5.8Y-1.4272
T10
X6.85Y-5.4
X8.05Y-5.4
X4.2Y-6.05
X4.2Y-6.2469
X8.35Y-1.4
X8.35Y-2.2
X8.35Y-3.375
X8.35Y-4.175
X8.35Y-4.35
X8.35Y-5.15
X8.35Y-2.4
X8.35Y-3.2
T11
X3.6346Y-3.0138
X3.6346Y-3.4878
T12
X3.6741Y-1.6398
X3.6741Y-2.624
T13
X3.6Y-6.7
X6.0Y-5.4
X3.6Y-1.1
X9.3Y-6.7
X3.6Y-5.7
X9.3Y-1.1
T7
G00X3.5819Y-6.2492
M15
G01X3.5819Y-6.1508
M16
G05
G00X3.6508Y-6.385
M15
G01X3.7492Y-6.385
M16
G05
G00X3.8181Y-6.2492
M15
G01X3.8181Y-6.1508
M16
G05
T0
M30
