G04 #@! TF.GenerationSoftware,KiCad,Pcbnew,(5.1.6)-1*
G04 #@! TF.CreationDate,2020-05-27T12:18:15-07:00*
G04 #@! TF.ProjectId,1d_coinctrl_r2,31645f63-6f69-46e6-9374-726c5f72322e,rev?*
G04 #@! TF.SameCoordinates,Original*
G04 #@! TF.FileFunction,Copper,L1,Top*
G04 #@! TF.FilePolarity,Positive*
%FSLAX46Y46*%
G04 Gerber Fmt 4.6, Leading zero omitted, Abs format (unit mm)*
G04 Created by KiCad (PCBNEW (5.1.6)-1) date 2020-05-27 12:18:15*
%MOMM*%
%LPD*%
G01*
G04 APERTURE LIST*
G04 #@! TA.AperFunction,NonConductor*
%ADD10C,0.300000*%
G04 #@! TD*
G04 #@! TA.AperFunction,ComponentPad*
%ADD11C,1.600000*%
G04 #@! TD*
G04 #@! TA.AperFunction,ComponentPad*
%ADD12C,7.400000*%
G04 #@! TD*
G04 #@! TA.AperFunction,ComponentPad*
%ADD13O,1.700000X1.700000*%
G04 #@! TD*
G04 #@! TA.AperFunction,ComponentPad*
%ADD14R,1.700000X1.700000*%
G04 #@! TD*
G04 #@! TA.AperFunction,ComponentPad*
%ADD15C,1.700000*%
G04 #@! TD*
G04 #@! TA.AperFunction,ComponentPad*
%ADD16C,1.800000*%
G04 #@! TD*
G04 #@! TA.AperFunction,ComponentPad*
%ADD17R,1.800000X1.800000*%
G04 #@! TD*
G04 #@! TA.AperFunction,ComponentPad*
%ADD18O,1.727200X1.727200*%
G04 #@! TD*
G04 #@! TA.AperFunction,ComponentPad*
%ADD19R,1.727200X1.727200*%
G04 #@! TD*
G04 #@! TA.AperFunction,ComponentPad*
%ADD20O,1.600000X1.600000*%
G04 #@! TD*
G04 #@! TA.AperFunction,ComponentPad*
%ADD21R,1.600000X1.600000*%
G04 #@! TD*
G04 #@! TA.AperFunction,ComponentPad*
%ADD22C,2.000000*%
G04 #@! TD*
G04 #@! TA.AperFunction,ComponentPad*
%ADD23C,1.500000*%
G04 #@! TD*
G04 #@! TA.AperFunction,ComponentPad*
%ADD24R,1.500000X1.500000*%
G04 #@! TD*
G04 #@! TA.AperFunction,ComponentPad*
%ADD25C,4.000000*%
G04 #@! TD*
G04 #@! TA.AperFunction,ComponentPad*
%ADD26R,2.000000X2.000000*%
G04 #@! TD*
G04 #@! TA.AperFunction,ComponentPad*
%ADD27O,2.400000X2.400000*%
G04 #@! TD*
G04 #@! TA.AperFunction,ComponentPad*
%ADD28C,2.400000*%
G04 #@! TD*
G04 #@! TA.AperFunction,ComponentPad*
%ADD29R,2.400000X2.400000*%
G04 #@! TD*
G04 #@! TA.AperFunction,ComponentPad*
%ADD30R,2.000000X4.500000*%
G04 #@! TD*
G04 #@! TA.AperFunction,ComponentPad*
%ADD31R,4.500000X2.000000*%
G04 #@! TD*
G04 #@! TA.AperFunction,ComponentPad*
%ADD32C,3.500000*%
G04 #@! TD*
G04 #@! TA.AperFunction,ComponentPad*
%ADD33C,1.220000*%
G04 #@! TD*
G04 #@! TA.AperFunction,ComponentPad*
%ADD34C,1.440000*%
G04 #@! TD*
G04 #@! TA.AperFunction,ViaPad*
%ADD35C,0.800000*%
G04 #@! TD*
G04 #@! TA.AperFunction,Conductor*
%ADD36C,1.000000*%
G04 #@! TD*
G04 #@! TA.AperFunction,Conductor*
%ADD37C,2.000000*%
G04 #@! TD*
G04 #@! TA.AperFunction,Conductor*
%ADD38C,0.200000*%
G04 #@! TD*
G04 #@! TA.AperFunction,Conductor*
%ADD39C,2.500000*%
G04 #@! TD*
G04 #@! TA.AperFunction,Conductor*
%ADD40C,0.250000*%
G04 #@! TD*
G04 #@! TA.AperFunction,Conductor*
%ADD41C,0.500000*%
G04 #@! TD*
G04 #@! TA.AperFunction,Conductor*
%ADD42C,0.300000*%
G04 #@! TD*
G04 APERTURE END LIST*
D10*
X148572142Y-24438571D02*
X148572142Y-25438571D01*
X148215000Y-23867142D02*
X147857857Y-24938571D01*
X148786428Y-24938571D01*
X149357857Y-24867142D02*
X150500714Y-24867142D01*
X151929285Y-25438571D02*
X151215000Y-25438571D01*
X151215000Y-23938571D01*
X152429285Y-25438571D02*
X152429285Y-24438571D01*
X152429285Y-23938571D02*
X152357857Y-24010000D01*
X152429285Y-24081428D01*
X152500714Y-24010000D01*
X152429285Y-23938571D01*
X152429285Y-24081428D01*
X153143571Y-24438571D02*
X153143571Y-25438571D01*
X153143571Y-24581428D02*
X153215000Y-24510000D01*
X153357857Y-24438571D01*
X153572142Y-24438571D01*
X153715000Y-24510000D01*
X153786428Y-24652857D01*
X153786428Y-25438571D01*
X155072142Y-25367142D02*
X154929285Y-25438571D01*
X154643571Y-25438571D01*
X154500714Y-25367142D01*
X154429285Y-25224285D01*
X154429285Y-24652857D01*
X154500714Y-24510000D01*
X154643571Y-24438571D01*
X154929285Y-24438571D01*
X155072142Y-24510000D01*
X155143571Y-24652857D01*
X155143571Y-24795714D01*
X154429285Y-24938571D01*
X157786428Y-25295714D02*
X157715000Y-25367142D01*
X157500714Y-25438571D01*
X157357857Y-25438571D01*
X157143571Y-25367142D01*
X157000714Y-25224285D01*
X156929285Y-25081428D01*
X156857857Y-24795714D01*
X156857857Y-24581428D01*
X156929285Y-24295714D01*
X157000714Y-24152857D01*
X157143571Y-24010000D01*
X157357857Y-23938571D01*
X157500714Y-23938571D01*
X157715000Y-24010000D01*
X157786428Y-24081428D01*
X158643571Y-25438571D02*
X158500714Y-25367142D01*
X158429285Y-25295714D01*
X158357857Y-25152857D01*
X158357857Y-24724285D01*
X158429285Y-24581428D01*
X158500714Y-24510000D01*
X158643571Y-24438571D01*
X158857857Y-24438571D01*
X159000714Y-24510000D01*
X159072142Y-24581428D01*
X159143571Y-24724285D01*
X159143571Y-25152857D01*
X159072142Y-25295714D01*
X159000714Y-25367142D01*
X158857857Y-25438571D01*
X158643571Y-25438571D01*
X159786428Y-25438571D02*
X159786428Y-24438571D01*
X159786428Y-23938571D02*
X159715000Y-24010000D01*
X159786428Y-24081428D01*
X159857857Y-24010000D01*
X159786428Y-23938571D01*
X159786428Y-24081428D01*
X160500714Y-24438571D02*
X160500714Y-25438571D01*
X160500714Y-24581428D02*
X160572142Y-24510000D01*
X160715000Y-24438571D01*
X160929285Y-24438571D01*
X161072142Y-24510000D01*
X161143571Y-24652857D01*
X161143571Y-25438571D01*
X163857857Y-25295714D02*
X163786428Y-25367142D01*
X163572142Y-25438571D01*
X163429285Y-25438571D01*
X163215000Y-25367142D01*
X163072142Y-25224285D01*
X163000714Y-25081428D01*
X162929285Y-24795714D01*
X162929285Y-24581428D01*
X163000714Y-24295714D01*
X163072142Y-24152857D01*
X163215000Y-24010000D01*
X163429285Y-23938571D01*
X163572142Y-23938571D01*
X163786428Y-24010000D01*
X163857857Y-24081428D01*
X164715000Y-25438571D02*
X164572142Y-25367142D01*
X164500714Y-25295714D01*
X164429285Y-25152857D01*
X164429285Y-24724285D01*
X164500714Y-24581428D01*
X164572142Y-24510000D01*
X164715000Y-24438571D01*
X164929285Y-24438571D01*
X165072142Y-24510000D01*
X165143571Y-24581428D01*
X165215000Y-24724285D01*
X165215000Y-25152857D01*
X165143571Y-25295714D01*
X165072142Y-25367142D01*
X164929285Y-25438571D01*
X164715000Y-25438571D01*
X165857857Y-24438571D02*
X165857857Y-25438571D01*
X165857857Y-24581428D02*
X165929285Y-24510000D01*
X166072142Y-24438571D01*
X166286428Y-24438571D01*
X166429285Y-24510000D01*
X166500714Y-24652857D01*
X166500714Y-25438571D01*
X167000714Y-24438571D02*
X167572142Y-24438571D01*
X167215000Y-23938571D02*
X167215000Y-25224285D01*
X167286428Y-25367142D01*
X167429285Y-25438571D01*
X167572142Y-25438571D01*
X168072142Y-25438571D02*
X168072142Y-24438571D01*
X168072142Y-24724285D02*
X168143571Y-24581428D01*
X168215000Y-24510000D01*
X168357857Y-24438571D01*
X168500714Y-24438571D01*
X169215000Y-25438571D02*
X169072142Y-25367142D01*
X169000714Y-25295714D01*
X168929285Y-25152857D01*
X168929285Y-24724285D01*
X169000714Y-24581428D01*
X169072142Y-24510000D01*
X169215000Y-24438571D01*
X169429285Y-24438571D01*
X169572142Y-24510000D01*
X169643571Y-24581428D01*
X169715000Y-24724285D01*
X169715000Y-25152857D01*
X169643571Y-25295714D01*
X169572142Y-25367142D01*
X169429285Y-25438571D01*
X169215000Y-25438571D01*
X170572142Y-25438571D02*
X170429285Y-25367142D01*
X170357857Y-25224285D01*
X170357857Y-23938571D01*
X171357857Y-25438571D02*
X171215000Y-25367142D01*
X171143571Y-25224285D01*
X171143571Y-23938571D01*
X172500714Y-25367142D02*
X172357857Y-25438571D01*
X172072142Y-25438571D01*
X171929285Y-25367142D01*
X171857857Y-25224285D01*
X171857857Y-24652857D01*
X171929285Y-24510000D01*
X172072142Y-24438571D01*
X172357857Y-24438571D01*
X172500714Y-24510000D01*
X172572142Y-24652857D01*
X172572142Y-24795714D01*
X171857857Y-24938571D01*
X173215000Y-25438571D02*
X173215000Y-24438571D01*
X173215000Y-24724285D02*
X173286428Y-24581428D01*
X173357857Y-24510000D01*
X173500714Y-24438571D01*
X173643571Y-24438571D01*
X175286428Y-25438571D02*
X175286428Y-23938571D01*
X175929285Y-25367142D02*
X176072142Y-25438571D01*
X176357857Y-25438571D01*
X176500714Y-25367142D01*
X176572142Y-25224285D01*
X176572142Y-25152857D01*
X176500714Y-25010000D01*
X176357857Y-24938571D01*
X176143571Y-24938571D01*
X176000714Y-24867142D01*
X175929285Y-24724285D01*
X175929285Y-24652857D01*
X176000714Y-24510000D01*
X176143571Y-24438571D01*
X176357857Y-24438571D01*
X176500714Y-24510000D01*
X177143571Y-25367142D02*
X177286428Y-25438571D01*
X177572142Y-25438571D01*
X177715000Y-25367142D01*
X177786428Y-25224285D01*
X177786428Y-25152857D01*
X177715000Y-25010000D01*
X177572142Y-24938571D01*
X177357857Y-24938571D01*
X177215000Y-24867142D01*
X177143571Y-24724285D01*
X177143571Y-24652857D01*
X177215000Y-24510000D01*
X177357857Y-24438571D01*
X177572142Y-24438571D01*
X177715000Y-24510000D01*
X180357857Y-25438571D02*
X179500714Y-25438571D01*
X179929285Y-25438571D02*
X179929285Y-23938571D01*
X179786428Y-24152857D01*
X179643571Y-24295714D01*
X179500714Y-24367142D01*
X181000714Y-25295714D02*
X181072142Y-25367142D01*
X181000714Y-25438571D01*
X180929285Y-25367142D01*
X181000714Y-25295714D01*
X181000714Y-25438571D01*
X145036428Y-28560000D02*
X144964999Y-28488571D01*
X144822142Y-28274285D01*
X144750714Y-28131428D01*
X144679285Y-27917142D01*
X144607857Y-27560000D01*
X144607857Y-27274285D01*
X144679285Y-26917142D01*
X144750714Y-26702857D01*
X144822142Y-26560000D01*
X144964999Y-26345714D01*
X145036428Y-26274285D01*
X146250714Y-27917142D02*
X146107857Y-27988571D01*
X145822142Y-27988571D01*
X145679285Y-27917142D01*
X145607857Y-27845714D01*
X145536428Y-27702857D01*
X145536428Y-27274285D01*
X145607857Y-27131428D01*
X145679285Y-27060000D01*
X145822142Y-26988571D01*
X146107857Y-26988571D01*
X146250714Y-27060000D01*
X146750714Y-28560000D02*
X146822142Y-28488571D01*
X146964999Y-28274285D01*
X147036428Y-28131428D01*
X147107857Y-27917142D01*
X147179285Y-27560000D01*
X147179285Y-27274285D01*
X147107857Y-26917142D01*
X147036428Y-26702857D01*
X146964999Y-26560000D01*
X146822142Y-26345714D01*
X146750714Y-26274285D01*
X148964999Y-26631428D02*
X149036428Y-26560000D01*
X149179285Y-26488571D01*
X149536428Y-26488571D01*
X149679285Y-26560000D01*
X149750714Y-26631428D01*
X149822142Y-26774285D01*
X149822142Y-26917142D01*
X149750714Y-27131428D01*
X148893571Y-27988571D01*
X149822142Y-27988571D01*
X150750714Y-26488571D02*
X150893571Y-26488571D01*
X151036428Y-26560000D01*
X151107857Y-26631428D01*
X151179285Y-26774285D01*
X151250714Y-27060000D01*
X151250714Y-27417142D01*
X151179285Y-27702857D01*
X151107857Y-27845714D01*
X151036428Y-27917142D01*
X150893571Y-27988571D01*
X150750714Y-27988571D01*
X150607857Y-27917142D01*
X150536428Y-27845714D01*
X150464999Y-27702857D01*
X150393571Y-27417142D01*
X150393571Y-27060000D01*
X150464999Y-26774285D01*
X150536428Y-26631428D01*
X150607857Y-26560000D01*
X150750714Y-26488571D01*
X151822142Y-26631428D02*
X151893571Y-26560000D01*
X152036428Y-26488571D01*
X152393571Y-26488571D01*
X152536428Y-26560000D01*
X152607857Y-26631428D01*
X152679285Y-26774285D01*
X152679285Y-26917142D01*
X152607857Y-27131428D01*
X151750714Y-27988571D01*
X152679285Y-27988571D01*
X153607857Y-26488571D02*
X153750714Y-26488571D01*
X153893571Y-26560000D01*
X153964999Y-26631428D01*
X154036428Y-26774285D01*
X154107857Y-27060000D01*
X154107857Y-27417142D01*
X154036428Y-27702857D01*
X153964999Y-27845714D01*
X153893571Y-27917142D01*
X153750714Y-27988571D01*
X153607857Y-27988571D01*
X153464999Y-27917142D01*
X153393571Y-27845714D01*
X153322142Y-27702857D01*
X153250714Y-27417142D01*
X153250714Y-27060000D01*
X153322142Y-26774285D01*
X153393571Y-26631428D01*
X153464999Y-26560000D01*
X153607857Y-26488571D01*
X155893571Y-27988571D02*
X155893571Y-26488571D01*
X155893571Y-27202857D02*
X156750714Y-27202857D01*
X156750714Y-27988571D02*
X156750714Y-26488571D01*
X157679285Y-27988571D02*
X157536428Y-27917142D01*
X157464999Y-27845714D01*
X157393571Y-27702857D01*
X157393571Y-27274285D01*
X157464999Y-27131428D01*
X157536428Y-27060000D01*
X157679285Y-26988571D01*
X157893571Y-26988571D01*
X158036428Y-27060000D01*
X158107857Y-27131428D01*
X158179285Y-27274285D01*
X158179285Y-27702857D01*
X158107857Y-27845714D01*
X158036428Y-27917142D01*
X157893571Y-27988571D01*
X157679285Y-27988571D01*
X158679285Y-26988571D02*
X158964999Y-27988571D01*
X159250714Y-27274285D01*
X159536428Y-27988571D01*
X159822142Y-26988571D01*
X161036428Y-27988571D02*
X161036428Y-27202857D01*
X160964999Y-27060000D01*
X160822142Y-26988571D01*
X160536428Y-26988571D01*
X160393571Y-27060000D01*
X161036428Y-27917142D02*
X160893571Y-27988571D01*
X160536428Y-27988571D01*
X160393571Y-27917142D01*
X160322142Y-27774285D01*
X160322142Y-27631428D01*
X160393571Y-27488571D01*
X160536428Y-27417142D01*
X160893571Y-27417142D01*
X161036428Y-27345714D01*
X161750714Y-27988571D02*
X161750714Y-26988571D01*
X161750714Y-27274285D02*
X161822142Y-27131428D01*
X161893571Y-27060000D01*
X162036428Y-26988571D01*
X162179285Y-26988571D01*
X163322142Y-27988571D02*
X163322142Y-26488571D01*
X163322142Y-27917142D02*
X163179285Y-27988571D01*
X162893571Y-27988571D01*
X162750714Y-27917142D01*
X162679285Y-27845714D01*
X162607857Y-27702857D01*
X162607857Y-27274285D01*
X162679285Y-27131428D01*
X162750714Y-27060000D01*
X162893571Y-26988571D01*
X163179285Y-26988571D01*
X163322142Y-27060000D01*
X165179285Y-27988571D02*
X165179285Y-26488571D01*
X165679285Y-27560000D01*
X166179285Y-26488571D01*
X166179285Y-27988571D01*
X166893571Y-27845714D02*
X166964999Y-27917142D01*
X166893571Y-27988571D01*
X166822142Y-27917142D01*
X166893571Y-27845714D01*
X166893571Y-27988571D01*
X168750714Y-27988571D02*
X168750714Y-26488571D01*
X168750714Y-27202857D02*
X169607857Y-27202857D01*
X169607857Y-27988571D02*
X169607857Y-26488571D01*
X170964999Y-27988571D02*
X170964999Y-27202857D01*
X170893571Y-27060000D01*
X170750714Y-26988571D01*
X170464999Y-26988571D01*
X170322142Y-27060000D01*
X170964999Y-27917142D02*
X170822142Y-27988571D01*
X170464999Y-27988571D01*
X170322142Y-27917142D01*
X170250714Y-27774285D01*
X170250714Y-27631428D01*
X170322142Y-27488571D01*
X170464999Y-27417142D01*
X170822142Y-27417142D01*
X170964999Y-27345714D01*
X171679285Y-27988571D02*
X171679285Y-26988571D01*
X171679285Y-27274285D02*
X171750714Y-27131428D01*
X171822142Y-27060000D01*
X171964999Y-26988571D01*
X172107857Y-26988571D01*
X172393571Y-26988571D02*
X172964999Y-26988571D01*
X172607857Y-26488571D02*
X172607857Y-27774285D01*
X172679285Y-27917142D01*
X172822142Y-27988571D01*
X172964999Y-27988571D01*
X174036428Y-27917142D02*
X173893571Y-27988571D01*
X173607857Y-27988571D01*
X173464999Y-27917142D01*
X173393571Y-27774285D01*
X173393571Y-27202857D01*
X173464999Y-27060000D01*
X173607857Y-26988571D01*
X173893571Y-26988571D01*
X174036428Y-27060000D01*
X174107857Y-27202857D01*
X174107857Y-27345714D01*
X173393571Y-27488571D01*
X175893571Y-27417142D02*
X177036428Y-27417142D01*
X178750714Y-26488571D02*
X179107857Y-27988571D01*
X179393571Y-26917142D01*
X179679285Y-27988571D01*
X180036428Y-26488571D01*
X180465000Y-26488571D02*
X181465000Y-26488571D01*
X180465000Y-27988571D01*
X181465000Y-27988571D01*
X181964999Y-26631428D02*
X182036428Y-26560000D01*
X182179285Y-26488571D01*
X182536428Y-26488571D01*
X182679285Y-26560000D01*
X182750714Y-26631428D01*
X182822142Y-26774285D01*
X182822142Y-26917142D01*
X182750714Y-27131428D01*
X181893571Y-27988571D01*
X182822142Y-27988571D01*
X184464999Y-28131428D02*
X184322142Y-28060000D01*
X184179285Y-27917142D01*
X183964999Y-27702857D01*
X183822142Y-27631428D01*
X183679285Y-27631428D01*
X183750714Y-27988571D02*
X183607857Y-27917142D01*
X183464999Y-27774285D01*
X183393571Y-27488571D01*
X183393571Y-26988571D01*
X183464999Y-26702857D01*
X183607857Y-26560000D01*
X183750714Y-26488571D01*
X184036428Y-26488571D01*
X184179285Y-26560000D01*
X184322142Y-26702857D01*
X184393571Y-26988571D01*
X184393571Y-27488571D01*
X184322142Y-27774285D01*
X184179285Y-27917142D01*
X184036428Y-27988571D01*
X183750714Y-27988571D01*
D11*
X185420000Y-149780000D03*
X185420000Y-144780000D03*
X132080000Y-153590000D03*
X132080000Y-148590000D03*
X116840000Y-153750000D03*
X116840000Y-158750000D03*
D12*
X152400000Y-137160000D03*
D11*
X154940000Y-68540000D03*
X154940000Y-66040000D03*
X129540000Y-73620000D03*
X129540000Y-71120000D03*
D12*
X91440000Y-144780000D03*
X236220000Y-27940000D03*
X91440000Y-27940000D03*
X236220000Y-170180000D03*
X91440000Y-170180000D03*
D13*
X109220000Y-81280000D03*
D14*
X106680000Y-81280000D03*
D15*
X115570000Y-130810000D03*
X115570000Y-128270000D03*
X115570000Y-125730000D03*
X115570000Y-123190000D03*
X115570000Y-120650000D03*
X115570000Y-118110000D03*
X115570000Y-115570000D03*
X115570000Y-113030000D03*
X115570000Y-110490000D03*
X115570000Y-107950000D03*
X113030000Y-130810000D03*
X113030000Y-128270000D03*
X113030000Y-125730000D03*
X113030000Y-123190000D03*
X113030000Y-120650000D03*
X113030000Y-118110000D03*
X113030000Y-115570000D03*
X113030000Y-113030000D03*
X113030000Y-110490000D03*
G04 #@! TA.AperFunction,ComponentPad*
G36*
G01*
X112180000Y-108550000D02*
X112180000Y-107350000D01*
G75*
G02*
X112430000Y-107100000I250000J0D01*
G01*
X113630000Y-107100000D01*
G75*
G02*
X113880000Y-107350000I0J-250000D01*
G01*
X113880000Y-108550000D01*
G75*
G02*
X113630000Y-108800000I-250000J0D01*
G01*
X112430000Y-108800000D01*
G75*
G02*
X112180000Y-108550000I0J250000D01*
G01*
G37*
G04 #@! TD.AperFunction*
D16*
X238760000Y-110490000D03*
D17*
X238760000Y-107950000D03*
D16*
X238760000Y-85090000D03*
D17*
X238760000Y-82550000D03*
D16*
X238760000Y-59690000D03*
D17*
X238760000Y-57150000D03*
D16*
X238760000Y-72390000D03*
D17*
X238760000Y-69850000D03*
D16*
X238760000Y-46990000D03*
D17*
X238760000Y-44450000D03*
D16*
X238760000Y-154940000D03*
D17*
X238760000Y-152400000D03*
D13*
X218440000Y-168910000D03*
D14*
X215900000Y-168910000D03*
D18*
X121920000Y-68580000D03*
X119380000Y-68580000D03*
X121920000Y-66040000D03*
X119380000Y-66040000D03*
X121920000Y-63500000D03*
X119380000Y-63500000D03*
X121920000Y-60960000D03*
X119380000Y-60960000D03*
X121920000Y-58420000D03*
X119380000Y-58420000D03*
X121920000Y-55880000D03*
X119380000Y-55880000D03*
X121920000Y-53340000D03*
X119380000Y-53340000D03*
X121920000Y-50800000D03*
X119380000Y-50800000D03*
X121920000Y-48260000D03*
X119380000Y-48260000D03*
X121920000Y-45720000D03*
D19*
X119380000Y-45720000D03*
D20*
X149860000Y-45720000D03*
X134620000Y-93980000D03*
X149860000Y-48260000D03*
X134620000Y-91440000D03*
X149860000Y-50800000D03*
X134620000Y-88900000D03*
X149860000Y-53340000D03*
X134620000Y-86360000D03*
X149860000Y-55880000D03*
X134620000Y-83820000D03*
X149860000Y-58420000D03*
X134620000Y-81280000D03*
X149860000Y-60960000D03*
X134620000Y-78740000D03*
X149860000Y-63500000D03*
X134620000Y-76200000D03*
X149860000Y-66040000D03*
X134620000Y-73660000D03*
X149860000Y-68580000D03*
X134620000Y-71120000D03*
X149860000Y-71120000D03*
X134620000Y-68580000D03*
X149860000Y-73660000D03*
X134620000Y-66040000D03*
X149860000Y-76200000D03*
X134620000Y-63500000D03*
X149860000Y-78740000D03*
X134620000Y-60960000D03*
X149860000Y-81280000D03*
X134620000Y-58420000D03*
X149860000Y-83820000D03*
X134620000Y-55880000D03*
X149860000Y-86360000D03*
X134620000Y-53340000D03*
X149860000Y-88900000D03*
X134620000Y-50800000D03*
X149860000Y-91440000D03*
X134620000Y-48260000D03*
X149860000Y-93980000D03*
D21*
X134620000Y-45720000D03*
D20*
X96520000Y-92770000D03*
D11*
X88900000Y-92770000D03*
X93900000Y-96520000D03*
X88900000Y-96520000D03*
D20*
X111760000Y-44450000D03*
X104140000Y-62230000D03*
X111760000Y-46990000D03*
X104140000Y-59690000D03*
X111760000Y-49530000D03*
X104140000Y-57150000D03*
X111760000Y-52070000D03*
X104140000Y-54610000D03*
X111760000Y-54610000D03*
X104140000Y-52070000D03*
X111760000Y-57150000D03*
X104140000Y-49530000D03*
X111760000Y-59690000D03*
X104140000Y-46990000D03*
X111760000Y-62230000D03*
D21*
X104140000Y-44450000D03*
D22*
X90550000Y-99570000D03*
X90550000Y-115830000D03*
D23*
X89660000Y-111280000D03*
X89660000Y-109240000D03*
X89660000Y-107200000D03*
X89660000Y-105160000D03*
X91440000Y-110260000D03*
X91440000Y-108220000D03*
X91440000Y-106180000D03*
D24*
X91440000Y-104140000D03*
D20*
X109220000Y-35560000D03*
D11*
X101600000Y-35560000D03*
D20*
X233045000Y-128905000D03*
D11*
X233045000Y-139065000D03*
D25*
X92560000Y-66650000D03*
X92560000Y-41650000D03*
D11*
X91140000Y-49995000D03*
X91140000Y-52765000D03*
X91140000Y-55535000D03*
X91140000Y-58305000D03*
X93980000Y-48610000D03*
X93980000Y-51380000D03*
X93980000Y-54150000D03*
X93980000Y-56920000D03*
D21*
X93980000Y-59690000D03*
D11*
X98980000Y-35560000D03*
X93980000Y-35560000D03*
X101600000Y-59690000D03*
X101600000Y-57190000D03*
X109260000Y-41275000D03*
X111760000Y-41275000D03*
X101600000Y-54570000D03*
X101600000Y-52070000D03*
X101600000Y-49490000D03*
X101600000Y-46990000D03*
X114300000Y-46950000D03*
X114300000Y-44450000D03*
D22*
X204470000Y-123190000D03*
X199390000Y-123190000D03*
X194310000Y-123190000D03*
X204470000Y-130810000D03*
X199390000Y-130810000D03*
X194310000Y-130810000D03*
X186690000Y-123190000D03*
D26*
X186690000Y-130810000D03*
D27*
X212090000Y-110490000D03*
D28*
X212090000Y-130810000D03*
D20*
X218440000Y-124460000D03*
D11*
X226060000Y-124460000D03*
D20*
X226060000Y-46990000D03*
D11*
X218440000Y-46990000D03*
D20*
X226060000Y-72390000D03*
D11*
X218440000Y-72390000D03*
D20*
X226060000Y-59690000D03*
D11*
X218440000Y-59690000D03*
D20*
X226060000Y-85090000D03*
D11*
X218440000Y-85090000D03*
D20*
X226060000Y-110490000D03*
D11*
X218440000Y-110490000D03*
D20*
X129540000Y-33020000D03*
D11*
X137160000Y-33020000D03*
D13*
X176530000Y-158750000D03*
X176530000Y-156210000D03*
X176530000Y-153670000D03*
X176530000Y-148590000D03*
D14*
X176530000Y-146050000D03*
D11*
X196850000Y-151170000D03*
D21*
X196850000Y-153670000D03*
D11*
X196850000Y-160060000D03*
D21*
X196850000Y-162560000D03*
D22*
X162640000Y-134620000D03*
D26*
X167640000Y-134620000D03*
D20*
X180340000Y-153670000D03*
D11*
X190500000Y-153670000D03*
D20*
X180340000Y-158750000D03*
D11*
X190500000Y-158750000D03*
D28*
X106680000Y-153670000D03*
D29*
X106680000Y-158670000D03*
D27*
X173990000Y-137160000D03*
D28*
X204470000Y-137160000D03*
D30*
X90980000Y-157480000D03*
X96980000Y-157480000D03*
D31*
X93980000Y-162180000D03*
D32*
X93080000Y-76550000D03*
X93080000Y-88590000D03*
D15*
X95790000Y-83820000D03*
X95790000Y-81320000D03*
X97790000Y-81320000D03*
D14*
X97790000Y-83820000D03*
D20*
X132080000Y-137160000D03*
X127000000Y-129540000D03*
X129540000Y-137160000D03*
X129540000Y-129540000D03*
X127000000Y-137160000D03*
D21*
X132080000Y-129540000D03*
D22*
X90550000Y-119890000D03*
X90550000Y-136150000D03*
D23*
X89660000Y-131600000D03*
X89660000Y-129560000D03*
X89660000Y-127520000D03*
X89660000Y-125480000D03*
X91440000Y-130580000D03*
X91440000Y-128540000D03*
X91440000Y-126500000D03*
D24*
X91440000Y-124460000D03*
D11*
X152400000Y-68540000D03*
X152400000Y-66040000D03*
X132080000Y-73620000D03*
X132080000Y-71120000D03*
X137120000Y-36830000D03*
X134620000Y-36830000D03*
X132080000Y-88900000D03*
X132080000Y-91400000D03*
X135890000Y-151090000D03*
X135890000Y-148590000D03*
X165100000Y-74930000D03*
X167600000Y-74930000D03*
X165140000Y-52070000D03*
X167640000Y-52070000D03*
D20*
X149860000Y-124460000D03*
D21*
X149860000Y-116840000D03*
D20*
X208280000Y-162560000D03*
D21*
X208280000Y-154940000D03*
D20*
X208280000Y-150495000D03*
D21*
X208280000Y-142875000D03*
D20*
X181610000Y-130810000D03*
D21*
X181610000Y-123190000D03*
D20*
X181610000Y-81280000D03*
D21*
X181610000Y-73660000D03*
D20*
X181610000Y-118110000D03*
D21*
X181610000Y-110490000D03*
D20*
X181610000Y-68580000D03*
D21*
X181610000Y-60960000D03*
D20*
X181610000Y-106045000D03*
D21*
X181610000Y-98425000D03*
D20*
X181610000Y-55880000D03*
D21*
X181610000Y-48260000D03*
D20*
X181610000Y-93345000D03*
D21*
X181610000Y-85725000D03*
D20*
X181610000Y-43815000D03*
D21*
X181610000Y-36195000D03*
D13*
X196850000Y-144780000D03*
X194310000Y-144780000D03*
D14*
X191770000Y-144780000D03*
D13*
X147320000Y-40640000D03*
X144780000Y-40640000D03*
X142240000Y-40640000D03*
X139700000Y-40640000D03*
X137160000Y-40640000D03*
D14*
X134620000Y-40640000D03*
D22*
X231875001Y-155055001D03*
X226795001Y-155055001D03*
X221715001Y-155055001D03*
X231875001Y-162675001D03*
X226795001Y-162675001D03*
X221715001Y-162675001D03*
X214095001Y-155055001D03*
D26*
X214095001Y-162675001D03*
D22*
X231875001Y-142675001D03*
X226795001Y-142675001D03*
X221715001Y-142675001D03*
X231875001Y-150295001D03*
X226795001Y-150295001D03*
X221715001Y-150295001D03*
X214095001Y-142675001D03*
D26*
X214095001Y-150295001D03*
D22*
X204470000Y-110490000D03*
X199390000Y-110490000D03*
X194310000Y-110490000D03*
X204470000Y-118110000D03*
X199390000Y-118110000D03*
X194310000Y-118110000D03*
X186690000Y-110490000D03*
D26*
X186690000Y-118110000D03*
D22*
X204470000Y-98425000D03*
X199390000Y-98425000D03*
X194310000Y-98425000D03*
X204470000Y-106045000D03*
X199390000Y-106045000D03*
X194310000Y-106045000D03*
X186690000Y-98425000D03*
D26*
X186690000Y-106045000D03*
D22*
X204470000Y-85725000D03*
X199390000Y-85725000D03*
X194310000Y-85725000D03*
X204470000Y-93345000D03*
X199390000Y-93345000D03*
X194310000Y-93345000D03*
X186690000Y-85725000D03*
D26*
X186690000Y-93345000D03*
D22*
X204470000Y-73660000D03*
X199390000Y-73660000D03*
X194310000Y-73660000D03*
X204470000Y-81280000D03*
X199390000Y-81280000D03*
X194310000Y-81280000D03*
X186690000Y-73660000D03*
D26*
X186690000Y-81280000D03*
D22*
X204470000Y-60960000D03*
X199390000Y-60960000D03*
X194310000Y-60960000D03*
X204470000Y-68580000D03*
X199390000Y-68580000D03*
X194310000Y-68580000D03*
X186690000Y-60960000D03*
D26*
X186690000Y-68580000D03*
D22*
X204470000Y-48260000D03*
X199390000Y-48260000D03*
X194310000Y-48260000D03*
X204470000Y-55880000D03*
X199390000Y-55880000D03*
X194310000Y-55880000D03*
X186690000Y-48260000D03*
D26*
X186690000Y-55880000D03*
D22*
X204470000Y-36195000D03*
X199390000Y-36195000D03*
X194310000Y-36195000D03*
X204470000Y-43815000D03*
X199390000Y-43815000D03*
X194310000Y-43815000D03*
X186690000Y-36195000D03*
D26*
X186690000Y-43815000D03*
D22*
X172720000Y-116840000D03*
X167640000Y-116840000D03*
X162560000Y-116840000D03*
X172720000Y-124460000D03*
X167640000Y-124460000D03*
X162560000Y-124460000D03*
X154940000Y-116840000D03*
D26*
X154940000Y-124460000D03*
D33*
X142370000Y-146050000D03*
X144910000Y-146050000D03*
X157610000Y-146050000D03*
X160150000Y-146050000D03*
X162690000Y-146050000D03*
X167770000Y-146050000D03*
X167770000Y-161290000D03*
X162690000Y-161290000D03*
X160150000Y-161290000D03*
X157610000Y-161290000D03*
X144910000Y-161290000D03*
X142370000Y-161290000D03*
D27*
X212090000Y-60960000D03*
D28*
X212090000Y-81280000D03*
D27*
X212090000Y-85725000D03*
D28*
X212090000Y-106045000D03*
D27*
X212090000Y-35560000D03*
D28*
X212090000Y-55880000D03*
D34*
X157480000Y-167640000D03*
X160020000Y-170180000D03*
X162560000Y-167640000D03*
D22*
X147320000Y-31750000D03*
X147320000Y-36250000D03*
X140820000Y-31750000D03*
X140820000Y-36250000D03*
X121920000Y-151130000D03*
X121920000Y-153670000D03*
D26*
X121920000Y-156210000D03*
D20*
X170180000Y-78740000D03*
X162560000Y-93980000D03*
X170180000Y-81280000D03*
X162560000Y-91440000D03*
X170180000Y-83820000D03*
X162560000Y-88900000D03*
X170180000Y-86360000D03*
X162560000Y-86360000D03*
X170180000Y-88900000D03*
X162560000Y-83820000D03*
X170180000Y-91440000D03*
X162560000Y-81280000D03*
X170180000Y-93980000D03*
D21*
X162560000Y-78740000D03*
D20*
X170180000Y-55880000D03*
X162560000Y-71120000D03*
X170180000Y-58420000D03*
X162560000Y-68580000D03*
X170180000Y-60960000D03*
X162560000Y-66040000D03*
X170180000Y-63500000D03*
X162560000Y-63500000D03*
X170180000Y-66040000D03*
X162560000Y-60960000D03*
X170180000Y-68580000D03*
X162560000Y-58420000D03*
X170180000Y-71120000D03*
D21*
X162560000Y-55880000D03*
D20*
X229870000Y-132080000D03*
X222250000Y-137160000D03*
X229870000Y-134620000D03*
X222250000Y-134620000D03*
X229870000Y-137160000D03*
D21*
X222250000Y-132080000D03*
D20*
X132080000Y-116840000D03*
X127000000Y-109220000D03*
X129540000Y-116840000D03*
X129540000Y-109220000D03*
X127000000Y-116840000D03*
D21*
X132080000Y-109220000D03*
D20*
X132080000Y-127000000D03*
X127000000Y-119380000D03*
X129540000Y-127000000D03*
X129540000Y-119380000D03*
X127000000Y-127000000D03*
D21*
X132080000Y-119380000D03*
D20*
X132080000Y-106680000D03*
X127000000Y-99060000D03*
X129540000Y-106680000D03*
X129540000Y-99060000D03*
X127000000Y-106680000D03*
D21*
X132080000Y-99060000D03*
D35*
X123190000Y-128270000D03*
X146050000Y-127000000D03*
X146050000Y-119380000D03*
X149860000Y-109220000D03*
X148590000Y-102870000D03*
X193040000Y-104140000D03*
D36*
X185420000Y-144780000D02*
X191770000Y-144780000D01*
D37*
X176530000Y-146050000D02*
X171450000Y-146050000D01*
X171450000Y-146050000D02*
X166370000Y-151130000D01*
X166370000Y-151130000D02*
X154940000Y-151130000D01*
X149860000Y-146050000D02*
X144910000Y-146050000D01*
X154940000Y-151130000D02*
X149860000Y-146050000D01*
D36*
X173990000Y-156210000D02*
X176530000Y-156210000D01*
X140240000Y-36830000D02*
X140820000Y-36250000D01*
X137120000Y-36830000D02*
X140240000Y-36830000D01*
X134620000Y-73660000D02*
X139700000Y-73660000D01*
X144780000Y-68580000D02*
X149860000Y-68580000D01*
X139700000Y-73660000D02*
X144780000Y-68580000D01*
X165140000Y-68540000D02*
X165140000Y-52070000D01*
X162560000Y-71120000D02*
X165140000Y-68540000D01*
X165140000Y-52070000D02*
X165140000Y-41950000D01*
X159440000Y-36250000D02*
X147320000Y-36250000D01*
X165140000Y-41950000D02*
X159440000Y-36250000D01*
X162560000Y-93980000D02*
X165100000Y-91440000D01*
X119380000Y-68580000D02*
X121920000Y-68580000D01*
X109220000Y-35560000D02*
X113030000Y-35560000D01*
X113030000Y-35560000D02*
X116840000Y-39370000D01*
X116840000Y-44410000D02*
X114300000Y-46950000D01*
X116840000Y-39370000D02*
X116840000Y-44410000D01*
X154900000Y-68580000D02*
X154940000Y-68540000D01*
X149860000Y-68580000D02*
X154900000Y-68580000D01*
D38*
X160020000Y-83820000D02*
X160020000Y-85090000D01*
X160020000Y-85090000D02*
X165100000Y-85090000D01*
X162560000Y-83820000D02*
X160020000Y-83820000D01*
D36*
X165100000Y-91440000D02*
X165100000Y-85090000D01*
X165100000Y-85090000D02*
X165100000Y-74930000D01*
D39*
X106680000Y-102930000D02*
X96520000Y-92770000D01*
X106680000Y-153670000D02*
X106680000Y-102930000D01*
D37*
X144910000Y-161290000D02*
X152400000Y-161290000D01*
X152400000Y-161290000D02*
X157480000Y-156210000D01*
X157480000Y-156210000D02*
X176530000Y-156210000D01*
X176530000Y-148590000D02*
X173990000Y-151130000D01*
X173990000Y-151130000D02*
X173990000Y-156210000D01*
D40*
X162560000Y-134540000D02*
X162640000Y-134620000D01*
D36*
X152400000Y-66040000D02*
X149860000Y-66040000D01*
X143510000Y-66040000D02*
X149860000Y-66040000D01*
X138430000Y-71120000D02*
X143510000Y-66040000D01*
X167640000Y-53340000D02*
X170180000Y-55880000D01*
X167640000Y-52070000D02*
X167640000Y-53340000D01*
X167600000Y-58460000D02*
X170180000Y-55880000D01*
X134620000Y-71120000D02*
X137160000Y-71120000D01*
X137160000Y-71120000D02*
X138430000Y-71120000D01*
X137160000Y-40640000D02*
X137160000Y-43180000D01*
X137160000Y-43180000D02*
X137160000Y-71120000D01*
X137160000Y-39437919D02*
X137160000Y-40640000D01*
X136012082Y-38290001D02*
X137160000Y-39437919D01*
X122110001Y-38290001D02*
X136012082Y-38290001D01*
X119380000Y-45720000D02*
X119380000Y-40640000D01*
X119760002Y-40640000D02*
X122110001Y-38290001D01*
X119380000Y-40640000D02*
X119760002Y-40640000D01*
X167449999Y-72580001D02*
X167600000Y-72430000D01*
X158940001Y-72580001D02*
X167449999Y-72580001D01*
X167600000Y-74930000D02*
X167600000Y-72430000D01*
X167600000Y-72430000D02*
X167600000Y-58460000D01*
X196850000Y-142240000D02*
X196850000Y-141803751D01*
X214193751Y-124460000D02*
X218440000Y-124460000D01*
X196850000Y-141803751D02*
X214193751Y-124460000D01*
X111760000Y-44450000D02*
X110490000Y-44450000D01*
X109220000Y-45720000D02*
X109220000Y-81280000D01*
X110490000Y-44450000D02*
X109220000Y-45720000D01*
X152400000Y-66040000D02*
X154940000Y-66040000D01*
X158940001Y-72580001D02*
X157480000Y-71120000D01*
X157480000Y-71120000D02*
X157480000Y-67310000D01*
X157480000Y-67310000D02*
X156210000Y-66040000D01*
X156210000Y-66040000D02*
X154940000Y-66040000D01*
D37*
X135890000Y-148590000D02*
X142240000Y-142240000D01*
X142240000Y-142240000D02*
X196850000Y-142240000D01*
X196850000Y-141803751D02*
X196850000Y-144780000D01*
D41*
X114290001Y-111769999D02*
X113030000Y-113030000D01*
X128210001Y-116259199D02*
X123720801Y-111769999D01*
X128870012Y-118525814D02*
X128210001Y-117865803D01*
X128210001Y-117865803D02*
X128210001Y-116259199D01*
X128870012Y-118710012D02*
X128870012Y-118525814D01*
X123720801Y-111769999D02*
X114290001Y-111769999D01*
X129540000Y-119380000D02*
X128870012Y-118710012D01*
X128685814Y-128870012D02*
X128085802Y-128270000D01*
X129540000Y-129540000D02*
X128870012Y-128870012D01*
X128870012Y-128870012D02*
X128685814Y-128870012D01*
X128085802Y-128270000D02*
X123190000Y-128270000D01*
X118050001Y-108009999D02*
X116419999Y-109640001D01*
X189220021Y-99743187D02*
X186148229Y-102814979D01*
X116419999Y-109640001D02*
X115570000Y-110490000D01*
X145990001Y-108009999D02*
X118050001Y-108009999D01*
X151185021Y-102814979D02*
X145990001Y-108009999D01*
X186148229Y-102814979D02*
X151185021Y-102814979D01*
X189220021Y-85773188D02*
X189220021Y-99743187D01*
X193713208Y-81280000D02*
X189220021Y-85773188D01*
X194310000Y-81280000D02*
X193713208Y-81280000D01*
X194310000Y-130810000D02*
X190500000Y-127000000D01*
X190500000Y-127000000D02*
X146050000Y-127000000D01*
X115570000Y-113030000D02*
X120709999Y-118169999D01*
X120709999Y-118169999D02*
X127580801Y-118169999D01*
X128210001Y-120926605D02*
X128543385Y-121259989D01*
X128210001Y-118799199D02*
X128210001Y-120926605D01*
X128543385Y-121259989D02*
X145389989Y-121259989D01*
X127580801Y-118169999D02*
X128210001Y-118799199D01*
X145389989Y-120040011D02*
X146050000Y-119380000D01*
X145389989Y-121259989D02*
X145389989Y-120040011D01*
D42*
X115570000Y-115570000D02*
X114190001Y-114190001D01*
X121920000Y-101600000D02*
X147320000Y-101600000D01*
X191835012Y-108519988D02*
X150560012Y-108519988D01*
X194310000Y-106045000D02*
X191835012Y-108519988D01*
D41*
X121920000Y-101600000D02*
X114300000Y-101600000D01*
X114300000Y-101600000D02*
X111760000Y-104140000D01*
X111760000Y-113624802D02*
X112445197Y-114309999D01*
X114309999Y-114309999D02*
X115570000Y-115570000D01*
X112445197Y-114309999D02*
X114309999Y-114309999D01*
X111760000Y-104140000D02*
X111760000Y-113624802D01*
D42*
X150560012Y-108519988D02*
X149860000Y-109220000D01*
X148590000Y-102870000D02*
X147320000Y-101600000D01*
D41*
X110490000Y-115570000D02*
X110490000Y-114300000D01*
X111750001Y-116830001D02*
X114290001Y-116830001D01*
X114290001Y-116830001D02*
X115570000Y-118110000D01*
X110490000Y-115570000D02*
X111750001Y-116830001D01*
X195720001Y-57290001D02*
X194310000Y-55880000D01*
X184150000Y-95250000D02*
X184150000Y-86178198D01*
X195720001Y-64629999D02*
X195720001Y-57290001D01*
X113605001Y-97214999D02*
X182185001Y-97214999D01*
X186013199Y-84314999D02*
X188735001Y-84314999D01*
X182185001Y-97214999D02*
X184150000Y-95250000D01*
X110490000Y-115570000D02*
X110490000Y-100330000D01*
X184150000Y-86178198D02*
X186013199Y-84314999D01*
X110490000Y-100330000D02*
X113605001Y-97214999D01*
X188735001Y-84314999D02*
X190500000Y-82550000D01*
X190500000Y-82550000D02*
X190500000Y-68580000D01*
X193840012Y-66509988D02*
X195720001Y-64629999D01*
X190500000Y-68580000D02*
X192570012Y-66509988D01*
X192570012Y-66509988D02*
X193840012Y-66509988D01*
X146049999Y-120650001D02*
X147320000Y-119380000D01*
X189724999Y-107455001D02*
X193040000Y-104140000D01*
X147320000Y-119380000D02*
X147320000Y-110490000D01*
X127749198Y-121920000D02*
X145663374Y-121919999D01*
X150354999Y-107455001D02*
X189724999Y-107455001D01*
X147320000Y-110490000D02*
X150354999Y-107455001D01*
X145663374Y-121919999D02*
X146049999Y-121533374D01*
X125219197Y-119389999D02*
X127749198Y-121920000D01*
X146049999Y-121533374D02*
X146049999Y-120650001D01*
X113705198Y-120650000D02*
X113030000Y-120650000D01*
X114965199Y-119389999D02*
X113705198Y-120650000D01*
X125219197Y-119389999D02*
X114965199Y-119389999D01*
X159823397Y-109079999D02*
X192428408Y-109079999D01*
X194053407Y-107455001D02*
X194986801Y-107455001D01*
X194986801Y-107455001D02*
X196659978Y-105781824D01*
X192428408Y-109079999D02*
X194053407Y-107455001D01*
X115570000Y-120650000D02*
X125545802Y-120650000D01*
X196659978Y-105781824D02*
X196659978Y-97754780D01*
X194320210Y-95415012D02*
X193359813Y-95415011D01*
X196659978Y-97754780D02*
X194320210Y-95415012D01*
X146323385Y-122580011D02*
X159823397Y-109079999D01*
X127475813Y-122580011D02*
X146323385Y-122580011D01*
X125545802Y-120650000D02*
X127475813Y-122580011D01*
X193359813Y-95415011D02*
X193117401Y-95172599D01*
X192430010Y-91713386D02*
X192430010Y-85518188D01*
X191770001Y-92373395D02*
X192430010Y-91713386D01*
X194598186Y-83350012D02*
X195260186Y-83350012D01*
X196850000Y-81760198D02*
X196850000Y-71120000D01*
X193117401Y-95172599D02*
X192239988Y-94295186D01*
X192430010Y-85518188D02*
X194128198Y-83820000D01*
X193117401Y-95172599D02*
X191770001Y-93825199D01*
X191770001Y-93825199D02*
X191770001Y-92373395D01*
X192430010Y-85518188D02*
X194598186Y-83350012D01*
X196850000Y-71120000D02*
X194310000Y-68580000D01*
X192239988Y-91903408D02*
X192430010Y-91713386D01*
X195260186Y-83350012D02*
X196850000Y-81760198D01*
X193831793Y-108610011D02*
X194765187Y-108610011D01*
X197319988Y-97481394D02*
X194593595Y-94755001D01*
X125892405Y-121929999D02*
X127202428Y-123240022D01*
X194765187Y-108610011D02*
X197319989Y-106055209D01*
X194310000Y-90766792D02*
X194310000Y-85725000D01*
X184150000Y-113030000D02*
X189411802Y-113030000D01*
X192899999Y-94021801D02*
X192899999Y-92176793D01*
X151586791Y-118250001D02*
X178929999Y-118250001D01*
X113030000Y-123190000D02*
X114290001Y-121929999D01*
X178929999Y-118250001D02*
X184150000Y-113030000D01*
X189411802Y-113030000D02*
X193831793Y-108610011D01*
X127202428Y-123240022D02*
X146596771Y-123240021D01*
X193633199Y-94755001D02*
X192899999Y-94021801D01*
X194593595Y-94755001D02*
X193633199Y-94755001D01*
X197319989Y-106055209D02*
X197319988Y-97481394D01*
X114290001Y-121929999D02*
X125892405Y-121929999D01*
X192899999Y-92176793D02*
X194310000Y-90766792D01*
X146596771Y-123240021D02*
X151586791Y-118250001D01*
X192130012Y-120289988D02*
X194310000Y-118110000D01*
X151305814Y-120289988D02*
X192130012Y-120289988D01*
X147695770Y-123900032D02*
X151305814Y-120289988D01*
X115570000Y-123190000D02*
X126219010Y-123190000D01*
X126219010Y-123190000D02*
X126929042Y-123900032D01*
X126929042Y-123900032D02*
X147695770Y-123900032D01*
X113879999Y-124880001D02*
X113030000Y-125730000D01*
X196850000Y-113030000D02*
X196850000Y-119380000D01*
X194310000Y-110490000D02*
X196850000Y-113030000D01*
X196850000Y-119380000D02*
X195110012Y-121119988D01*
X190913053Y-121489999D02*
X151039199Y-121489999D01*
X195110012Y-121119988D02*
X191283064Y-121119988D01*
X151039199Y-121489999D02*
X147969156Y-124560042D01*
X191283064Y-121119988D02*
X190913053Y-121489999D01*
X114300000Y-124460000D02*
X113879999Y-124880001D01*
X126655656Y-124560042D02*
X126555614Y-124460000D01*
X147969156Y-124560042D02*
X126655656Y-124560042D01*
X126555614Y-124460000D02*
X114300000Y-124460000D01*
X128329999Y-126539197D02*
X128329999Y-127580801D01*
X115570000Y-125730000D02*
X127520802Y-125730000D01*
X128329999Y-127580801D02*
X128959199Y-128210001D01*
X128959199Y-128210001D02*
X142299999Y-128210001D01*
X142299999Y-128210001D02*
X144639999Y-125870001D01*
X197979999Y-97014999D02*
X194310000Y-93345000D01*
X197839998Y-106468596D02*
X197979999Y-106328593D01*
X196709999Y-121779999D02*
X197839998Y-120650000D01*
X197839998Y-120650000D02*
X197839998Y-106468596D01*
X189123897Y-125870001D02*
X193213899Y-121779999D01*
X197979999Y-106328593D02*
X197979999Y-97014999D01*
X127520802Y-125730000D02*
X128329999Y-126539197D01*
X144639999Y-125870001D02*
X189123897Y-125870001D01*
X193213899Y-121779999D02*
X196709999Y-121779999D01*
X195309999Y-35195001D02*
X194310000Y-36195000D01*
X203826775Y-133540027D02*
X207010000Y-130356802D01*
X205740000Y-33020000D02*
X197485000Y-33020000D01*
X197485000Y-33020000D02*
X195309999Y-35195001D01*
X207010000Y-130356802D02*
X207010000Y-34290000D01*
X177800000Y-132080000D02*
X179260028Y-133540027D01*
X207010000Y-34290000D02*
X205740000Y-33020000D01*
X179260028Y-133540027D02*
X203826775Y-133540027D01*
X118704802Y-132080000D02*
X177800000Y-132080000D01*
X114290001Y-129530001D02*
X116154803Y-129530001D01*
X113030000Y-128270000D02*
X114290001Y-129530001D01*
X116154803Y-129530001D02*
X118704802Y-132080000D01*
X115828198Y-128270000D02*
X115570000Y-128270000D01*
X177800000Y-130810000D02*
X118368198Y-130810000D01*
X179870012Y-132880012D02*
X177800000Y-130810000D01*
X200313186Y-132880012D02*
X179870012Y-132880012D01*
X194310000Y-43815000D02*
X196215000Y-45720000D01*
X205880001Y-127313197D02*
X200313186Y-132880012D01*
X204470000Y-45720000D02*
X205880001Y-47130001D01*
X118368198Y-130810000D02*
X115828198Y-128270000D01*
X205880001Y-47130001D02*
X205880001Y-127313197D01*
X196215000Y-45720000D02*
X204470000Y-45720000D01*
X125730000Y-53340000D02*
X123190000Y-50800000D01*
X123190000Y-50800000D02*
X123141314Y-50800000D01*
X130665802Y-77470000D02*
X125730000Y-72534198D01*
X143510000Y-77470000D02*
X130665802Y-77470000D01*
X149860000Y-83820000D02*
X143510000Y-77470000D01*
X123141314Y-50800000D02*
X121920000Y-50800000D01*
X125730000Y-72534198D02*
X125730000Y-53340000D01*
X121923601Y-48263601D02*
X121920000Y-48260000D01*
X123193601Y-48263601D02*
X121923601Y-48263601D01*
X127000000Y-71120000D02*
X127000000Y-52070000D01*
X149860000Y-81280000D02*
X143510000Y-74930000D01*
X127000000Y-52070000D02*
X123193601Y-48263601D01*
X129059198Y-74930000D02*
X143510000Y-74930000D01*
X128329999Y-74200801D02*
X129059198Y-74930000D01*
X128329999Y-72449999D02*
X127000000Y-71120000D01*
X128329999Y-74200801D02*
X128329999Y-72449999D01*
X97790000Y-81320000D02*
X101640000Y-81320000D01*
X101640000Y-81320000D02*
X106680000Y-86360000D01*
X106680000Y-86360000D02*
X132080000Y-86360000D01*
X148649999Y-87689999D02*
X149860000Y-88900000D01*
X133409999Y-87689999D02*
X148649999Y-87689999D01*
X132080000Y-86360000D02*
X133409999Y-87689999D01*
X97050001Y-80059999D02*
X101649999Y-80059999D01*
X95790000Y-81320000D02*
X97050001Y-80059999D01*
X101649999Y-80059999D02*
X106680000Y-85090000D01*
X148590000Y-85090000D02*
X149860000Y-86360000D01*
X106680000Y-85090000D02*
X148590000Y-85090000D01*
D36*
X230875002Y-154055002D02*
X231875001Y-155055001D01*
X228815001Y-151995001D02*
X230875002Y-154055002D01*
X197675001Y-151995001D02*
X228815001Y-151995001D01*
X196850000Y-151170000D02*
X197675001Y-151995001D01*
D41*
X231875001Y-162675001D02*
X226910002Y-167640000D01*
X219710000Y-167640000D02*
X218440000Y-168910000D01*
X226910002Y-167640000D02*
X219710000Y-167640000D01*
X226795001Y-162675001D02*
X224370002Y-165100000D01*
X219710000Y-165100000D02*
X215900000Y-168910000D01*
X224370002Y-165100000D02*
X219710000Y-165100000D01*
D36*
X231875001Y-142675001D02*
X228900000Y-139700000D01*
X228900000Y-139700000D02*
X213360000Y-139700000D01*
X210820000Y-137160000D02*
X204470000Y-137160000D01*
X213360000Y-139700000D02*
X210820000Y-137160000D01*
D41*
X184810807Y-132220005D02*
X196709995Y-132220005D01*
X196850000Y-132080000D02*
X196850000Y-125730000D01*
X182130802Y-129540000D02*
X184810807Y-132220005D01*
X196709995Y-132220005D02*
X196850000Y-132080000D01*
X132080000Y-129540000D02*
X182130802Y-129540000D01*
X196850000Y-125730000D02*
X194310000Y-123190000D01*
X194310000Y-98425000D02*
X192405000Y-98425000D01*
X186195001Y-104634999D02*
X151905001Y-104634999D01*
X192405000Y-98425000D02*
X186195001Y-104634999D01*
X151905001Y-104634999D02*
X137160000Y-119380000D01*
X137160000Y-119380000D02*
X132080000Y-119380000D01*
X194310000Y-73660000D02*
X195720001Y-75070001D01*
X151795010Y-103474990D02*
X146050000Y-109220000D01*
X146050000Y-109220000D02*
X132080000Y-109220000D01*
X189880032Y-100016572D02*
X186421614Y-103474990D01*
X195720001Y-75070001D02*
X195720001Y-81956801D01*
X193236604Y-82690001D02*
X189880032Y-86046573D01*
X189880032Y-86046573D02*
X189880032Y-100016572D01*
X186421614Y-103474990D02*
X151795010Y-103474990D01*
X195720001Y-81956801D02*
X194986801Y-82690001D01*
X194986801Y-82690001D02*
X193236604Y-82690001D01*
X147320000Y-99060000D02*
X132080000Y-99060000D01*
X196850000Y-50800000D02*
X196850000Y-64770000D01*
X196850000Y-64770000D02*
X194450001Y-67169999D01*
X193633199Y-67169999D02*
X191770000Y-69033198D01*
X188560010Y-99469802D02*
X185874844Y-102154968D01*
X191770000Y-82289813D02*
X188560010Y-85499803D01*
X194450001Y-67169999D02*
X193633199Y-67169999D01*
X150414968Y-102154968D02*
X147320000Y-99060000D01*
X188560010Y-85499803D02*
X188560010Y-99469802D01*
X185874844Y-102154968D02*
X150414968Y-102154968D01*
X191770000Y-69033198D02*
X191770000Y-82289813D01*
X194310000Y-48260000D02*
X196850000Y-50800000D01*
D38*
X158389989Y-85450011D02*
X158389989Y-82910011D01*
X158389989Y-82910011D02*
X162560000Y-78740000D01*
X134620000Y-91440000D02*
X135680001Y-90379999D01*
X153460001Y-90379999D02*
X158389989Y-85450011D01*
X135680001Y-90379999D02*
X153460001Y-90379999D01*
D41*
X170180000Y-91440000D02*
X167640000Y-91440000D01*
X167640000Y-91440000D02*
X163830000Y-95250000D01*
X163830000Y-95250000D02*
X138430000Y-95250000D01*
X137160000Y-93980000D02*
X134620000Y-93980000D01*
X138430000Y-95250000D02*
X137160000Y-93980000D01*
D36*
X206480000Y-154940000D02*
X204575000Y-156845000D01*
X208280000Y-154940000D02*
X206480000Y-154940000D01*
X204575000Y-156845000D02*
X194310000Y-156845000D01*
X194310000Y-156845000D02*
X193040000Y-155575000D01*
X193040000Y-155575000D02*
X193040000Y-149225000D01*
X193040000Y-149225000D02*
X194310000Y-147955000D01*
X194310000Y-147955000D02*
X194310000Y-144780000D01*
X181610000Y-110490000D02*
X163830000Y-110490000D01*
X157480000Y-116840000D02*
X154940000Y-116840000D01*
X163830000Y-110490000D02*
X157480000Y-116840000D01*
X225425000Y-128905000D02*
X222250000Y-132080000D01*
X233045000Y-128905000D02*
X225425000Y-128905000D01*
D42*
X120746399Y-64866399D02*
X119380000Y-63500000D01*
X123236379Y-64866399D02*
X120746399Y-64866399D01*
X125069990Y-66700010D02*
X123236379Y-64866399D01*
D41*
X134620000Y-78740000D02*
X131002406Y-78740000D01*
X125069990Y-72807584D02*
X125069990Y-66700010D01*
X131002406Y-78740000D02*
X125069990Y-72807584D01*
X134620000Y-83820000D02*
X124409980Y-73609980D01*
X124409980Y-73609980D02*
X124409980Y-68529980D01*
X124409980Y-68529980D02*
X121920000Y-66040000D01*
M02*
